<svg width="361" height="80" viewBox="0 0 361 80" fill="none" xmlns="http://www.w3.org/2000/svg">
<rect width="361" height="80" rx="8" fill="#F1F5F9"/>
<path fill-rule="evenodd" clip-rule="evenodd" d="M40 20.2612L40.0012 20.1409L40.0035 20.0206L40.0072 19.9003L40.012 19.78L40.0181 19.6597L40.0254 19.5394L40.034 19.4192L40.0438 19.299L40.0549 19.1788L40.0671 19.0586L40.0806 18.9386L40.0954 18.8186L40.1114 18.6987L40.1286 18.579L40.147 18.4593L40.1667 18.3399L40.1876 18.2205L40.2098 18.1013L40.2332 17.9823L40.2578 17.8634L40.2836 17.7447L40.3107 17.6263L40.339 17.5081L40.3685 17.3901L40.3992 17.2723L40.4312 17.1548L40.4644 17.0376L40.4987 16.9206L40.5343 16.804L40.5711 16.6876L40.6092 16.5716L40.6484 16.4559L40.6888 16.3405L40.7304 16.2255L40.7732 16.1108L40.8172 15.9965L40.8624 15.8826L40.9088 15.7691L40.9564 15.6561L41.0051 15.5434L41.055 15.4311L41.1061 15.3193L41.1584 15.208L41.2118 15.0972L41.2663 14.9868L41.3221 14.8769L41.3789 14.7675L41.4369 14.6586L41.4961 14.5503L41.5564 14.4425L41.6178 14.3352L41.6803 14.2285L41.744 14.1224L41.8087 14.0169L41.8746 13.9119L41.9416 13.8076L42.0097 13.7039L42.0788 13.6008L42.1491 13.4983L42.2204 13.3965L42.2928 13.2954L42.3662 13.1949L42.4407 13.0951L42.5163 12.996L42.5929 12.8976L42.6706 12.7999L42.7492 12.7029L42.8289 12.6067L42.9097 12.5112L42.9914 12.4165L43.0741 12.3225L43.1579 12.2293L43.2426 12.1369L43.3283 12.0453L43.4149 11.9545L43.5026 11.8645L43.5911 11.7754L43.6807 11.687L43.7711 11.5996L43.8626 11.5129L43.9549 11.4272L44.0481 11.3423L44.1423 11.2582L44.2373 11.1751L44.3332 11.0929L44.4301 11.0116L44.5277 10.9312L44.6263 10.8517L44.7257 10.7732L44.8259 10.6956L44.927 10.619L45.0289 10.5433L45.1316 10.4686L45.2351 10.3949L45.3394 10.3221L45.4445 10.2504L45.5504 10.1796L45.657 10.1099L45.7644 10.0412L45.8726 9.97351L45.9814 9.90687L46.091 9.84126L46.2013 9.7767L46.3123 9.7132L46.424 9.65077L46.5364 9.58941L46.6494 9.52912L46.7631 9.46992L46.8775 9.41181L46.9925 9.35481L47.1081 9.2989L47.2244 9.24411L47.3412 9.19044L47.4587 9.1379L47.5767 9.08649L47.6954 9.03621L47.8145 8.98708L47.9342 8.9391L48.0545 8.89227L48.1752 8.84661L48.2965 8.80211L48.4183 8.75879L48.5406 8.71664L48.6633 8.67567L48.7865 8.6359L48.9102 8.59731L49.0343 8.55993L49.1589 8.52375L49.2838 8.48877L49.4092 8.455L49.535 8.42245L49.6611 8.39113L49.7876 8.36103L49.9145 8.33215L50.0417 8.30452L50.1692 8.27811L50.297 8.25295L50.4252 8.22903L50.5536 8.20636L50.6824 8.18494L50.8114 8.16477L50.9406 8.14586L51.0701 8.12821L51.1998 8.11183L51.3298 8.09671L51.4599 8.08285L51.5903 8.07027L51.7208 8.05896L51.8514 8.04892L51.9822 8.04017L52.6857 8L52.7258 11.3892L52.7488 11.3889L52.8459 11.3888L52.9431 11.3896L53.0402 11.3914L53.1375 11.3941L53.2347 11.3978L53.3319 11.4024L53.4292 11.408L53.5265 11.4146L53.6237 11.4221L53.7209 11.4306L53.8181 11.44L53.9152 11.4504L54.0122 11.4617L54.1092 11.474L54.2061 11.4873L54.303 11.5015L54.3997 11.5167L54.4964 11.5329L54.5928 11.5499L54.6893 11.568L54.7855 11.587L54.8816 11.607L54.9776 11.6279L55.0733 11.6498L55.1689 11.6726L55.2644 11.6964L55.3596 11.7211L55.4546 11.7467L55.5494 11.7734L55.644 11.8009L55.7383 11.8294L55.8324 11.8589L55.9262 11.8892L56.0198 11.9206L56.1131 11.9528L56.2061 11.986L56.2989 12.0201L56.3913 12.0552L56.4834 12.0911L56.5752 12.128L56.6666 12.1658L56.7577 12.2046L56.8485 12.2442L56.9389 12.2847L57.0289 12.3262L57.1185 12.3686L57.2078 12.4118L57.2967 12.456L57.3851 12.5011L57.4731 12.547L57.5607 12.5938L57.6479 12.6416L57.7346 12.6902L57.8209 12.7396L57.9067 12.79L57.992 12.8412L58.0769 12.8933L58.1612 12.9462L58.245 13L58.3284 13.0546L58.4112 13.1101L58.4935 13.1665L58.5752 13.2236L58.6565 13.2816L58.7371 13.3404L58.8171 13.4001L58.8967 13.4605L58.9756 13.5218L59.054 13.5839L59.1317 13.6467L59.2088 13.7104L59.2853 13.7749L59.3612 13.8401L59.4365 13.9061L59.5112 13.9729L59.5851 14.0404L59.6584 14.1088L59.7311 14.1778L59.8031 14.2476L59.8743 14.3182L59.945 14.3895L60.0149 14.4615L60.0841 14.5342L60.1526 14.6077L60.2204 14.6818L60.2874 14.7567L60.3537 14.8323L60.4193 14.9085L60.4841 14.9854L60.5481 15.063L60.6114 15.1413L60.674 15.2202L60.7357 15.2998L60.7967 15.38L60.8568 15.4609L60.9162 15.5424L60.9747 15.6245L61.0325 15.7072L61.0894 15.7905L61.1455 15.8745L61.2008 15.959L61.2552 16.0441L61.3087 16.1298L61.3614 16.216L61.4133 16.3029L61.4643 16.3902L61.5144 16.4781L61.5636 16.5666L61.612 16.6555L61.6595 16.745L61.706 16.835L61.7517 16.9255L61.7964 17.0164L61.8403 17.1079L61.8833 17.1999L61.9253 17.2923L61.9664 17.3851L62.0065 17.4784L62.0457 17.5722L62.084 17.6664L62.1213 17.761L62.1576 17.856L62.193 17.9514L62.2275 18.0472L62.261 18.1434L62.2935 18.24L62.325 18.3369L62.3556 18.4342L62.3852 18.5318L62.4137 18.6298L62.4413 18.7281L62.4679 18.8267L62.4935 18.9256L62.5181 19.0248L62.5417 19.1244L62.5643 19.2241L62.5858 19.3242L62.6064 19.4245L62.6259 19.5251L62.6444 19.6259L62.6619 19.7269L62.6783 19.8282L62.6937 19.9296L62.7081 20.0313L62.7215 20.1331L62.7338 20.2352L62.745 20.3374L62.7552 20.4397L62.7644 20.5422L62.7726 20.6449L62.7797 20.7477L62.7857 20.8506L62.7906 20.9535L62.7946 21.0567L62.7974 21.1598L62.7993 21.2631L62.8 21.3664L62.7997 21.4698L62.7983 21.5732L62.7959 21.6767L62.7924 21.7801L62.7878 21.8836L62.7822 21.9871L62.7755 22.0906L62.7678 22.1941L62.759 22.2976L62.7491 22.401L62.7381 22.5044L62.7261 22.6077L62.713 22.7109L62.6989 22.8141L62.6837 22.9171L62.6674 23.0201L62.6501 23.1229L62.6316 23.2257L62.6122 23.3283L62.5917 23.4307L62.5701 23.533L62.5474 23.6352L62.5237 23.7372L62.499 23.8389L62.4731 23.9405L62.4462 24.0418L62.4183 24.143L62.3894 24.2439L62.3594 24.3446L62.3283 24.4451L62.2961 24.5452L62.263 24.6452L62.2288 24.7448L62.1935 24.8442L62.1573 24.9432L62.12 25.0419L62.0816 25.1403L62.0423 25.2384L62.0019 25.3362L61.9605 25.4335L61.9181 25.5306L61.8746 25.6272L61.8302 25.7235L61.7847 25.8194L61.7382 25.9149L61.6907 26.01L61.6423 26.1046L61.5928 26.1988L61.5424 26.2926L61.4909 26.3859L61.4385 26.4787L61.3851 26.5711L61.3308 26.6631L61.2755 26.7544L61.2192 26.8454L61.1619 26.9358L61.1037 27.0256L61.0446 27.115L60.9845 27.2038L60.9234 27.292L60.8615 27.3798L60.7986 27.4669L60.7347 27.5535L60.67 27.6394L60.6044 27.7248L60.5378 27.8095L60.4704 27.8937L60.402 27.9772L60.3328 28.0601L60.2627 28.1424L60.1917 28.224L60.1198 28.3049L60.0471 28.3852L59.9735 28.4648L59.8991 28.5437L59.8238 28.6219L59.7477 28.6994L59.6708 28.7762L59.593 28.8523L59.5145 28.9276L59.4351 29.0023L59.3549 29.0761L59.2739 29.1493L59.1921 29.2216L59.1096 29.2932L59.0263 29.364L58.9422 29.434L58.8574 29.5032L58.7718 29.5717L58.6855 29.6393L58.5984 29.7061L58.5107 29.772L58.4222 29.8372L58.333 29.9015L58.2431 29.9649L58.1525 30.0276L58.0612 30.0893L57.9693 30.1501L57.8766 30.2101L57.7834 30.2693L57.6895 30.3275L57.5949 30.3849L57.4997 30.4413L57.4039 30.4968L57.3075 30.5514L57.2105 30.6051L57.1129 30.6579L57.0147 30.7096L56.9159 30.7605L56.8166 30.8105L56.7167 30.8595L56.6162 30.9075L56.5152 30.9546L56.4137 31.0006L56.3117 31.0458L56.2092 31.0899L56.1062 31.133L56.0027 31.1752L55.8987 31.2163L55.7942 31.2565L55.6893 31.2957L55.5839 31.3338L55.4781 31.3709L55.3719 31.407L55.2653 31.4421L55.1582 31.4761L55.0507 31.5091L54.9429 31.5411L54.8347 31.572L54.7261 31.6018L54.6172 31.6307L54.5079 31.6584L54.3983 31.6851L54.2884 31.7108L54.1781 31.7353L54.0676 31.7589L53.9568 31.7813L53.8457 31.8027L53.7343 31.8229L53.6227 31.8421L53.5108 31.8602L53.3987 31.8772L53.2863 31.8931L53.1738 31.908L53.0611 31.9217L52.9481 31.9343L52.835 31.9458L52.7217 31.9563L52.6083 31.9656L52.4948 31.9738L52.3811 31.9809L52.2672 31.9869L52.1532 31.9917L52.0392 31.9954L51.9251 31.9981L51.8109 31.9996L51.6966 32L51.5823 31.9993L51.4679 31.9974L51.3535 31.9945L51.2391 31.9903L51.1247 31.9851L51.0102 31.9788L50.8959 31.9713L50.7815 31.9627L50.6672 31.953L50.5529 31.9422L50.4386 31.9302L50.3245 31.9171L50.2104 31.9029L50.0964 31.8876L49.9826 31.8711L49.8689 31.8535L49.7553 31.8348L49.6418 31.815L49.5285 31.794L49.4154 31.7719L49.3024 31.7487L49.1897 31.7244L49.077 31.6989L48.9647 31.6724L48.8526 31.6447L48.7407 31.6159L48.629 31.5861L48.5177 31.5551L48.4065 31.523L48.2957 31.4898L48.1851 31.4555L48.0749 31.4201L47.965 31.3836L47.8554 31.346L47.7461 31.3073L47.6372 31.2676L47.5287 31.2267L47.4205 31.1848L47.3127 31.1418L47.2053 31.0977L47.0984 31.0525L46.9918 31.0063L46.8857 30.959L46.7799 30.9106L46.6747 30.8612L46.5699 30.8107L46.4657 30.7592L46.3618 30.7066L46.2585 30.6531L46.1557 30.5984L46.0533 30.5428L45.9516 30.4861L45.8504 30.4284L45.7497 30.3696L45.6495 30.3099L45.55 30.2491L45.451 30.1873L45.3526 30.1246L45.2549 30.0609L45.1577 29.9962L45.0611 29.9304L44.9652 29.8638L44.87 29.7961L44.7753 29.7275L44.6814 29.658L44.5881 29.5874L44.4955 29.5159L44.4036 29.4436L44.3124 29.3702L44.222 29.296L44.1322 29.2208L44.0432 29.1447L43.9549 29.0677L43.8674 28.9898L43.7806 28.911L43.6946 28.8314L43.6094 28.7508L43.525 28.6695L43.4414 28.5871L43.3586 28.504L43.2766 28.4201L43.1954 28.3353L43.1151 28.2496L43.0356 28.1632L42.957 28.0759L42.8792 27.9878L42.8023 27.8989L42.7263 27.8092L42.6512 27.7188L42.577 27.6276L42.5037 27.5356L42.4312 27.4428L42.3598 27.3493L42.2892 27.2551L42.2196 27.1601L42.1509 27.0644L42.0832 26.968L42.0164 26.8709L41.9506 26.7731L41.8858 26.6746L41.822 26.5755L41.7591 26.4756L41.6973 26.3751L41.6364 26.274L41.5766 26.1722L41.5178 26.0698L41.46 25.9668L41.4032 25.8632L41.3475 25.7589L41.2929 25.6541L41.2393 25.5487L41.1867 25.4428L41.1352 25.3363L41.0848 25.2292L41.0354 25.1216L40.9872 25.0134L40.94 24.9048L40.8939 24.7956L40.849 24.686L40.8051 24.5758L40.7623 24.4652L40.7207 24.3541L40.6802 24.2426L40.6408 24.1306L40.6025 24.0183L40.5654 23.9054L40.5294 23.7922L40.4946 23.6785L40.4609 23.5645L40.4284 23.4501L40.397 23.3353L40.3668 23.2203L40.3378 23.1048L40.3099 22.989L40.2832 22.8729L40.2577 22.7565L40.2334 22.6398L40.2103 22.5228L40.1883 22.4055L40.1676 22.288L40.148 22.1702L40.1297 22.0522L40.1125 21.9339L40.0966 21.8154L40.0818 21.6967L40.0683 21.5779L40.056 21.4588L40.0449 21.3397L40.035 21.2203L40.0263 21.1008L40.0189 20.9811L40.0127 20.8614L40.0077 20.7415L40.0039 20.6215L40.0014 20.5015L40.0001 20.3814L40 20.2612ZM51.6269 11.4602L51.5995 9.15007L51.5735 9.15258L51.4542 9.16528L51.3353 9.17913L51.2163 9.19415L51.0979 9.21029L50.9796 9.22761L50.8614 9.24608L50.7435 9.26569L50.6258 9.28647L50.5087 9.30832L50.3914 9.33141L50.2749 9.35553L50.1583 9.38086L50.0423 9.40728L49.9263 9.43486L49.811 9.46351L49.6959 9.4933L49.5811 9.52421L49.4667 9.55623L49.3528 9.58933L49.2391 9.62356L49.126 9.65886L49.0132 9.69528L48.901 9.73271L48.789 9.77132L48.6776 9.81096L48.5667 9.85165L48.4561 9.89346L48.3461 9.93628L48.2367 9.98013L48.1277 10.0251L48.0191 10.0711L47.9111 10.1182L47.8037 10.1662L47.6969 10.2153L47.5906 10.2654L47.4847 10.3166L47.3796 10.3687L47.275 10.4218L47.171 10.4759L47.0676 10.5311L46.965 10.5871L46.8627 10.6443L46.7612 10.7024L46.6605 10.7613L46.5601 10.8214L46.4607 10.8823L46.3619 10.9441L46.2636 11.0069L46.1661 11.0707L46.0694 11.1354L45.9735 11.2008L45.878 11.2674L45.7834 11.3348L45.6896 11.403L45.5964 11.4722L45.504 11.5422L45.4125 11.6131L45.3216 11.6849L45.2316 11.7575L45.1424 11.831L45.0539 11.9052L44.9663 11.9804L44.8795 12.0563L44.7934 12.1331L44.7083 12.2106L44.6239 12.289L44.5404 12.3681L44.4578 12.448L44.376 12.5287L44.2951 12.6101L44.215 12.6924L44.1359 12.7752L44.0577 12.8588L43.9802 12.9433L43.9038 13.0284L43.8283 13.1141L43.7536 13.2007L43.68 13.2878L43.6072 13.3757L43.5354 13.4642L43.4645 13.5534L43.3945 13.6432L43.3256 13.7337L43.2576 13.8247L43.1905 13.9165L43.1245 14.0088L43.0594 14.1018L42.9953 14.1952L42.9322 14.2893L42.87 14.384L42.8089 14.4792L42.7488 14.5749L42.6897 14.6712L42.6317 14.768L42.5746 14.8654L42.5185 14.9633L42.4636 15.0616L42.4096 15.1604L42.3567 15.2598L42.3048 15.3595L42.254 15.4598L42.2042 15.5604L42.1555 15.6615L42.1079 15.763L42.0613 15.865L42.0158 15.9673L41.9713 16.0701L41.9279 16.1733L41.8856 16.2767L41.8444 16.3806L41.8043 16.4848L41.7653 16.5893L41.7273 16.6942L41.6905 16.7993L41.6547 16.9048L41.6201 17.0106L41.5865 17.1167L41.5541 17.223L41.5227 17.3296L41.4925 17.4364L41.4634 17.5435L41.4354 17.6508L41.4085 17.7584L41.3827 17.8661L41.358 17.974L41.3345 18.0822L41.3121 18.1905L41.2908 18.2989L41.2706 18.4075L41.2515 18.5162L41.2336 18.6251L41.2168 18.7341L41.2011 18.8431L41.1865 18.9523L41.1731 19.0616L41.1608 19.1709L41.1496 19.2804L41.1396 19.3898L41.1307 19.4992L41.1229 19.6088L41.1162 19.7184L41.1106 19.8279L41.1062 19.9374L41.1029 20.0469L41.1007 20.1564L41.0997 20.2659L41.0998 20.3753L41.1009 20.4846L41.1032 20.5939L41.1067 20.7031L41.1112 20.8122L41.1169 20.9212L41.1236 21.0301L41.1315 21.1389L41.1405 21.2475L41.1506 21.3559L41.1618 21.4643L41.1741 21.5724L41.1876 21.6804L41.2021 21.7882L41.2177 21.8958L41.2344 22.0032L41.2522 22.1103L41.271 22.2172L41.291 22.3239L41.312 22.4302L41.3342 22.5364L41.3574 22.6423L41.3816 22.7479L41.407 22.8532L41.4334 22.9582L41.4608 23.0629L41.4893 23.1672L41.5189 23.2712L41.5496 23.3749L41.5812 23.4782L41.6139 23.5812L41.6477 23.6837L41.6824 23.7859L41.7183 23.8876L41.7551 23.989L41.7929 24.09L41.8318 24.1905L41.8717 24.2906L41.9125 24.3903L41.9544 24.4894L41.9972 24.5881L42.0411 24.6864L42.0859 24.7842L42.1317 24.8815L42.1785 24.9783L42.2263 25.0745L42.275 25.1703L42.3246 25.2655L42.3752 25.3602L42.4268 25.4543L42.4793 25.5478L42.5327 25.6408L42.587 25.7333L42.6423 25.8251L42.6984 25.9164L42.7555 26.007L42.8135 26.097L42.8723 26.1865L42.9321 26.2753L42.9927 26.3634L43.0541 26.451L43.1165 26.5378L43.1797 26.6241L43.2438 26.7096L43.3086 26.7945L43.3744 26.8786L43.4409 26.9621L43.5083 27.0449L43.5765 27.127L43.6454 27.2084L43.7152 27.289L43.7858 27.369L43.8571 27.4482L43.9292 27.5266L44.0021 27.6043L44.0757 27.6812L44.1501 27.7574L44.2252 27.8328L44.3011 27.9074L44.3776 27.9813L44.4549 28.0543L44.5329 28.1266L44.6116 28.198L44.691 28.2687L44.771 28.3384L44.8517 28.4074L44.9331 28.4756L45.0151 28.5429L45.0978 28.6095L45.1811 28.675L45.2651 28.7398L45.3496 28.8038L45.4348 28.8669L45.5205 28.929L45.6069 28.9903L45.6938 29.0508L45.7813 29.1103L45.8693 29.169L45.958 29.2267L46.0471 29.2836L46.1368 29.3395L46.227 29.3946L46.3177 29.4487L46.409 29.502L46.5006 29.5542L46.5929 29.6056L46.6855 29.656L46.7787 29.7055L46.8722 29.754L46.9662 29.8017L47.0607 29.8483L47.1557 29.894L47.2509 29.9388L47.3466 29.9826L47.4427 30.0253L47.5392 30.0672L47.6361 30.1081L47.7333 30.148L47.8309 30.187L47.9288 30.2249L48.0271 30.2619L48.1256 30.2979L48.2245 30.3329L48.3237 30.3669L48.4232 30.4L48.523 30.432L48.623 30.463L48.7233 30.4931L48.8238 30.5221L48.9246 30.5502L49.0257 30.5772L49.1269 30.6033L49.2284 30.6283L49.3299 30.6523L49.4318 30.6753L49.5338 30.6973L49.6359 30.7183L49.7383 30.7383L49.8408 30.7572L49.9434 30.7752L50.0461 30.7921L50.1489 30.808L50.2519 30.8229L50.355 30.8367L50.4581 30.8496L50.5613 30.8614L50.6645 30.8722L50.7678 30.8821L50.8712 30.8908L50.9746 30.8986L51.078 30.9054L51.1814 30.9111L51.2848 30.9158L51.3882 30.9195L51.4916 30.9222L51.5949 30.9238L51.6982 30.9245L51.8015 30.9241L51.9047 30.9228L52.0077 30.9204L52.1108 30.917L52.2137 30.9126L52.3166 30.9072L52.4192 30.9008L52.5218 30.8934L52.6243 30.885L52.7266 30.8756L52.8287 30.8652L52.9307 30.8538L53.0325 30.8414L53.1341 30.828L53.2355 30.8136L53.3367 30.7983L53.4377 30.7819L53.5385 30.7646L53.6391 30.7463L53.7393 30.727L53.8394 30.7068L53.9391 30.6856L54.0386 30.6634L54.1378 30.6403L54.2367 30.6162L54.3353 30.5911L54.4336 30.5651L54.5315 30.5382L54.6292 30.5103L54.7265 30.4814L54.8234 30.4516L54.92 30.421L55.0162 30.3893L55.112 30.3568L55.2074 30.3233L55.3025 30.2889L55.3971 30.2536L55.4913 30.2173L55.5851 30.1803L55.6784 30.1423L55.7712 30.1033L55.8637 30.0636L55.9557 30.0229L56.0471 29.9814L56.1382 29.9389L56.2287 29.8956L56.3187 29.8515L56.4083 29.8065L56.4973 29.7606L56.5858 29.7139L56.6738 29.6664L56.7612 29.618L56.8481 29.5688L56.9343 29.5188L57.0202 29.4679L57.1053 29.4163L57.19 29.3638L57.2739 29.3106L57.3573 29.2566L57.4402 29.2017L57.5225 29.146L57.6039 29.0898L57.6849 29.0326L57.7652 28.9747L57.8449 28.9161L57.924 28.8566L58.0023 28.7965L58.0801 28.7356L58.1571 28.674L58.2334 28.6117L58.3092 28.5487L58.3842 28.4849L58.4584 28.4205L58.532 28.3554L58.6049 28.2896L58.677 28.2231L58.7485 28.156L58.8191 28.0882L58.8891 28.0197L58.9584 27.9506L59.0268 27.8809L59.0946 27.8105L59.1615 27.7396L59.2276 27.6681L59.2931 27.5957L59.3577 27.523L59.4216 27.4495L59.4846 27.3756L59.5469 27.301L59.6083 27.226L59.6689 27.1503L59.7288 27.0741L59.7878 26.9974L59.846 26.92L59.9033 26.8423L59.9599 26.7639L60.0157 26.685L60.0704 26.6058L60.1245 26.526L60.1776 26.4457L60.2299 26.3649L60.2814 26.2836L60.332 26.202L60.3816 26.1199L60.4305 26.0372L60.4784 25.9543L60.5255 25.8709L60.5718 25.787L60.617 25.7029L60.6615 25.6182L60.705 25.5331L60.7476 25.4479L60.7893 25.3621L60.8302 25.2759L60.8701 25.1895L60.9091 25.1028L60.9472 25.0156L60.9843 24.9283L61.0206 24.8404L61.056 24.7524L61.0904 24.6642L61.1238 24.5754L61.1564 24.4866L61.188 24.3974L61.2188 24.308L61.2485 24.2183L61.2773 24.1286L61.3052 24.0382L61.3321 23.948L61.3581 23.8575L61.3832 23.7668L61.4073 23.6758L61.4304 23.5848L61.4526 23.4934L61.4739 23.4019L61.4942 23.3104L61.5136 23.2186L61.532 23.1268L61.5494 23.0347L61.5659 22.9428L61.5815 22.8505L61.596 22.7581L61.6097 22.6658L61.6224 22.5733L61.6341 22.4809L61.6449 22.3881L61.6547 22.2956L61.6635 22.2028L61.6714 22.1103L61.6784 22.0174L61.6844 21.9249L61.6894 21.832L61.6935 21.7392L61.6966 21.6465L61.6988 21.5541L61.7 21.4612L61.7003 21.3686L61.6997 21.2761L61.698 21.1836L61.6955 21.0912L61.6919 20.9991L61.6875 20.9066L61.6821 20.8146L61.6757 20.7225L61.6685 20.6308L61.6602 20.5389L61.6511 20.4474L61.641 20.3558L61.63 20.2645L61.6181 20.1733L61.6052 20.0824L61.5914 19.9915L61.5767 19.9009L61.5611 19.8107L61.5445 19.7204L61.527 19.6304L61.5086 19.5408L61.4893 19.4511L61.4692 19.362L61.448 19.2729L61.4261 19.1843L61.4031 19.0956L61.3794 19.0076L61.3547 18.9197L61.3292 18.832L61.3028 18.7448L61.2755 18.6579L61.2472 18.5711L61.2182 18.4849L61.1882 18.3988L61.1575 18.3133L61.1258 18.2279L61.0934 18.1431L61.0599 18.0585L61.0257 17.9743L60.9908 17.8906L60.9549 17.8074L60.9181 17.7242L60.8807 17.6418L60.8423 17.5595L60.8031 17.478L60.7632 17.3967L60.7223 17.3158L60.6808 17.2355L60.6384 17.1556L60.5951 17.076L60.5513 16.9972L60.5065 16.9186L60.461 16.8407L60.4146 16.7631L60.3677 16.6863L60.3198 16.6097L60.2713 16.5338L60.2219 16.4583L60.1719 16.3834L60.1212 16.3092L60.0696 16.2352L60.0173 16.162L59.9644 16.0893L59.9107 16.0172L59.8563 15.9456L59.8013 15.8746L59.7455 15.8042L59.6891 15.7344L59.6319 15.6652L59.5741 15.5966L59.5156 15.5286L59.4565 15.4612L59.3968 15.3945L59.3364 15.3284L59.2752 15.2628L59.2137 15.1981L59.1512 15.1338L59.0883 15.0704L59.0248 15.0075L58.9607 14.9453L58.8958 14.8836L58.8306 14.8229L58.7646 14.7627L58.6981 14.7031L58.6312 14.6444L58.5636 14.5863L58.4953 14.5288L58.4266 14.4721L58.3574 14.4161L58.2876 14.3608L58.2173 14.3062L58.1466 14.2525L58.0752 14.1993L58.0035 14.147L57.9312 14.0954L57.8583 14.0445L57.7852 13.9944L57.7113 13.9449L57.6374 13.8964L57.5626 13.8484L57.4876 13.8013L57.412 13.755L57.3361 13.7094L57.2598 13.6646L57.1832 13.6207L57.1058 13.5773L57.0285 13.5349L56.9505 13.4932L56.8722 13.4524L56.7936 13.4124L56.7145 13.3731L56.6351 13.3345L56.5554 13.2969L56.4753 13.26L56.3951 13.224L56.3144 13.1887L56.2308 13.1532L56.1522 13.1208L56.0704 13.0879L55.9887 13.056L55.9064 13.0248L55.8241 12.9945L55.7414 12.965L55.6586 12.9364L55.5753 12.9085L55.4921 12.8815L55.4084 12.8554L55.3246 12.8301L55.2407 12.8056L55.1565 12.782L55.0719 12.7591L54.9875 12.7372L54.9029 12.7161L54.8178 12.6958L54.7329 12.6764L54.6477 12.6578L54.5624 12.6401L54.4769 12.6232L54.3914 12.6072L54.3057 12.5921L54.2201 12.5778L54.1341 12.5643L54.0483 12.5517L53.9623 12.5399L53.8762 12.529L53.7901 12.5189L53.704 12.5097L53.6178 12.5013L53.5316 12.4938L53.4453 12.4871L53.359 12.4813L53.2729 12.4764L53.1867 12.4723L53.1003 12.469L53.0143 12.4666L52.9281 12.465L52.842 12.4643L52.7558 12.4644L52.7385 12.4646L52.7657 14.7579L52.8146 14.7577L52.8776 14.758L52.9405 14.759L53.0035 14.7606L53.0666 14.7628L53.1296 14.7657L53.1927 14.7692L53.2558 14.7733L53.3189 14.778L53.382 14.7834L53.4452 14.7894L53.5082 14.796L53.5713 14.8032L53.6344 14.8111L53.6974 14.8195L53.7604 14.8287L53.8233 14.8384L53.8862 14.8488L53.9491 14.8599L54.0119 14.8715L54.0746 14.8838L54.1372 14.8967L54.1998 14.9102L54.2622 14.9244L54.3246 14.9392L54.3869 14.9546L54.449 14.9706L54.511 14.9873L54.5729 15.0046L54.6347 15.0225L54.6964 15.0411L54.7579 15.0602L54.8192 15.08L54.8804 15.1004L54.9415 15.1215L55.0023 15.1431L55.0631 15.1654L55.1235 15.1882L55.1839 15.2118L55.244 15.2359L55.304 15.2606L55.3637 15.286L55.4232 15.3119L55.4825 15.3385L55.5415 15.3656L55.6003 15.3934L55.6589 15.4218L55.7172 15.4507L55.7753 15.4803L55.8332 15.5105L55.8907 15.5412L55.948 15.5726L56.005 15.6045L56.0617 15.637L56.1182 15.6702L56.1743 15.7039L56.2301 15.7381L56.2856 15.773L56.3408 15.8085L56.3957 15.8445L56.4503 15.881L56.5045 15.9181L56.5584 15.9559L56.6119 15.9941L56.6651 16.0329L56.7179 16.0723L56.7704 16.1122L56.8224 16.1527L56.8741 16.1938L56.9254 16.2353L56.9763 16.2774L57.0269 16.3201L57.077 16.3632L57.1268 16.4069L57.1761 16.4511L57.225 16.4959L57.2734 16.5411L57.3215 16.5869L57.369 16.6332L57.4162 16.68L57.4629 16.7272L57.5092 16.7751L57.555 16.8233L57.6003 16.8721L57.6452 16.9213L57.6896 16.9711L57.7335 17.0212L57.777 17.0719L57.8199 17.1231L57.8624 17.1747L57.9044 17.2267L57.9458 17.2792L57.9867 17.3322L58.0272 17.3856L58.0671 17.4395L58.1064 17.4937L58.1453 17.5485L58.1836 17.6036L58.2214 17.6592L58.2586 17.7151L58.2953 17.7715L58.3314 17.8283L58.367 17.8855L58.402 17.943L58.4364 18.001L58.4703 18.0594L58.5036 18.118L58.5363 18.1771L58.5684 18.2366L58.5999 18.2964L58.6309 18.3566L58.6612 18.4171L58.691 18.478L58.7201 18.5392L58.7486 18.6007L58.7765 18.6627L58.8038 18.7248L58.8305 18.7873L58.8566 18.8502L58.882 18.9133L58.9068 18.9767L58.9309 19.0404L58.9544 19.1044L58.9773 19.1686L58.9995 19.2332L59.0211 19.298L59.042 19.3631L59.0623 19.4284L59.0819 19.494L59.1009 19.5598L59.1192 19.6258L59.1368 19.6921L59.1537 19.7586L59.17 19.8253L59.1856 19.8922L59.2005 19.9594L59.2148 20.0267L59.2283 20.0942L59.2412 20.1619L59.2533 20.2298L59.2649 20.2978L59.2757 20.366L59.2857 20.4344L59.2952 20.5029L59.3039 20.5715L59.3119 20.6403L59.3192 20.7093L59.3258 20.7783L59.3317 20.8474L59.3369 20.9167L59.3414 20.986L59.3451 21.0555L59.3481 21.125L59.3505 21.1947L59.3521 21.2643L59.353 21.3341L59.3532 21.4039L59.3526 21.4738L59.3514 21.5437L59.3494 21.6136L59.3467 21.6837L59.3433 21.7536L59.3391 21.8236L59.3343 21.8937L59.3287 21.9637L59.3223 22.0338L59.3153 22.1038L59.3075 22.1737L59.2991 22.2438L59.2898 22.3137L59.2799 22.3836L59.2692 22.4534L59.2578 22.5232L59.2457 22.5929L59.2328 22.6626L59.2192 22.7322L59.2049 22.8016L59.1898 22.8711L59.1741 22.9404L59.1576 23.0095L59.1404 23.0786L59.1224 23.1476L59.1038 23.2164L59.0844 23.2851L59.0643 23.3536L59.0435 23.422L59.0219 23.4903L58.9996 23.5584L58.9766 23.6263L58.9529 23.694L58.9286 23.7616L58.9034 23.8289L58.8776 23.896L58.851 23.963L58.8238 24.0297L58.7958 24.0963L58.7672 24.1625L58.7378 24.2286L58.7078 24.2944L58.677 24.3599L58.6455 24.4252L58.6134 24.4902L58.5805 24.555L58.547 24.6195L58.5128 24.6836L58.4778 24.7475L58.4423 24.8111L58.406 24.8744L58.3691 24.9373L58.3314 25L58.2932 25.0623L58.2542 25.1244L58.2146 25.186L58.1743 25.2473L58.1333 25.3082L58.0917 25.3688L58.0495 25.429L58.0066 25.4889L57.963 25.5483L57.9189 25.6074L57.8741 25.6661L57.8286 25.7244L57.7825 25.7822L57.7358 25.8397L57.6884 25.8967L57.6405 25.9533L57.5919 26.0095L57.5427 26.0652L57.4929 26.1205L57.4425 26.1753L57.3915 26.2297L57.3399 26.2836L57.2877 26.337L57.235 26.39L57.1816 26.4424L57.1277 26.4945L57.0732 26.5459L57.0182 26.5969L56.9625 26.6474L56.9063 26.6973L56.8496 26.7468L56.7923 26.7957L56.7345 26.8441L56.6762 26.892L56.6173 26.9392L56.5578 26.986L56.4979 27.0322L56.4375 27.0778L56.3765 27.1229L56.315 27.1674L56.2531 27.2114L56.1906 27.2547L56.1277 27.2975L56.0642 27.3397L56.0003 27.3813L55.9359 27.4222L55.8711 27.4626L55.8058 27.5023L55.7401 27.5415L55.6739 27.58L55.6073 27.6179L55.5402 27.6552L55.4727 27.6918L55.4048 27.7278L55.3364 27.7632L55.2677 27.7978L55.1985 27.8319L55.129 27.8653L55.059 27.898L54.9887 27.93L54.918 27.9614L54.847 27.9921L54.7755 28.0221L54.7038 28.0515L54.6317 28.0801L54.5592 28.1081L54.4864 28.1354L54.4133 28.162L54.3398 28.1878L54.266 28.213L54.192 28.2375L54.1176 28.2612L54.0429 28.2842L53.968 28.3065L53.8928 28.3281L53.8173 28.3489L53.7415 28.369L53.6655 28.3884L53.5892 28.4071L53.5127 28.425L53.4359 28.4422L53.359 28.4586L53.2818 28.4743L53.2044 28.4892L53.1268 28.5034L53.049 28.5169L52.971 28.5295L52.8929 28.5414L52.8145 28.5526L52.736 28.563L52.6573 28.5726L52.5785 28.5814L52.4996 28.5895L52.4205 28.5969L52.3413 28.6034L52.262 28.6092L52.1825 28.6141L52.103 28.6183L52.0233 28.6218L51.9436 28.6244L51.8638 28.6263L51.7839 28.6273L51.704 28.6276L51.624 28.6272L51.544 28.6258L51.4639 28.6238L51.3838 28.6209L51.3037 28.6173L51.2235 28.6128L51.1434 28.6076L51.0633 28.6016L50.9832 28.5948L50.9031 28.5871L50.823 28.5787L50.7429 28.5696L50.663 28.5596L50.583 28.5488L50.5031 28.5372L50.4233 28.5249L50.3436 28.5117L50.2639 28.4977L50.1843 28.483L50.1049 28.4675L50.0256 28.4511L49.9463 28.434L49.8672 28.4161L49.7883 28.3974L49.7094 28.3779L49.6308 28.3576L49.5522 28.3366L49.4739 28.3147L49.3958 28.2921L49.3178 28.2687L49.2399 28.2445L49.1624 28.2195L49.085 28.1938L49.0078 28.1673L48.9309 28.14L48.8542 28.1119L48.7777 28.083L48.7015 28.0534L48.6255 28.023L48.5498 27.9918L48.4744 27.9599L48.3993 27.9273L48.3245 27.8938L48.2499 27.8596L48.1757 27.8247L48.1017 27.789L48.0281 27.7525L47.9548 27.7153L47.8819 27.6774L47.8093 27.6387L47.7371 27.5992L47.6652 27.5591L47.5937 27.5182L47.5225 27.4766L47.4518 27.4342L47.3814 27.3912L47.3114 27.3474L47.2419 27.3029L47.1728 27.2577L47.1041 27.2118L47.0358 27.1651L46.9679 27.1179L46.9005 27.0699L46.8336 27.0211L46.7671 26.9718L46.701 26.9217L46.6355 26.8709L46.5705 26.8195L46.5059 26.7673L46.4418 26.7146L46.3782 26.6611L46.3152 26.6071L46.2527 26.5523L46.1906 26.4969L46.1291 26.4409L46.0682 26.3842L46.0078 26.3269L45.9479 26.269L45.8886 26.2104L45.83 26.1513L45.7718 26.0914L45.7142 26.0311L45.6572 25.9701L45.6009 25.9085L45.5451 25.8463L45.4899 25.7835L45.4353 25.7202L45.3813 25.6563L45.3281 25.5918L45.2753 25.5267L45.2233 25.4611L45.1719 25.3949L45.1211 25.3282L45.071 25.2609L45.0215 25.1932L44.9727 25.1248L44.9247 25.056L44.8772 24.9867L44.8305 24.9168L44.7844 24.8465L44.7391 24.7756L44.6944 24.7043L44.6505 24.6325L44.6072 24.5602L44.5647 24.4875L44.5229 24.4142L44.4819 24.3406L44.4415 24.2664L44.4019 24.1919L44.3631 24.1169L44.325 24.0415L44.2876 23.9656L44.251 23.8894L44.2152 23.8128L44.1801 23.7357L44.1458 23.6583L44.1123 23.5804L44.0796 23.5022L44.0476 23.4237L44.0165 23.3448L43.9861 23.2654L43.9565 23.1858L43.9277 23.1059L43.8998 23.0256L43.8726 22.945L43.8463 22.864L43.8208 22.7828L43.796 22.7013L43.7722 22.6195L43.7491 22.5374L43.7269 22.455L43.7055 22.3723L43.6849 22.2895L43.6652 22.2063L43.6463 22.1229L43.6283 22.0393L43.6111 21.9555L43.5948 21.8714L43.5793 21.7871L43.5647 21.7026L43.551 21.618L43.5381 21.5331L43.526 21.4481L43.5149 21.3629L43.5046 21.2775L43.4952 21.192L43.4866 21.1064L43.4789 21.0206L43.4721 20.9347L43.4662 20.8487L43.4612 20.7625L43.457 20.6763L43.4538 20.59L43.4514 20.5036L43.4499 20.4172L43.4493 20.3306L43.4496 20.244L43.4507 20.1574L43.4528 20.0707L43.4557 19.984L43.4596 19.8973L43.4643 19.8106L43.4699 19.7238L43.4765 19.6371L43.4839 19.5504L43.4922 19.4637L43.5014 19.377L43.5115 19.2904L43.5225 19.2039L43.5344 19.1173L43.5472 19.0309L43.5609 18.9445L43.5755 18.8583L43.591 18.7721L43.6073 18.686L43.6246 18.6L43.6428 18.5142L43.6618 18.4285L43.6818 18.3429L43.7026 18.2575L43.7243 18.1722L43.7469 18.0871L43.7704 18.0022L43.7948 17.9175L43.8201 17.8329L43.8462 17.7486L43.8733 17.6644L43.9012 17.5805L43.93 17.4968L43.9596 17.4133L43.9902 17.3301L44.0216 17.2471L44.0539 17.1645L44.087 17.082L44.121 16.9999L44.1559 16.918L44.1916 16.8364L44.2282 16.7552L44.2657 16.6743L44.304 16.5936L44.3431 16.5133L44.3831 16.4334L44.424 16.3538L44.4657 16.2746L44.5082 16.1957L44.5515 16.1172L44.5957 16.0391L44.6407 15.9613L44.6866 15.8841L44.7332 15.8071L44.7807 15.7306L44.829 15.6546L44.8781 15.5789L44.928 15.5037L44.9786 15.429L45.0302 15.3547L45.0824 15.2808L45.1355 15.2074L45.1893 15.1346L45.2439 15.0622L45.2994 14.9903L45.3555 14.9189L45.4125 14.848L45.4701 14.7777L45.5286 14.7079L45.5878 14.6386L45.6477 14.5698L45.7084 14.5017L45.7698 14.434L45.8319 14.367L45.8948 14.3005L45.9584 14.2345L46.0227 14.1693L46.0877 14.1045L46.1534 14.0404L46.2198 13.9769L46.2869 13.914L46.3546 13.8517L46.4231 13.7901L46.4922 13.7291L46.5619 13.6687L46.6323 13.609L46.7034 13.55L46.7751 13.4916L46.8475 13.4339L46.9205 13.3769L46.9941 13.3206L47.0684 13.2649L47.1432 13.21L47.2187 13.1557L47.2947 13.1022L47.3714 13.0494L47.4486 12.9973L47.5263 12.946L47.6048 12.8954L47.6837 12.8455L47.7632 12.7964L47.8432 12.7481L47.9238 12.7005L48.0048 12.6536L48.0865 12.6075L48.1686 12.5623L48.2513 12.5178L48.3344 12.474L48.4181 12.4311L48.5022 12.389L48.5868 12.3477L48.6719 12.3072L48.7574 12.2675L48.8434 12.2286L48.9299 12.1905L49.0167 12.1533L49.104 12.1169L49.1918 12.0813L49.2798 12.0466L49.3684 12.0128L49.4573 11.9798L49.5467 11.9476L49.6364 11.9163L49.7264 11.8859L49.8168 11.8563L49.9076 11.8276L49.9987 11.7998L50.0901 11.7729L50.1819 11.7468L50.274 11.7217L50.3664 11.6974L50.4591 11.674L50.5521 11.6516L50.6453 11.63L50.7389 11.6093L50.8326 11.5895L50.9267 11.5707L51.021 11.5528L51.1155 11.5357L51.2102 11.5196L51.3052 11.5044L51.4004 11.4902L51.4957 11.4769L51.5912 11.4645L51.6269 11.4602ZM51.6672 14.8617L51.6397 12.5431L51.5614 12.5541L51.4772 12.5667L51.393 12.5802L51.3093 12.5944L51.2255 12.6095L51.1421 12.6253L51.0588 12.642L50.9759 12.6595L50.8932 12.6778L50.8106 12.6969L50.7283 12.7168L50.6463 12.7375L50.5644 12.759L50.4858 12.7804L50.402 12.8043L50.321 12.8281L50.2404 12.8527L50.1603 12.878L50.0803 12.9042L50.0006 12.9311L49.9213 12.9588L49.8424 12.9871L49.7638 13.0164L49.6856 13.0462L49.6076 13.077L49.5303 13.1083L49.4529 13.1406L49.3762 13.1734L49.2998 13.207L49.224 13.2414L49.1483 13.2765L49.0731 13.3123L48.9985 13.3487L48.924 13.386L48.8504 13.4238L48.7768 13.4625L48.704 13.5017L48.6312 13.5418L48.5592 13.5824L48.4877 13.6237L48.4166 13.6658L48.3459 13.7085L48.2757 13.7519L48.2061 13.7958L48.1369 13.8405L48.0683 13.8858L48.0002 13.9317L47.9326 13.9783L47.8654 14.0256L47.799 14.0733L47.7329 14.1219L47.6674 14.1709L47.6025 14.2206L47.5382 14.2708L47.4743 14.3218L47.4111 14.3732L47.3484 14.4252L47.2863 14.478L47.2249 14.5311L47.1639 14.5849L47.1036 14.6392L47.0439 14.6941L46.9848 14.7495L46.9262 14.8055L46.8684 14.8619L46.8112 14.9189L46.7545 14.9765L46.6985 15.0345L46.6431 15.0931L46.5884 15.1522L46.5344 15.2117L46.4809 15.2718L46.428 15.3324L46.3761 15.3933L46.3246 15.4548L46.2738 15.5167L46.2237 15.5791L46.1743 15.6418L46.1255 15.7052L46.0774 15.7689L46.03 15.833L45.9833 15.8976L45.9373 15.9625L45.8921 16.0278L45.8475 16.0936L45.8036 16.1598L45.7604 16.2263L45.7179 16.2931L45.6762 16.3604L45.6352 16.4281L45.5949 16.4961L45.5553 16.5644L45.5165 16.6331L45.4784 16.702L45.441 16.7713L45.4043 16.8411L45.3685 16.9109L45.3333 16.9812L45.299 17.0518L45.2653 17.1225L45.2324 17.1937L45.2003 17.265L45.1689 17.3367L45.1382 17.4085L45.1084 17.4807L45.0793 17.553L45.0509 17.6257L45.0233 17.6985L44.9966 17.7715L44.9705 17.8449L44.9453 17.9182L44.9207 17.9919L44.897 18.0658L44.874 18.1398L44.8519 18.214L44.8305 18.2883L44.8099 18.3628L44.79 18.4375L44.771 18.5122L44.7527 18.5872L44.7352 18.6622L44.7185 18.7374L44.7026 18.8127L44.6875 18.888L44.6731 18.9634L44.6595 19.039L44.6468 19.1146L44.6348 19.1904L44.6236 19.266L44.6131 19.3419L44.6035 19.4177L44.5946 19.4936L44.5866 19.5695L44.5793 19.6455L44.5728 19.7214L44.5671 19.7973L44.5621 19.8733L44.558 19.9493L44.5546 20.0252L44.552 20.1011L44.5502 20.1769L44.5492 20.2528L44.549 20.3286L44.5495 20.4043L44.5508 20.48L44.5529 20.5556L44.5558 20.6311L44.5594 20.7066L44.5638 20.7819L44.569 20.8571L44.5749 20.9323L44.5816 21.0073L44.5891 21.0822L44.5973 21.1569L44.6063 21.2316L44.6161 21.3061L44.6266 21.3804L44.6379 21.4546L44.6499 21.5285L44.6627 21.6024L44.6762 21.676L44.6905 21.7494L44.7055 21.8227L44.7212 21.8958L44.7377 21.9687L44.7549 22.0412L44.7729 22.1136L44.7916 22.1858L44.811 22.2577L44.8311 22.3294L44.852 22.4008L44.8735 22.472L44.8958 22.5429L44.9188 22.6136L44.9425 22.6839L44.9669 22.7539L44.992 22.8237L45.0178 22.8932L45.0443 22.9624L45.0715 23.0312L45.0993 23.0997L45.1279 23.1679L45.1571 23.2358L45.1871 23.3033L45.2176 23.3705L45.2489 23.4373L45.2808 23.5038L45.3133 23.5699L45.3465 23.6356L45.3804 23.701L45.4149 23.766L45.45 23.8305L45.4858 23.8947L45.5222 23.9585L45.5592 24.0219L45.5969 24.0848L45.6352 24.1474L45.6741 24.2095L45.7136 24.2712L45.7537 24.3325L45.7943 24.3932L45.8357 24.4536L45.8775 24.5135L45.92 24.573L45.963 24.6319L46.0066 24.6904L46.0508 24.7485L46.0955 24.8061L46.1408 24.8631L46.1866 24.9197L46.233 24.9758L46.2799 25.0314L46.3274 25.0864L46.3754 25.1411L46.4238 25.1951L46.4729 25.2487L46.5224 25.3017L46.5724 25.3542L46.6229 25.4061L46.674 25.4575L46.7255 25.5084L46.7775 25.5588L46.83 25.6086L46.8828 25.6578L46.9363 25.7065L46.9901 25.7545L47.0444 25.8021L47.0992 25.849L47.1544 25.8954L47.21 25.9413L47.2661 25.9864L47.3225 26.0311L47.3794 26.0751L47.4367 26.1186L47.4944 26.1615L47.5524 26.2037L47.6109 26.2453L47.6697 26.2864L47.729 26.3268L47.7886 26.3667L47.8485 26.4058L47.9088 26.4444L47.9695 26.4824L48.0305 26.5197L48.0918 26.5564L48.1535 26.5925L48.2154 26.6279L48.2777 26.6627L48.3402 26.6968L48.4032 26.7304L48.4664 26.7633L48.5298 26.7954L48.5936 26.827L48.6576 26.8579L48.7219 26.8882L48.7864 26.9178L48.8513 26.9468L48.9162 26.9751L48.9815 27.0027L49.047 27.0297L49.1128 27.0559L49.1787 27.0816L49.2449 27.1065L49.3112 27.1308L49.3778 27.1545L49.4445 27.1774L49.5114 27.1997L49.5785 27.2212L49.6458 27.2422L49.7132 27.2624L49.7808 27.282L49.8485 27.3009L49.9163 27.319L49.9843 27.3366L50.0524 27.3534L50.1206 27.3696L50.189 27.385L50.2574 27.3999L50.3259 27.414L50.3945 27.4273L50.4633 27.4401L50.532 27.4521L50.6009 27.4635L50.6697 27.4741L50.7387 27.4842L50.8077 27.4935L50.8767 27.5021L50.9457 27.51L51.0148 27.5173L51.0839 27.5238L51.153 27.5297L51.2222 27.5349L51.2913 27.5394L51.3603 27.5432L51.4294 27.5464L51.4985 27.5488L51.5675 27.5506L51.6365 27.5517L51.7054 27.5521L51.7743 27.5519L51.8431 27.5509L51.9119 27.5494L51.9805 27.5471L52.0491 27.5442L52.1176 27.5405L52.186 27.5362L52.2543 27.5313L52.3225 27.5256L52.3905 27.5193L52.4585 27.5124L52.5264 27.5047L52.5941 27.4965L52.6616 27.4875L52.729 27.478L52.7963 27.4677L52.8633 27.4568L52.9302 27.4453L52.997 27.433L53.0635 27.4202L53.1299 27.4068L53.1961 27.3926L53.262 27.3778L53.3277 27.3625L53.3933 27.3464L53.4586 27.3298L53.5237 27.3125L53.5886 27.2946L53.6532 27.276L53.7176 27.2569L53.7816 27.2371L53.8455 27.2167L53.9091 27.1957L53.9724 27.1741L54.0355 27.1519L54.0983 27.1291L54.1607 27.1057L54.2229 27.0817L54.2847 27.0571L54.3464 27.0319L54.4076 27.0062L54.4685 26.9799L54.5292 26.953L54.5894 26.9255L54.6494 26.8974L54.7091 26.8688L54.7682 26.8397L54.8273 26.8099L54.8858 26.7796L54.944 26.7487L55.0017 26.7174L55.0592 26.6855L55.1163 26.653L55.173 26.62L55.2293 26.5865L55.2852 26.5525L55.3407 26.5179L55.3959 26.4828L55.4505 26.4473L55.5048 26.4112L55.5587 26.3745L55.6121 26.3374L55.665 26.2999L55.7177 26.2618L55.7698 26.2233L55.8215 26.1843L55.8728 26.1447L55.9235 26.1048L55.9739 26.0643L56.0238 26.0234L56.0731 25.9821L56.1222 25.9402L56.1706 25.898L56.2185 25.8554L56.2662 25.8121L56.3131 25.7687L56.3597 25.7247L56.4057 25.6803L56.4512 25.6356L56.4963 25.5903L56.5409 25.5447L56.5849 25.4987L56.6283 25.4523L56.6714 25.4055L56.7139 25.3584L56.7558 25.3109L56.7973 25.2629L56.8382 25.2147L56.8785 25.1661L56.9184 25.117L56.9576 25.0678L56.9964 25.018L57.0346 24.9681L57.0723 24.9177L57.1094 24.867L57.1458 24.8161L57.1819 24.7647L57.2173 24.7132L57.2522 24.6613L57.2865 24.609L57.3201 24.5566L57.3534 24.5038L57.386 24.4507L57.418 24.3975L57.4494 24.3439L57.4803 24.2899L57.5105 24.236L57.5403 24.1815L57.5694 24.127L57.5978 24.0722L57.6258 24.017L57.6531 23.9619L57.6799 23.9062L57.7059 23.8507L57.7316 23.7946L57.7565 23.7387L57.7809 23.6822L57.8046 23.6258L57.8277 23.5692L57.8503 23.5123L57.8723 23.4552L57.8935 23.3982L57.9143 23.3407L57.9344 23.2833L57.9539 23.2257L57.9728 23.1679L57.9911 23.1099L58.0088 23.0519L58.0258 22.9938L58.0422 22.9355L58.058 22.8772L58.0733 22.8187L58.0878 22.7601L58.1018 22.7016L58.1152 22.6427L58.1279 22.5839L58.1401 22.525L58.1516 22.4662L58.1625 22.4072L58.1727 22.348L58.1824 22.289L58.1915 22.2298L58.1999 22.1706L58.2077 22.1115L58.2149 22.0523L58.2215 21.9929L58.2274 21.9339L58.2328 21.8745L58.2375 21.8152L58.2416 21.7561L58.2452 21.6969L58.248 21.6377L58.2503 21.5786L58.252 21.5193L58.253 21.4604L58.2535 21.4012L58.2533 21.3423L58.2526 21.2833L58.2512 21.2245L58.2492 21.1657L58.2467 21.1069L58.2435 21.0484L58.2397 20.9898L58.2353 20.9313L58.2304 20.8731L58.2248 20.8147L58.2186 20.7567L58.2119 20.6985L58.2045 20.6407L58.1966 20.5829L58.1881 20.5252L58.179 20.4677L58.1693 20.4104L58.1591 20.3532L58.1482 20.2962L58.1367 20.2392L58.1247 20.1825L58.1122 20.1261L58.0991 20.0697L58.0853 20.0134L58.0711 19.9576L58.0562 19.9016L58.0409 19.8461L58.0249 19.7907L58.0084 19.7356L57.9914 19.6806L57.9737 19.6258L57.9556 19.5714L57.9369 19.5171L57.9176 19.4629L57.8979 19.4092L57.8776 19.3557L57.8568 19.3024L57.8354 19.2493L57.8135 19.1965L57.7911 19.1441L57.7682 19.0918L57.7448 19.0399L57.7208 18.9883L57.6963 18.9368L57.6713 18.8856L57.6459 18.8349L57.6199 18.7843L57.5935 18.7342L57.5666 18.6844L57.5391 18.6347L57.5112 18.5856L57.4828 18.5366L57.4539 18.4881L57.4245 18.4397L57.3948 18.3919L57.3645 18.3442L57.3338 18.297L57.3026 18.2502L57.271 18.2037L57.2388 18.1574L57.2063 18.1116L57.1734 18.0663L57.14 18.0211L57.1062 17.9764L57.0719 17.9321L57.0373 17.8882L57.0021 17.8446L56.9666 17.8015L56.9307 17.7587L56.8944 17.7163L56.8577 17.6744L56.8205 17.6328L56.7831 17.5917L56.7452 17.5509L56.707 17.5107L56.6682 17.4706L56.6293 17.4312L56.5898 17.392L56.5501 17.3535L56.5101 17.3153L56.4696 17.2775L56.4288 17.2401L56.3876 17.2033L56.3462 17.1669L56.3042 17.1307L56.2623 17.0953L56.2197 17.0601L56.177 17.0255L56.1339 16.9914L56.0904 16.9575L56.0468 16.9243L56.0029 16.8916L55.9585 16.8592L55.9138 16.8272L55.8691 16.7959L55.8238 16.7649L55.7786 16.7346L55.7329 16.7046L55.6869 16.6751L55.6407 16.6461L55.5944 16.6176L55.5476 16.5895L55.5007 16.5621L55.4534 16.5349L55.4062 16.5085L55.3586 16.4824L55.3107 16.4568L55.2626 16.4317L55.2144 16.4073L55.166 16.3831L55.1172 16.3596L55.0685 16.3365L55.0196 16.314L54.9701 16.2919L54.9209 16.2704L54.8714 16.2494L54.8216 16.2288L54.7717 16.2088L54.7218 16.1894L54.6716 16.1704L54.6212 16.1519L54.5708 16.134L54.5202 16.1166L54.4694 16.0996L54.4187 16.0833L54.3678 16.0674L54.3168 16.0521L54.2655 16.0372L54.2143 16.0229L54.163 16.0091L54.1116 15.9958L54.0601 15.9831L54.0084 15.9708L53.9568 15.9591L53.9052 15.948L53.8533 15.9373L53.8014 15.9271L53.7497 15.9175L53.6977 15.9084L53.6458 15.8998L53.5937 15.8917L53.5418 15.8842L53.4896 15.8772L53.4377 15.8707L53.3856 15.8647L53.3335 15.8593L53.2815 15.8544L53.2293 15.8499L53.1774 15.846L53.1252 15.8427L53.0733 15.8398L53.0214 15.8374L52.9692 15.8356L52.9175 15.8343L52.8656 15.8335L52.8138 15.8332L52.7784 15.8333L52.8053 18.0985L52.8213 18.0986L52.851 18.099L52.8809 18.0997L52.9107 18.1007L52.9406 18.1021L52.9706 18.1037L53.0005 18.1056L53.0305 18.1079L53.0605 18.1105L53.0906 18.1134L53.1206 18.1165L53.1507 18.12L53.1808 18.1239L53.2109 18.128L53.241 18.1324L53.2711 18.1372L53.3012 18.1423L53.3313 18.1477L53.3614 18.1535L53.3915 18.1595L53.4215 18.1659L53.4516 18.1726L53.4816 18.1796L53.5116 18.1869L53.5416 18.1945L53.5715 18.2025L53.6014 18.2108L53.6313 18.2194L53.6611 18.2283L53.6909 18.2376L53.7206 18.2472L53.7503 18.2571L53.7798 18.2673L53.8094 18.2778L53.8389 18.2886L53.8683 18.2998L53.8976 18.3112L53.9269 18.3231L53.9561 18.3352L53.9852 18.3476L54.0142 18.3604L54.0431 18.3735L54.072 18.3868L54.1007 18.4006L54.1293 18.4146L54.1579 18.4289L54.1863 18.4436L54.2146 18.4585L54.2428 18.4738L54.2709 18.4894L54.2988 18.5053L54.3267 18.5215L54.3543 18.538L54.3819 18.5549L54.4094 18.5721L54.4367 18.5895L54.4638 18.6072L54.4908 18.6253L54.5177 18.6437L54.5444 18.6624L54.5709 18.6813L54.5973 18.7006L54.6235 18.7201L54.6495 18.74L54.6754 18.7602L54.7011 18.7806L54.7266 18.8014L54.752 18.8224L54.7772 18.8437L54.8021 18.8653L54.8269 18.8872L54.8515 18.9094L54.8759 18.9319L54.9 18.9547L54.924 18.9777L54.9478 19.0011L54.9713 19.0246L54.9947 19.0485L55.0178 19.0726L55.0407 19.0971L55.0634 19.1218L55.0858 19.1467L55.1081 19.1719L55.13 19.1974L55.1517 19.2232L55.1733 19.2492L55.1945 19.2754L55.2155 19.302L55.2363 19.3287L55.2568 19.3558L55.2771 19.383L55.2971 19.4106L55.3167 19.4383L55.3362 19.4663L55.3554 19.4946L55.3743 19.5231L55.393 19.5517L55.4114 19.5807L55.4295 19.6099L55.4473 19.6393L55.4648 19.6689L55.482 19.6987L55.499 19.7288L55.5156 19.7591L55.532 19.7896L55.5481 19.8203L55.5638 19.8512L55.5793 19.8823L55.5944 19.9136L55.6092 19.9452L55.6238 19.9768L55.638 20.0088L55.6519 20.0409L55.6655 20.0731L55.6787 20.1056L55.6916 20.1382L55.7042 20.1711L55.7165 20.2041L55.7285 20.2372L55.74 20.2706L55.7513 20.3041L55.7622 20.3377L55.7728 20.3716L55.7831 20.4055L55.793 20.4397L55.8025 20.474L55.8117 20.5084L55.8206 20.5429L55.8291 20.5777L55.8372 20.6125L55.845 20.6475L55.8525 20.6826L55.8596 20.7178L55.8662 20.7531L55.8726 20.7886L55.8786 20.8242L55.8842 20.8599L55.8894 20.8957L55.8943 20.9316L55.8988 20.9676L55.9029 21.0037L55.9067 21.0399L55.9101 21.0761L55.9131 21.1125L55.9157 21.1489L55.9179 21.1854L55.9198 21.222L55.9212 21.2587L55.9224 21.2954L55.923 21.3322L55.9234 21.369L55.9233 21.4059L55.9229 21.4428L55.922 21.4798L55.9208 21.5169L55.9191 21.5539L55.9171 21.591L55.9147 21.6282L55.9119 21.6653L55.9086 21.7025L55.905 21.7397L55.9011 21.7769L55.8966 21.8141L55.8918 21.8514L55.8867 21.8886L55.8811 21.9258L55.8751 21.963L55.8687 22.0002L55.8619 22.0374L55.8547 22.0746L55.8471 22.1118L55.8391 22.1489L55.8307 22.186L55.8219 22.2231L55.8127 22.2601L55.8031 22.2971L55.7931 22.334L55.7827 22.3709L55.7719 22.4077L55.7607 22.4445L55.7491 22.4812L55.7371 22.5178L55.7247 22.5544L55.7119 22.5909L55.6986 22.6272L55.685 22.6636L55.671 22.6998L55.6566 22.7359L55.6418 22.7719L55.6266 22.8079L55.611 22.8437L55.595 22.8795L55.5786 22.915L55.5618 22.9505L55.5446 22.9859L55.5271 23.0211L55.5091 23.0562L55.4907 23.0912L55.472 23.126L55.4528 23.1607L55.4333 23.1952L55.4134 23.2296L55.3931 23.2639L55.3724 23.2979L55.3513 23.3319L55.3299 23.3656L55.308 23.3991L55.2858 23.4325L55.2632 23.4657L55.2402 23.4988L55.2169 23.5316L55.1931 23.5642L55.1691 23.5967L55.1446 23.6289L55.1198 23.661L55.0946 23.6928L55.069 23.7244L55.0431 23.7558L55.0168 23.787L54.9902 23.818L54.9631 23.8487L54.9357 23.8792L54.908 23.9095L54.8799 23.9395L54.8516 23.9692L54.8228 23.9988L54.7937 24.0281L54.7642 24.0571L54.7344 24.0859L54.7043 24.1144L54.6738 24.1426L54.643 24.1705L54.6119 24.1983L54.5804 24.2257L54.5486 24.2528L54.5165 24.2796L54.4841 24.3062L54.4513 24.3325L54.4182 24.3584L54.3849 24.3841L54.3512 24.4095L54.3172 24.4345L54.2829 24.4593L54.2483 24.4837L54.2135 24.5079L54.1782 24.5316L54.1428 24.5551L54.107 24.5782L54.071 24.6011L54.0346 24.6236L53.998 24.6457L53.9611 24.6675L53.924 24.689L53.8865 24.7101L53.8488 24.7309L53.8109 24.7513L53.7726 24.7714L53.7342 24.7911L53.6954 24.8104L53.6565 24.8295L53.6172 24.8481L53.5778 24.8663L53.5381 24.8842L53.4981 24.9016L53.458 24.9188L53.4176 24.9355L53.377 24.9519L53.3361 24.9678L53.2951 24.9834L53.2538 24.9986L53.2124 25.0134L53.1707 25.0278L53.1288 25.0418L53.0868 25.0554L53.0445 25.0686L53.0021 25.0813L52.9595 25.0938L52.9167 25.1057L52.8737 25.1173L52.8306 25.1284L52.7873 25.1391L52.7438 25.1494L52.7001 25.1593L52.6563 25.1687L52.6124 25.1778L52.5683 25.1863L52.5241 25.1945L52.4798 25.2022L52.4352 25.2096L52.3907 25.2164L52.3459 25.2228L52.3011 25.2288L52.2561 25.2344L52.211 25.2395L52.1658 25.2441L52.1205 25.2484L52.0752 25.2521L52.0297 25.2555L51.9841 25.2583L51.9385 25.2607L51.8928 25.2627L51.847 25.2642L51.8011 25.2652L51.7552 25.2658L51.7092 25.266L51.6632 25.2657L51.6171 25.2649L51.571 25.2637L51.5249 25.262L51.4787 25.2598L51.4324 25.2572L51.3861 25.2541L51.3399 25.2506L51.2936 25.2466L51.2473 25.2421L51.201 25.2372L51.1547 25.2317L51.1085 25.2258L51.0621 25.2195L51.0159 25.2127L50.9696 25.2054L50.9234 25.1976L50.8772 25.1894L50.8311 25.1807L50.7849 25.1716L50.7389 25.1619L50.6928 25.1518L50.6469 25.1412L50.601 25.1302L50.5551 25.1187L50.5093 25.1067L50.4636 25.0942L50.418 25.0813L50.3725 25.068L50.327 25.0541L50.2817 25.0398L50.2364 25.025L50.1912 25.0098L50.1462 24.994L50.1013 24.9778L50.0565 24.9612L50.0118 24.9441L49.9673 24.9265L49.9229 24.9084L49.8786 24.8899L49.8345 24.871L49.7905 24.8515L49.7466 24.8317L49.703 24.8113L49.6595 24.7905L49.6161 24.7693L49.573 24.7476L49.53 24.7254L49.4873 24.7028L49.4447 24.6798L49.4022 24.6562L49.3601 24.6323L49.318 24.6079L49.2762 24.583L49.2347 24.5578L49.1933 24.532L49.1522 24.5059L49.1112 24.4793L49.0706 24.4522L49.0301 24.4248L48.99 24.3969L48.95 24.3685L48.9103 24.3398L48.8709 24.3106L48.8317 24.281L48.7928 24.251L48.7542 24.2205L48.7158 24.1897L48.6777 24.1584L48.6399 24.1267L48.6024 24.0946L48.5652 24.0621L48.5283 24.0292L48.4917 23.9959L48.4554 23.9622L48.4194 23.9281L48.3838 23.8936L48.3484 23.8588L48.3134 23.8235L48.2787 23.7879L48.2444 23.7518L48.2103 23.7154L48.1767 23.6786L48.1434 23.6415L48.1104 23.604L48.0778 23.566L48.0455 23.5278L48.0136 23.4892L47.9821 23.4502L47.951 23.4109L47.9202 23.3712L47.8898 23.3312L47.8598 23.2908L47.8302 23.2501L47.801 23.2091L47.7721 23.1677L47.7437 23.126L47.7156 23.084L47.688 23.0416L47.6609 22.999L47.634 22.956L47.6077 22.9128L47.5817 22.8691L47.5562 22.8253L47.5311 22.7811L47.5065 22.7366L47.4822 22.6918L47.4585 22.6468L47.4351 22.6014L47.4122 22.5558L47.3898 22.51L47.3678 22.4638L47.3463 22.4174L47.3252 22.3707L47.3046 22.3238L47.2845 22.2766L47.2648 22.2292L47.2456 22.1815L47.2269 22.1336L47.2086 22.0854L47.1909 22.0371L47.1737 21.9885L47.1569 21.9397L47.1405 21.8907L47.1248 21.8414L47.1095 21.792L47.0946 21.7423L47.0803 21.6925L47.0665 21.6424L47.0532 21.5922L47.0404 21.5418L47.0282 21.4912L47.0164 21.4405L47.0051 21.3896L46.9944 21.3385L46.9842 21.2873L46.9745 21.2359L46.9653 21.1844L46.9566 21.1327L46.9485 21.081L46.9409 21.029L46.9338 20.977L46.9274 20.9248L46.9214 20.8725L46.9159 20.8201L46.911 20.7676L46.9066 20.715L46.9028 20.6623L46.8995 20.6095L46.8967 20.5566L46.8945 20.5037L46.8928 20.4507L46.8917 20.3976L46.8912 20.3445L46.8911 20.2912L46.8917 20.238L46.8928 20.1847L46.8944 20.1313L46.8966 20.0779L46.8994 20.0245L46.9027 19.9711L46.9065 19.9177L46.911 19.8642L46.916 19.8108L46.9215 19.7573L46.9276 19.7038L46.9343 19.6504L46.9415 19.597L46.9493 19.5436L46.9576 19.4902L46.9665 19.4368L46.976 19.3835L46.986 19.3302L46.9966 19.277L47.0078 19.2238L47.0195 19.1707L47.0317 19.1177L47.0445 19.0648L47.0579 19.0119L47.0719 18.9591L47.0864 18.9064L47.1015 18.8538L47.1171 18.8012L47.1333 18.7488L47.15 18.6965L47.1673 18.6443L47.1852 18.5923L47.2036 18.5403L47.2226 18.4885L47.2421 18.4369L47.2622 18.3854L47.2828 18.334L47.304 18.2828L47.3257 18.2318L47.348 18.1809L47.3708 18.1302L47.3942 18.0797L47.4181 18.0294L47.4425 17.9793L47.4675 17.9293L47.493 17.8795L47.5191 17.83L47.5457 17.7807L47.5729 17.7316L47.6006 17.6827L47.6288 17.6341L47.6575 17.5857L47.6868 17.5375L47.7165 17.4896L47.7469 17.442L47.7777 17.3945L47.8091 17.3473L47.8409 17.3005L47.8733 17.2539L47.9062 17.2075L47.9396 17.1615L47.9735 17.1157L48.0079 17.0703L48.0428 17.0251L48.0782 16.9803L48.1142 16.9357L48.1506 16.8915L48.1874 16.8476L48.2248 16.804L48.2627 16.7607L48.301 16.7178L48.3398 16.6752L48.3791 16.633L48.4189 16.5912L48.4592 16.5496L48.4998 16.5085L48.541 16.4677L48.5826 16.4272L48.6247 16.3872L48.6672 16.3476L48.7102 16.3083L48.7536 16.2694L48.7974 16.2309L48.8418 16.1928L48.8865 16.1551L48.9317 16.1178L48.9772 16.081L49.0232 16.0445L49.0696 16.0085L49.1165 15.9729L49.1637 15.9378L49.2113 15.903L49.2594 15.8688L49.3078 15.8349L49.3566 15.8015L49.4059 15.7686L49.4555 15.7361L49.5054 15.7041L49.5558 15.6726L49.6065 15.6415L49.6577 15.6109L49.7091 15.5808L49.7609 15.5511L49.8131 15.522L49.8656 15.4933L49.9184 15.4651L49.9716 15.4375L50.0251 15.4103L50.0789 15.3837L50.1331 15.3575L50.1876 15.3319L50.2424 15.3067L50.2974 15.2821L50.3528 15.2581L50.4086 15.2345L50.4645 15.2115L50.5208 15.189L50.5773 15.1671L50.6342 15.1456L50.6912 15.1248L50.7486 15.1045L50.8062 15.0847L50.8641 15.0655L50.9222 15.0468L50.9805 15.0287L51.0392 15.0112L51.098 14.9942L51.157 14.9778L51.2163 14.962L51.2757 14.9467L51.3354 14.932L51.3953 14.9179L51.4554 14.9044L51.5157 14.8914L51.5762 14.8791L51.6368 14.8673L51.6672 14.8617ZM52.4123 19.2178L51.7208 19.3831L51.6801 15.9574L51.6476 15.9647L51.5985 15.9763L51.5495 15.9883L51.5008 16.0008L51.4522 16.0138L51.4039 16.0272L51.3556 16.0412L51.3078 16.0555L51.2598 16.0704L51.2125 16.0855L51.165 16.1013L51.1179 16.1175L51.071 16.1341L51.0242 16.1512L50.9779 16.1686L50.9316 16.1866L50.8856 16.205L50.8399 16.2238L50.7942 16.2431L50.7492 16.2627L50.7041 16.2828L50.6595 16.3033L50.6149 16.3243L50.5707 16.3456L50.5267 16.3674L50.4831 16.3895L50.4398 16.4121L50.3967 16.435L50.3539 16.4584L50.3114 16.4821L50.2691 16.5063L50.2274 16.5308L50.1855 16.5558L50.1443 16.5811L50.1033 16.6068L50.0627 16.6328L50.0222 16.6593L49.9822 16.6861L49.9425 16.7133L49.9031 16.7407L49.8641 16.7686L49.8252 16.7968L49.7868 16.8255L49.7488 16.8544L49.7111 16.8837L49.6737 16.9132L49.6368 16.9431L49.6001 16.9734L49.5637 17.0041L49.5278 17.0349L49.4922 17.0662L49.457 17.0977L49.4222 17.1295L49.3877 17.1618L49.3536 17.1942L49.3199 17.2269L49.2864 17.26L49.2535 17.2933L49.2209 17.327L49.1888 17.3608L49.1568 17.3952L49.1255 17.4295L49.0944 17.4643L49.0638 17.4993L49.0336 17.5345L49.0037 17.5701L48.9744 17.6057L48.9453 17.6418L48.9167 17.678L48.8885 17.7145L48.8607 17.7513L48.8333 17.7882L48.8063 17.8254L48.7798 17.8627L48.7536 17.9004L48.7279 17.9382L48.7026 17.9763L48.6778 18.0145L48.6534 18.0529L48.6293 18.0916L48.6058 18.1303L48.5826 18.1695L48.5599 18.2085L48.5376 18.2479L48.5157 18.2875L48.4943 18.3271L48.4733 18.367L48.4528 18.407L48.4326 18.4473L48.413 18.4875L48.3938 18.528L48.375 18.5686L48.3567 18.6093L48.3387 18.6502L48.3213 18.6912L48.3043 18.7323L48.2877 18.7735L48.2717 18.8149L48.2559 18.8563L48.2408 18.8978L48.226 18.9395L48.2117 18.9813L48.1978 19.0231L48.1844 19.065L48.1714 19.107L48.1589 19.1491L48.1469 19.1911L48.1352 19.2334L48.124 19.2757L48.1133 19.318L48.1031 19.3603L48.0932 19.4028L48.0839 19.4452L48.075 19.4878L48.0665 19.5303L48.0585 19.5728L48.0509 19.6155L48.0438 19.658L48.0372 19.7006L48.0309 19.7433L48.0252 19.7859L48.0199 19.8286L48.015 19.8711L48.0106 19.9138L48.0066 19.9565L48.0031 19.999L48 20.0416L47.9974 20.0842L47.9952 20.1267L47.9934 20.1692L47.9921 20.2116L47.9913 20.2541L47.9908 20.2965L47.9909 20.3388L47.9913 20.381L47.9922 20.4232L47.9935 20.4654L47.9952 20.5074L47.9974 20.5494L48 20.5913L48.0031 20.6331L48.0066 20.6749L48.0105 20.7165L48.0148 20.7582L48.0195 20.7995L48.0247 20.841L48.0303 20.8821L48.0363 20.9233L48.0428 20.9643L48.0496 21.0052L48.0569 21.0461L48.0645 21.0867L48.0726 21.1273L48.0811 21.1676L48.09 21.2079L48.0993 21.248L48.1091 21.288L48.1191 21.3277L48.1297 21.3675L48.1406 21.4069L48.1518 21.4464L48.1635 21.4855L48.1756 21.5245L48.1881 21.5634L48.2009 21.6019L48.2142 21.6405L48.2278 21.6788L48.2418 21.7168L48.2561 21.7548L48.2709 21.7926L48.286 21.8301L48.3015 21.8674L48.3173 21.9045L48.3335 21.9414L48.3501 21.9781L48.367 22.0146L48.3843 22.0509L48.4019 22.0869L48.4199 22.1228L48.4382 22.1583L48.4568 22.1937L48.4758 22.2288L48.4952 22.2637L48.5149 22.2984L48.5349 22.3328L48.5552 22.3669L48.5759 22.4008L48.5969 22.4345L48.6182 22.4679L48.6398 22.501L48.6617 22.5339L48.684 22.5666L48.7065 22.5988L48.7293 22.631L48.7525 22.6628L48.7759 22.6943L48.7997 22.7256L48.8237 22.7566L48.848 22.7872L48.8726 22.8177L48.8975 22.8478L48.9226 22.8776L48.9481 22.9072L48.9738 22.9365L48.9997 22.9654L49.026 22.9941L49.0524 23.0223L49.0792 23.0505L49.1062 23.0782L49.1334 23.1056L49.1609 23.1327L49.1886 23.1595L49.2166 23.1861L49.2448 23.2122L49.2732 23.2381L49.3019 23.2636L49.3308 23.2888L49.3599 23.3137L49.3892 23.3383L49.4187 23.3626L49.4484 23.3865L49.4784 23.4101L49.5085 23.4333L49.5389 23.4562L49.5694 23.4789L49.6001 23.5011L49.631 23.523L49.6621 23.5446L49.6934 23.5659L49.7248 23.5867L49.7564 23.6073L49.7881 23.6275L49.8201 23.6474L49.8522 23.6668L49.8844 23.686L49.9169 23.7049L49.9493 23.7233L49.982 23.7414L50.0149 23.7592L50.0478 23.7766L50.0809 23.7937L50.1141 23.8104L50.1475 23.8267L50.1809 23.8427L50.2145 23.8584L50.2482 23.8737L50.2819 23.8885L50.3159 23.9031L50.3499 23.9173L50.3839 23.9312L50.4181 23.9447L50.4524 23.9578L50.4868 23.9706L50.5211 23.983L50.5557 23.995L50.5902 24.0067L50.6249 24.018L50.6596 24.029L50.6944 24.0396L50.7292 24.0498L50.7641 24.0597L50.799 24.0692L50.834 24.0784L50.869 24.0871L50.904 24.0956L50.9391 24.1036L50.9742 24.1113L51.0093 24.1187L51.0445 24.1257L51.0797 24.1323L51.1148 24.1386L51.15 24.1445L51.1853 24.15L51.2205 24.1552L51.2556 24.16L51.2908 24.1645L51.326 24.1686L51.3612 24.1724L51.3963 24.1758L51.4315 24.1788L51.4666 24.1815L51.5016 24.1839L51.5367 24.1858L51.5717 24.1875L51.6066 24.1888L51.6417 24.1897L51.6765 24.1903L51.7113 24.1905L51.7461 24.1904L51.7808 24.19L51.8155 24.1891L51.8501 24.188L51.8846 24.1866L51.919 24.1847L51.9535 24.1825L51.9877 24.18L52.022 24.1772L52.056 24.174L52.0901 24.1705L52.1241 24.1666L52.1579 24.1625L52.1917 24.158L52.2253 24.1531L52.2588 24.148L52.2923 24.1425L52.3256 24.1367L52.3588 24.1306L52.3919 24.1241L52.4249 24.1173L52.4577 24.1102L52.4903 24.1029L52.523 24.0951L52.5554 24.0871L52.5877 24.0788L52.6199 24.0702L52.6518 24.0612L52.6838 24.0519L52.7155 24.0424L52.7469 24.0325L52.7785 24.0223L52.8097 24.0119L52.8408 24.0012L52.8717 23.9902L52.9024 23.9788L52.9331 23.9672L52.9635 23.9553L52.9937 23.9431L53.0237 23.9307L53.0536 23.9179L53.0834 23.9049L53.1128 23.8917L53.1422 23.8781L53.1713 23.8643L53.2001 23.8502L53.2289 23.8359L53.2574 23.8213L53.2857 23.8064L53.3139 23.7912L53.3418 23.7759L53.3694 23.7603L53.397 23.7444L53.4243 23.7282L53.4513 23.7118L53.4781 23.6952L53.5047 23.6784L53.5311 23.6613L53.5574 23.644L53.5833 23.6265L53.609 23.6086L53.6345 23.5906L53.6597 23.5725L53.6847 23.554L53.7095 23.5353L53.7341 23.5164L53.7584 23.4973L53.7825 23.478L53.8062 23.4586L53.8298 23.4389L53.8531 23.419L53.8761 23.3989L53.899 23.3786L53.9216 23.3581L53.9439 23.3374L53.9658 23.3166L53.9877 23.2956L54.0092 23.2743L54.0305 23.253L54.0515 23.2314L54.0722 23.2096L54.0927 23.1878L54.113 23.1657L54.1328 23.1435L54.1526 23.1211L54.1719 23.0985L54.191 23.0759L54.21 23.053L54.2285 23.0301L54.2468 23.0069L54.2649 22.9837L54.2826 22.9603L54.3001 22.9367L54.3173 22.9131L54.3342 22.8892L54.3509 22.8653L54.3672 22.8414L54.3833 22.8171L54.3991 22.7929L54.4145 22.7685L54.4298 22.744L54.4447 22.7194L54.4593 22.6947L54.4737 22.6699L54.4878 22.645L54.5016 22.6201L54.5151 22.5949L54.5283 22.5699L54.5412 22.5446L54.5538 22.5193L54.5662 22.4939L54.5783 22.4683L54.59 22.4428L54.6015 22.4172L54.6126 22.3916L54.6236 22.3658L54.6341 22.3401L54.6445 22.3141L54.6545 22.2883L54.6642 22.2622L54.6736 22.2364L54.6828 22.2103L54.6917 22.1841L54.7002 22.1581L54.7085 22.1319L54.7164 22.1058L54.7242 22.0794L54.7315 22.0534L54.7387 22.0269L54.7455 22.0009L54.752 21.9745L54.7583 21.9481L54.7642 21.9219L54.7698 21.8957L54.7752 21.8692L54.7803 21.843L54.7851 21.8165L54.7896 21.7903L54.7939 21.7641L54.7979 21.7377L54.8015 21.7114L54.8049 21.6851L54.808 21.6589L54.8108 21.6328L54.8133 21.6065L54.8156 21.5804L54.8176 21.5542L54.8193 21.5281L54.8207 21.5021L54.8219 21.4761L54.8227 21.4503L54.8233 21.4242L54.8237 21.3982L54.8237 21.3725L54.8235 21.3468L54.823 21.3211L54.8222 21.2955L54.8212 21.2697L54.8199 21.2445L54.8183 21.2187L54.8165 21.1935L54.8144 21.1683L54.8121 21.1428L54.8094 21.1177L54.8066 21.0928L54.8034 21.0675L54.8001 21.0428L54.7964 21.0179L54.7926 20.9934L54.7884 20.9686L54.784 20.944L54.7794 20.9196L54.7745 20.8953L54.7694 20.871L54.764 20.8469L54.7584 20.8228L54.7525 20.799L54.7464 20.7753L54.74 20.7514L54.7335 20.728L54.7267 20.7043L54.7197 20.6811L54.7124 20.6579L54.7049 20.6349L54.6972 20.6119L54.6892 20.589L54.6811 20.5664L54.6727 20.5439L54.6641 20.5213L54.6552 20.4991L54.6462 20.4768L54.637 20.455L54.6275 20.433L54.6179 20.4114L54.608 20.3899L54.5979 20.3684L54.5876 20.3472L54.5771 20.326L54.5664 20.305L54.5556 20.2843L54.5445 20.2636L54.5333 20.2432L54.5218 20.2228L54.5101 20.2027L54.4983 20.1827L54.4863 20.1629L54.4741 20.1432L54.4617 20.1238L54.4492 20.1045L54.4365 20.0853L54.4236 20.0663L54.4106 20.0476L54.3973 20.0289L54.3839 20.0105L54.3704 19.9923L54.3566 19.9742L54.3428 19.9563L54.3287 19.9386L54.3146 19.9211L54.3002 19.9038L54.2858 19.8866L54.2711 19.8696L54.2564 19.8529L54.2415 19.8363L54.2264 19.8199L54.2112 19.8037L54.1959 19.7877L54.1805 19.7719L54.1649 19.7563L54.1492 19.7409L54.1334 19.7257L54.1175 19.7107L54.1013 19.6959L54.0852 19.6813L54.0689 19.6668L54.0525 19.6527L54.0359 19.6386L54.0193 19.6249L54.0026 19.6113L53.9858 19.5979L53.9688 19.5847L53.9518 19.5717L53.9347 19.5589L53.9175 19.5463L53.9001 19.534L53.8828 19.5219L53.8653 19.5099L53.8478 19.4982L53.8302 19.4866L53.8124 19.4753L53.7947 19.4642L53.7768 19.4533L53.7589 19.4426L53.741 19.4322L53.7229 19.4219L53.7047 19.4118L53.6866 19.402L53.6684 19.3923L53.6501 19.3829L53.6319 19.3737L53.6134 19.3647L53.595 19.3559L53.5766 19.3474L53.5581 19.339L53.5395 19.3308L53.5209 19.3228L53.5024 19.3152L53.4837 19.3077L53.465 19.3003L53.4463 19.2933L53.4276 19.2864L53.4089 19.2797L53.3901 19.2732L53.3713 19.2669L53.3526 19.2609L53.3337 19.255L53.3149 19.2494L53.2962 19.244L53.2772 19.2388L53.2585 19.2338L53.2397 19.229L53.2208 19.2244L53.202 19.22L53.1832 19.2158L53.1644 19.2118L53.1456 19.2081L53.1269 19.2045L53.1081 19.2011L53.0893 19.1979L53.0707 19.195L53.0519 19.1922L53.0333 19.1896L53.0146 19.1872L52.996 19.1851L52.9775 19.1831L52.9589 19.1814L52.9404 19.1797L52.922 19.1784L52.9035 19.1772L52.8851 19.1761L52.8668 19.1754L52.8486 19.1748L52.8303 19.1743L52.8121 19.174L52.7939 19.174L52.7759 19.1742L52.7578 19.1745L52.7399 19.1749L52.7219 19.1757L52.7042 19.1765L52.6863 19.1776L52.6686 19.1788L52.651 19.1802L52.6334 19.1818L52.616 19.1835L52.5984 19.1854L52.5812 19.1875L52.5639 19.1898L52.5467 19.1923L52.5296 19.1949L52.5126 19.1977L52.4956 19.2006L52.4789 19.2037L52.462 19.207L52.4454 19.2105L52.4288 19.2141L52.4123 19.2178Z" fill="#94A3B8"/>
<path d="M76.6045 22.6514C76.6045 22.4229 76.5693 22.2178 76.499 22.0361C76.4346 21.8486 76.3115 21.6787 76.1299 21.5264C75.9482 21.3682 75.6934 21.2129 75.3652 21.0605C75.0371 20.9082 74.6123 20.75 74.0908 20.5859C73.5107 20.3984 72.96 20.1875 72.4385 19.9531C71.9229 19.7188 71.4658 19.4463 71.0674 19.1357C70.6748 18.8193 70.3643 18.4531 70.1357 18.0371C69.9131 17.6211 69.8018 17.1377 69.8018 16.5869C69.8018 16.0537 69.9189 15.5703 70.1533 15.1367C70.3877 14.6973 70.7158 14.3223 71.1377 14.0117C71.5596 13.6953 72.0576 13.4521 72.6318 13.2822C73.2119 13.1123 73.8477 13.0273 74.5391 13.0273C75.4824 13.0273 76.3057 13.1973 77.0088 13.5371C77.7119 13.877 78.2568 14.3428 78.6436 14.9346C79.0361 15.5264 79.2324 16.2031 79.2324 16.9648H76.6133C76.6133 16.5898 76.5342 16.2617 76.376 15.9805C76.2236 15.6934 75.9893 15.4678 75.6729 15.3037C75.3623 15.1396 74.9697 15.0576 74.4951 15.0576C74.0381 15.0576 73.6572 15.1279 73.3525 15.2686C73.0479 15.4033 72.8193 15.5879 72.667 15.8223C72.5146 16.0508 72.4385 16.3086 72.4385 16.5957C72.4385 16.8125 72.4912 17.0088 72.5967 17.1846C72.708 17.3604 72.8721 17.5244 73.0889 17.6768C73.3057 17.8291 73.5723 17.9727 73.8887 18.1074C74.2051 18.2422 74.5713 18.374 74.9873 18.5029C75.6846 18.7139 76.2969 18.9512 76.8242 19.2148C77.3574 19.4785 77.8027 19.7744 78.1602 20.1025C78.5176 20.4307 78.7871 20.8027 78.9687 21.2188C79.1504 21.6348 79.2412 22.1064 79.2412 22.6338C79.2412 23.1904 79.1328 23.6885 78.916 24.1279C78.6992 24.5674 78.3857 24.9395 77.9756 25.2441C77.5654 25.5488 77.0762 25.7803 76.5078 25.9385C75.9395 26.0967 75.3037 26.1758 74.6006 26.1758C73.9678 26.1758 73.3437 26.0937 72.7285 25.9297C72.1133 25.7598 71.5537 25.5049 71.0498 25.165C70.5518 24.8252 70.1533 24.3916 69.8545 23.8643C69.5557 23.3369 69.4062 22.7129 69.4062 21.9922H72.0518C72.0518 22.3906 72.1133 22.7275 72.2363 23.0029C72.3594 23.2783 72.5322 23.501 72.7549 23.6709C72.9834 23.8408 73.2529 23.9639 73.5635 24.04C73.8799 24.1162 74.2256 24.1543 74.6006 24.1543C75.0576 24.1543 75.4326 24.0898 75.7256 23.9609C76.0244 23.832 76.2441 23.6533 76.3848 23.4248C76.5312 23.1963 76.6045 22.9385 76.6045 22.6514ZM89.5684 18.415V20.4717H82.8887V18.415H89.5684ZM83.6709 13.2031V26H81.0342V13.2031H83.6709ZM91.4492 13.2031V26H88.8213V13.2031H91.4492ZM102.33 23.9434V26H95.5186V23.9434H102.33ZM96.3799 13.2031V26H93.7432V13.2031H96.3799ZM101.442 18.415V20.4189H95.5186V18.415H101.442ZM102.321 13.2031V15.2686H95.5186V13.2031H102.321ZM112.095 23.9434V26H105.652V23.9434H112.095ZM106.505 13.2031V26H103.868V13.2031H106.505ZM121.833 23.9434V26H115.391V23.9434H121.833ZM116.243 13.2031V26H113.606V13.2031H116.243ZM130.007 22.6514C130.007 22.4229 129.972 22.2178 129.901 22.0361C129.837 21.8486 129.714 21.6787 129.532 21.5264C129.351 21.3682 129.096 21.2129 128.768 21.0605C128.439 20.9082 128.015 20.75 127.493 20.5859C126.913 20.3984 126.362 20.1875 125.841 19.9531C125.325 19.7188 124.868 19.4463 124.47 19.1357C124.077 18.8193 123.767 18.4531 123.538 18.0371C123.315 17.6211 123.204 17.1377 123.204 16.5869C123.204 16.0537 123.321 15.5703 123.556 15.1367C123.79 14.6973 124.118 14.3223 124.54 14.0117C124.962 13.6953 125.46 13.4521 126.034 13.2822C126.614 13.1123 127.25 13.0273 127.941 13.0273C128.885 13.0273 129.708 13.1973 130.411 13.5371C131.114 13.877 131.659 14.3428 132.046 14.9346C132.438 15.5264 132.635 16.2031 132.635 16.9648H130.016C130.016 16.5898 129.937 16.2617 129.778 15.9805C129.626 15.6934 129.392 15.4678 129.075 15.3037C128.765 15.1396 128.372 15.0576 127.897 15.0576C127.44 15.0576 127.06 15.1279 126.755 15.2686C126.45 15.4033 126.222 15.5879 126.069 15.8223C125.917 16.0508 125.841 16.3086 125.841 16.5957C125.841 16.8125 125.894 17.0088 125.999 17.1846C126.11 17.3604 126.274 17.5244 126.491 17.6768C126.708 17.8291 126.975 17.9727 127.291 18.1074C127.607 18.2422 127.974 18.374 128.39 18.5029C129.087 18.7139 129.699 18.9512 130.227 19.2148C130.76 19.4785 131.205 19.7744 131.562 20.1025C131.92 20.4307 132.189 20.8027 132.371 21.2188C132.553 21.6348 132.644 22.1064 132.644 22.6338C132.644 23.1904 132.535 23.6885 132.318 24.1279C132.102 24.5674 131.788 24.9395 131.378 25.2441C130.968 25.5488 130.479 25.7803 129.91 25.9385C129.342 26.0967 128.706 26.1758 128.003 26.1758C127.37 26.1758 126.746 26.0937 126.131 25.9297C125.516 25.7598 124.956 25.5049 124.452 25.165C123.954 24.8252 123.556 24.3916 123.257 23.8643C122.958 23.3369 122.809 22.7129 122.809 21.9922H125.454C125.454 22.3906 125.516 22.7275 125.639 23.0029C125.762 23.2783 125.935 23.501 126.157 23.6709C126.386 23.8408 126.655 23.9639 126.966 24.04C127.282 24.1162 127.628 24.1543 128.003 24.1543C128.46 24.1543 128.835 24.0898 129.128 23.9609C129.427 23.832 129.646 23.6533 129.787 23.4248C129.934 23.1963 130.007 22.9385 130.007 22.6514Z" fill="#94A3B8"/>
<path d="M206.142 27.8634L190.082 16.7856C188.455 15.663 189.008 13.3257 191.037 12.7761L208.106 8.14354C208.467 8.01308 208.855 7.97073 209.236 8.02001C209.617 8.06929 209.981 8.20877 210.298 8.42689C210.614 8.64501 210.874 8.93547 211.056 9.27416C211.237 9.61285 211.336 9.99 211.343 10.3743L210.331 26.0838C210.211 27.9484 207.769 28.986 206.142 27.8634Z" fill="#94A3B8"/>
<path d="M201.048 30.5978L191.587 12.0955C191.371 11.6722 191.276 11.1974 191.312 10.7235C191.349 10.2495 191.515 9.79485 191.794 9.40959C192.072 9.02434 192.452 8.72345 192.89 8.54012C193.329 8.35679 193.809 8.29813 194.279 8.37064L211.813 11.0767C212.217 11.1391 212.6 11.2963 212.931 11.5355C213.262 11.7748 213.531 12.0892 213.717 12.4529C213.903 12.8166 214 13.2193 214 13.6277C214 14.0362 213.903 14.4388 213.717 14.8025L205.64 30.5987C205.423 31.0208 205.094 31.3749 204.689 31.6221C204.284 31.8693 203.818 32 203.344 31.9999C202.869 31.9998 202.404 31.869 201.999 31.6216C201.594 31.3742 201.265 31.02 201.048 30.5978Z" fill="#94A3B8"/>
<path d="M206.815 14.5453L203.449 14.0001L199.315 15.1776L200.965 18.5642L204.829 21.3615C204.914 21.4225 205.008 21.4693 205.107 21.5001L206.574 18.489L206.815 14.5453Z" fill="white"/>
<path d="M227.805 22.6514C227.805 22.4229 227.77 22.2178 227.699 22.0361C227.635 21.8486 227.512 21.6787 227.33 21.5264C227.148 21.3682 226.894 21.2129 226.565 21.0605C226.237 20.9082 225.812 20.75 225.291 20.5859C224.711 20.3984 224.16 20.1875 223.639 19.9531C223.123 19.7188 222.666 19.4463 222.268 19.1357C221.875 18.8193 221.564 18.4531 221.336 18.0371C221.113 17.6211 221.002 17.1377 221.002 16.5869C221.002 16.0537 221.119 15.5703 221.354 15.1367C221.588 14.6973 221.916 14.3223 222.338 14.0117C222.76 13.6953 223.258 13.4521 223.832 13.2822C224.412 13.1123 225.048 13.0273 225.739 13.0273C226.683 13.0273 227.506 13.1973 228.209 13.5371C228.912 13.877 229.457 14.3428 229.844 14.9346C230.236 15.5264 230.433 16.2031 230.433 16.9648H227.813C227.813 16.5898 227.734 16.2617 227.576 15.9805C227.424 15.6934 227.189 15.4678 226.873 15.3037C226.562 15.1396 226.17 15.0576 225.695 15.0576C225.238 15.0576 224.857 15.1279 224.553 15.2686C224.248 15.4033 224.02 15.5879 223.867 15.8223C223.715 16.0508 223.639 16.3086 223.639 16.5957C223.639 16.8125 223.691 17.0088 223.797 17.1846C223.908 17.3604 224.072 17.5244 224.289 17.6768C224.506 17.8291 224.772 17.9727 225.089 18.1074C225.405 18.2422 225.771 18.374 226.187 18.5029C226.885 18.7139 227.497 18.9512 228.024 19.2148C228.558 19.4785 229.003 19.7744 229.36 20.1025C229.718 20.4307 229.987 20.8027 230.169 21.2188C230.351 21.6348 230.441 22.1064 230.441 22.6338C230.441 23.1904 230.333 23.6885 230.116 24.1279C229.899 24.5674 229.586 24.9395 229.176 25.2441C228.766 25.5488 228.276 25.7803 227.708 25.9385C227.14 26.0967 226.504 26.1758 225.801 26.1758C225.168 26.1758 224.544 26.0937 223.929 25.9297C223.313 25.7598 222.754 25.5049 222.25 25.165C221.752 24.8252 221.354 24.3916 221.055 23.8643C220.756 23.3369 220.606 22.7129 220.606 21.9922H223.252C223.252 22.3906 223.313 22.7275 223.437 23.0029C223.56 23.2783 223.732 23.501 223.955 23.6709C224.184 23.8408 224.453 23.9639 224.764 24.04C225.08 24.1162 225.426 24.1543 225.801 24.1543C226.258 24.1543 226.633 24.0898 226.926 23.9609C227.225 23.832 227.444 23.6533 227.585 23.4248C227.731 23.1963 227.805 22.9385 227.805 22.6514ZM234.607 18.459V26H232.067V16.4902H234.449L234.607 18.459ZM234.256 20.9111H233.553C233.553 20.249 233.632 19.6396 233.79 19.083C233.954 18.5205 234.191 18.0342 234.502 17.624C234.818 17.208 235.208 16.8857 235.671 16.6572C236.134 16.4287 236.67 16.3145 237.279 16.3145C237.701 16.3145 238.088 16.3789 238.439 16.5078C238.791 16.6309 239.093 16.8271 239.345 17.0967C239.603 17.3604 239.802 17.7061 239.942 18.1338C240.083 18.5557 240.153 19.0625 240.153 19.6543V26H237.622V19.9355C237.622 19.502 237.563 19.168 237.446 18.9336C237.329 18.6992 237.162 18.5352 236.945 18.4414C236.734 18.3477 236.479 18.3008 236.181 18.3008C235.853 18.3008 235.565 18.3682 235.319 18.5029C235.079 18.6377 234.88 18.8252 234.722 19.0654C234.563 19.2998 234.446 19.5752 234.37 19.8916C234.294 20.208 234.256 20.5479 234.256 20.9111ZM239.916 20.6211L239.011 20.7354C239.011 20.1143 239.087 19.5371 239.239 19.0039C239.397 18.4707 239.629 18.002 239.934 17.5977C240.244 17.1934 240.628 16.8799 241.085 16.6572C241.542 16.4287 242.069 16.3145 242.667 16.3145C243.124 16.3145 243.54 16.3818 243.915 16.5166C244.29 16.6455 244.609 16.8535 244.873 17.1406C245.143 17.4219 245.348 17.791 245.488 18.248C245.635 18.7051 245.708 19.2646 245.708 19.9268V26H243.168V19.9268C243.168 19.4873 243.109 19.1533 242.992 18.9248C242.881 18.6904 242.717 18.5293 242.5 18.4414C242.289 18.3477 242.037 18.3008 241.744 18.3008C241.439 18.3008 241.173 18.3623 240.944 18.4854C240.716 18.6025 240.525 18.7666 240.373 18.9775C240.221 19.1885 240.106 19.4346 240.03 19.7158C239.954 19.9912 239.916 20.293 239.916 20.6211ZM252.801 23.8555V19.6191C252.801 19.3145 252.751 19.0537 252.651 18.8369C252.552 18.6143 252.396 18.4414 252.186 18.3184C251.98 18.1953 251.714 18.1338 251.386 18.1338C251.104 18.1338 250.861 18.1836 250.656 18.2832C250.451 18.377 250.293 18.5146 250.182 18.6963C250.07 18.8721 250.015 19.0801 250.015 19.3203H247.483C247.483 18.916 247.577 18.5322 247.765 18.1689C247.952 17.8057 248.225 17.4863 248.582 17.2109C248.939 16.9297 249.364 16.71 249.856 16.5518C250.354 16.3936 250.911 16.3145 251.526 16.3145C252.265 16.3145 252.921 16.4375 253.495 16.6836C254.069 16.9297 254.521 17.2988 254.849 17.791C255.183 18.2832 255.35 18.8984 255.35 19.6367V23.7061C255.35 24.2275 255.382 24.6553 255.446 24.9893C255.511 25.3174 255.604 25.6045 255.728 25.8506V26H253.17C253.047 25.7422 252.953 25.4199 252.889 25.0332C252.83 24.6406 252.801 24.248 252.801 23.8555ZM253.135 20.208L253.152 21.6406H251.737C251.403 21.6406 251.113 21.6787 250.867 21.7549C250.621 21.8311 250.419 21.9395 250.261 22.0801C250.103 22.2148 249.985 22.373 249.909 22.5547C249.839 22.7363 249.804 22.9355 249.804 23.1523C249.804 23.3691 249.854 23.5654 249.953 23.7412C250.053 23.9111 250.196 24.0459 250.384 24.1455C250.571 24.2393 250.791 24.2861 251.043 24.2861C251.424 24.2861 251.755 24.21 252.036 24.0576C252.317 23.9053 252.534 23.7178 252.687 23.4951C252.845 23.2725 252.927 23.0615 252.933 22.8623L253.601 23.9346C253.507 24.1748 253.378 24.4238 253.214 24.6816C253.056 24.9395 252.854 25.1826 252.607 25.4111C252.361 25.6338 252.065 25.8184 251.72 25.9648C251.374 26.1055 250.964 26.1758 250.489 26.1758C249.886 26.1758 249.338 26.0557 248.846 25.8154C248.359 25.5693 247.973 25.2324 247.686 24.8047C247.404 24.3711 247.264 23.8789 247.264 23.3281C247.264 22.8301 247.357 22.3877 247.545 22.001C247.732 21.6143 248.008 21.2891 248.371 21.0254C248.74 20.7559 249.2 20.5537 249.751 20.4189C250.302 20.2783 250.94 20.208 251.667 20.208H253.135ZM259.832 18.5645V26H257.301V16.4902H259.683L259.832 18.5645ZM262.697 16.4287L262.653 18.7754C262.53 18.7578 262.381 18.7432 262.205 18.7314C262.035 18.7139 261.88 18.7051 261.739 18.7051C261.382 18.7051 261.071 18.752 260.808 18.8457C260.55 18.9336 260.333 19.0654 260.157 19.2412C259.987 19.417 259.858 19.6309 259.771 19.8828C259.688 20.1348 259.642 20.4219 259.63 20.7441L259.12 20.5859C259.12 19.9707 259.182 19.4053 259.305 18.8896C259.428 18.3682 259.606 17.9141 259.841 17.5273C260.081 17.1406 260.374 16.8418 260.72 16.6309C261.065 16.4199 261.461 16.3145 261.906 16.3145C262.047 16.3145 262.19 16.3262 262.337 16.3496C262.483 16.3672 262.604 16.3936 262.697 16.4287ZM268.99 16.4902V18.2832H263.453V16.4902H268.99ZM264.824 14.1436H267.355V23.1348C267.355 23.4102 267.391 23.6211 267.461 23.7676C267.537 23.9141 267.648 24.0166 267.795 24.0752C267.941 24.1279 268.126 24.1543 268.349 24.1543C268.507 24.1543 268.647 24.1484 268.771 24.1367C268.899 24.1191 269.008 24.1016 269.096 24.084L269.104 25.9473C268.888 26.0176 268.653 26.0732 268.401 26.1143C268.149 26.1553 267.871 26.1758 267.566 26.1758C267.01 26.1758 266.523 26.085 266.107 25.9033C265.697 25.7158 265.381 25.417 265.158 25.0068C264.936 24.5967 264.824 24.0576 264.824 23.3896V14.1436ZM273.227 13.2031V26H270.59V13.2031H273.227ZM278.324 18.6699V20.7266H272.506V18.6699H278.324ZM278.939 13.2031V15.2686H272.506V13.2031H278.939ZM282.982 16.4902V26H280.442V16.4902H282.982ZM280.284 14.0117C280.284 13.6426 280.413 13.3379 280.671 13.0977C280.929 12.8574 281.274 12.7373 281.708 12.7373C282.136 12.7373 282.479 12.8574 282.736 13.0977C283 13.3379 283.132 13.6426 283.132 14.0117C283.132 14.3809 283 14.6855 282.736 14.9258C282.479 15.166 282.136 15.2861 281.708 15.2861C281.274 15.2861 280.929 15.166 280.671 14.9258C280.413 14.6855 280.284 14.3809 280.284 14.0117ZM287.553 18.5205V26H285.021V16.4902H287.395L287.553 18.5205ZM287.184 20.9111H286.498C286.498 20.208 286.589 19.5752 286.77 19.0127C286.952 18.4443 287.207 17.9609 287.535 17.5625C287.863 17.1582 288.253 16.8506 288.704 16.6396C289.161 16.4229 289.671 16.3145 290.233 16.3145C290.679 16.3145 291.086 16.3789 291.455 16.5078C291.824 16.6367 292.141 16.8418 292.404 17.123C292.674 17.4043 292.879 17.7764 293.02 18.2393C293.166 18.7021 293.239 19.2676 293.239 19.9355V26H290.69V19.9268C290.69 19.5049 290.632 19.1768 290.515 18.9424C290.397 18.708 290.225 18.5439 289.996 18.4502C289.773 18.3506 289.498 18.3008 289.17 18.3008C288.83 18.3008 288.534 18.3682 288.282 18.5029C288.036 18.6377 287.831 18.8252 287.667 19.0654C287.509 19.2998 287.389 19.5752 287.307 19.8916C287.225 20.208 287.184 20.5479 287.184 20.9111ZM300.78 23.9258V12.5H303.329V26H301.035L300.78 23.9258ZM294.769 21.3594V21.1748C294.769 20.4482 294.851 19.7891 295.015 19.1973C295.179 18.5996 295.419 18.0869 295.735 17.6592C296.052 17.2314 296.441 16.9004 296.904 16.666C297.367 16.4316 297.895 16.3145 298.486 16.3145C299.043 16.3145 299.529 16.4316 299.945 16.666C300.367 16.9004 300.725 17.2344 301.018 17.668C301.316 18.0957 301.557 18.6025 301.738 19.1885C301.92 19.7686 302.052 20.4043 302.134 21.0957V21.5C302.052 22.1621 301.92 22.7773 301.738 23.3457C301.557 23.9141 301.316 24.4121 301.018 24.8398C300.725 25.2617 300.367 25.5898 299.945 25.8242C299.523 26.0586 299.031 26.1758 298.469 26.1758C297.877 26.1758 297.35 26.0557 296.887 25.8154C296.43 25.5752 296.043 25.2383 295.727 24.8047C295.416 24.3711 295.179 23.8613 295.015 23.2754C294.851 22.6895 294.769 22.0508 294.769 21.3594ZM297.3 21.1748V21.3594C297.3 21.752 297.329 22.1182 297.388 22.458C297.452 22.7979 297.555 23.0996 297.695 23.3633C297.842 23.6211 298.029 23.8232 298.258 23.9697C298.492 24.1104 298.776 24.1807 299.11 24.1807C299.544 24.1807 299.901 24.084 300.183 23.8906C300.464 23.6914 300.678 23.4189 300.824 23.0732C300.977 22.7275 301.064 22.3291 301.088 21.8779V20.7266C301.07 20.3574 301.018 20.0264 300.93 19.7334C300.848 19.4346 300.725 19.1797 300.561 18.9688C300.402 18.7578 300.203 18.5938 299.963 18.4766C299.729 18.3594 299.45 18.3008 299.128 18.3008C298.8 18.3008 298.519 18.377 298.284 18.5293C298.05 18.6758 297.859 18.8779 297.713 19.1357C297.572 19.3936 297.467 19.6982 297.396 20.0498C297.332 20.3955 297.3 20.7705 297.3 21.1748ZM309.684 26.1758C308.945 26.1758 308.283 26.0586 307.697 25.8242C307.111 25.584 306.613 25.2529 306.203 24.8311C305.799 24.4092 305.488 23.9199 305.271 23.3633C305.055 22.8008 304.946 22.2031 304.946 21.5703V21.2188C304.946 20.498 305.049 19.8389 305.254 19.2412C305.459 18.6436 305.752 18.125 306.133 17.6855C306.52 17.2461 306.988 16.9092 307.539 16.6748C308.09 16.4346 308.711 16.3145 309.402 16.3145C310.076 16.3145 310.674 16.4258 311.195 16.6484C311.717 16.8711 312.153 17.1875 312.505 17.5977C312.862 18.0078 313.132 18.5 313.313 19.0742C313.495 19.6426 313.586 20.2754 313.586 20.9727V22.0273H306.027V20.3398H311.099V20.1465C311.099 19.7949 311.034 19.4814 310.905 19.2061C310.782 18.9248 310.595 18.7021 310.343 18.5381C310.091 18.374 309.769 18.292 309.376 18.292C309.042 18.292 308.755 18.3652 308.515 18.5117C308.274 18.6582 308.078 18.8633 307.926 19.127C307.779 19.3906 307.668 19.7012 307.592 20.0586C307.521 20.4102 307.486 20.7969 307.486 21.2188V21.5703C307.486 21.9512 307.539 22.3027 307.645 22.625C307.756 22.9473 307.911 23.2256 308.11 23.46C308.315 23.6943 308.562 23.876 308.849 24.0049C309.142 24.1338 309.473 24.1982 309.842 24.1982C310.299 24.1982 310.724 24.1104 311.116 23.9346C311.515 23.7529 311.857 23.4805 312.145 23.1172L313.375 24.4531C313.176 24.7402 312.903 25.0156 312.558 25.2793C312.218 25.543 311.808 25.7598 311.327 25.9297C310.847 26.0937 310.299 26.1758 309.684 26.1758ZM317.559 18.5645V26H315.027V16.4902H317.409L317.559 18.5645ZM320.424 16.4287L320.38 18.7754C320.257 18.7578 320.107 18.7432 319.932 18.7314C319.762 18.7139 319.606 18.7051 319.466 18.7051C319.108 18.7051 318.798 18.752 318.534 18.8457C318.276 18.9336 318.06 19.0654 317.884 19.2412C317.714 19.417 317.585 19.6309 317.497 19.8828C317.415 20.1348 317.368 20.4219 317.356 20.7441L316.847 20.5859C316.847 19.9707 316.908 19.4053 317.031 18.8896C317.154 18.3682 317.333 17.9141 317.567 17.5273C317.808 17.1406 318.101 16.8418 318.446 16.6309C318.792 16.4199 319.187 16.3145 319.633 16.3145C319.773 16.3145 319.917 16.3262 320.063 16.3496C320.21 16.3672 320.33 16.3936 320.424 16.4287Z" fill="#94A3B8"/>
<path d="M52.0557 72H61.744L37.7441 48H28.0557L52.0557 72Z" fill="#94A3B8"/>
<path d="M42.7217 48L65.8572 71.1355V48H59.5963V55.3043L52.292 48L42.7217 48Z" fill="#94A3B8"/>
<path d="M24 48.8035V72H30.2609V64.6956L37.5651 72H47.1965L24 48.8035Z" fill="#94A3B8"/>
<path d="M78.2031 55.3916L74.7227 66H71.9189L76.6738 53.2031H78.458L78.2031 55.3916ZM81.0947 66L77.6055 55.3916L77.3242 53.2031H79.126L83.9072 66H81.0947ZM80.9365 61.2363V63.3018H74.1777V61.2363H80.9365ZM87.4668 58.5645V66H84.9355V56.4902H87.3174L87.4668 58.5645ZM90.332 56.4287L90.2881 58.7754C90.165 58.7578 90.0156 58.7432 89.8398 58.7314C89.6699 58.7139 89.5146 58.7051 89.374 58.7051C89.0166 58.7051 88.7061 58.752 88.4424 58.8457C88.1846 58.9336 87.9678 59.0654 87.792 59.2412C87.6221 59.417 87.4932 59.6309 87.4053 59.8828C87.3232 60.1348 87.2764 60.4219 87.2646 60.7441L86.7549 60.5859C86.7549 59.9707 86.8164 59.4053 86.9395 58.8896C87.0625 58.3682 87.2412 57.9141 87.4756 57.5273C87.7158 57.1406 88.0088 56.8418 88.3545 56.6309C88.7002 56.4199 89.0957 56.3145 89.541 56.3145C89.6816 56.3145 89.8252 56.3262 89.9717 56.3496C90.1182 56.3672 90.2383 56.3936 90.332 56.4287ZM96.625 56.4902V58.2832H91.0879V56.4902H96.625ZM92.459 54.1436H94.9902V63.1348C94.9902 63.4102 95.0254 63.6211 95.0957 63.7676C95.1719 63.9141 95.2832 64.0166 95.4297 64.0752C95.5762 64.1279 95.7607 64.1543 95.9834 64.1543C96.1416 64.1543 96.2822 64.1484 96.4053 64.1367C96.5342 64.1191 96.6426 64.1016 96.7305 64.084L96.7393 65.9473C96.5225 66.0176 96.2881 66.0732 96.0361 66.1143C95.7842 66.1553 95.5059 66.1758 95.2012 66.1758C94.6445 66.1758 94.1582 66.085 93.7422 65.9033C93.332 65.7158 93.0156 65.417 92.793 65.0068C92.5703 64.5967 92.459 64.0576 92.459 63.3896V54.1436ZM102.839 63.3281L105.854 53.2031H108.789L104.333 66H102.399L102.839 63.3281ZM100.062 53.2031L103.067 63.3281L103.524 66H101.573L97.1436 53.2031H100.062ZM113.816 66.1758C113.078 66.1758 112.416 66.0586 111.83 65.8242C111.244 65.584 110.746 65.2529 110.336 64.8311C109.932 64.4092 109.621 63.9199 109.404 63.3633C109.187 62.8008 109.079 62.2031 109.079 61.5703V61.2188C109.079 60.498 109.182 59.8389 109.387 59.2412C109.592 58.6436 109.885 58.125 110.266 57.6855C110.652 57.2461 111.121 56.9092 111.672 56.6748C112.223 56.4346 112.844 56.3145 113.535 56.3145C114.209 56.3145 114.807 56.4258 115.328 56.6484C115.85 56.8711 116.286 57.1875 116.638 57.5977C116.995 58.0078 117.265 58.5 117.446 59.0742C117.628 59.6426 117.719 60.2754 117.719 60.9727V62.0273H110.16V60.3398H115.231V60.1465C115.231 59.7949 115.167 59.4814 115.038 59.2061C114.915 58.9248 114.728 58.7021 114.476 58.5381C114.224 58.374 113.901 58.292 113.509 58.292C113.175 58.292 112.888 58.3652 112.647 58.5117C112.407 58.6582 112.211 58.8633 112.059 59.127C111.912 59.3906 111.801 59.7012 111.725 60.0586C111.654 60.4102 111.619 60.7969 111.619 61.2188V61.5703C111.619 61.9512 111.672 62.3027 111.777 62.625C111.889 62.9473 112.044 63.2256 112.243 63.46C112.448 63.6943 112.694 63.876 112.981 64.0049C113.274 64.1338 113.605 64.1982 113.975 64.1982C114.432 64.1982 114.856 64.1104 115.249 63.9346C115.647 63.7529 115.99 63.4805 116.277 63.1172L117.508 64.4531C117.309 64.7402 117.036 65.0156 116.69 65.2793C116.351 65.543 115.94 65.7598 115.46 65.9297C114.979 66.0937 114.432 66.1758 113.816 66.1758ZM121.639 58.5205V66H119.107V56.4902H121.48L121.639 58.5205ZM121.27 60.9111H120.584C120.584 60.208 120.675 59.5752 120.856 59.0127C121.038 58.4443 121.293 57.9609 121.621 57.5625C121.949 57.1582 122.339 56.8506 122.79 56.6396C123.247 56.4229 123.757 56.3145 124.319 56.3145C124.765 56.3145 125.172 56.3789 125.541 56.5078C125.91 56.6367 126.227 56.8418 126.49 57.123C126.76 57.4043 126.965 57.7764 127.105 58.2393C127.252 58.7021 127.325 59.2676 127.325 59.9355V66H124.776V59.9268C124.776 59.5049 124.718 59.1768 124.601 58.9424C124.483 58.708 124.311 58.5439 124.082 58.4502C123.859 58.3506 123.584 58.3008 123.256 58.3008C122.916 58.3008 122.62 58.3682 122.368 58.5029C122.122 58.6377 121.917 58.8252 121.753 59.0654C121.595 59.2998 121.475 59.5752 121.393 59.8916C121.311 60.208 121.27 60.5479 121.27 60.9111ZM134.875 63.7236V56.4902H137.406V66H135.024L134.875 63.7236ZM135.156 61.7725L135.903 61.7549C135.903 62.3877 135.83 62.9766 135.684 63.5215C135.537 64.0605 135.317 64.5293 135.024 64.9277C134.731 65.3203 134.362 65.6279 133.917 65.8506C133.472 66.0674 132.947 66.1758 132.344 66.1758C131.881 66.1758 131.453 66.1113 131.061 65.9824C130.674 65.8477 130.34 65.6396 130.059 65.3584C129.783 65.0713 129.566 64.7051 129.408 64.2598C129.256 63.8086 129.18 63.2666 129.18 62.6338V56.4902H131.711V62.6514C131.711 62.9326 131.743 63.1699 131.808 63.3633C131.878 63.5566 131.975 63.7148 132.098 63.8379C132.221 63.9609 132.364 64.0488 132.528 64.1016C132.698 64.1543 132.886 64.1807 133.091 64.1807C133.612 64.1807 134.022 64.0752 134.321 63.8643C134.626 63.6533 134.84 63.3662 134.963 63.0029C135.092 62.6338 135.156 62.2236 135.156 61.7725ZM143.717 66.1758C142.979 66.1758 142.316 66.0586 141.73 65.8242C141.145 65.584 140.646 65.2529 140.236 64.8311C139.832 64.4092 139.521 63.9199 139.305 63.3633C139.088 62.8008 138.979 62.2031 138.979 61.5703V61.2188C138.979 60.498 139.082 59.8389 139.287 59.2412C139.492 58.6436 139.785 58.125 140.166 57.6855C140.553 57.2461 141.021 56.9092 141.572 56.6748C142.123 56.4346 142.744 56.3145 143.436 56.3145C144.109 56.3145 144.707 56.4258 145.229 56.6484C145.75 56.8711 146.187 57.1875 146.538 57.5977C146.895 58.0078 147.165 58.5 147.347 59.0742C147.528 59.6426 147.619 60.2754 147.619 60.9727V62.0273H140.061V60.3398H145.132V60.1465C145.132 59.7949 145.067 59.4814 144.938 59.2061C144.815 58.9248 144.628 58.7021 144.376 58.5381C144.124 58.374 143.802 58.292 143.409 58.292C143.075 58.292 142.788 58.3652 142.548 58.5117C142.308 58.6582 142.111 58.8633 141.959 59.127C141.812 59.3906 141.701 59.7012 141.625 60.0586C141.555 60.4102 141.52 60.7969 141.52 61.2188V61.5703C141.52 61.9512 141.572 62.3027 141.678 62.625C141.789 62.9473 141.944 63.2256 142.144 63.46C142.349 63.6943 142.595 63.876 142.882 64.0049C143.175 64.1338 143.506 64.1982 143.875 64.1982C144.332 64.1982 144.757 64.1104 145.149 63.9346C145.548 63.7529 145.891 63.4805 146.178 63.1172L147.408 64.4531C147.209 64.7402 146.937 65.0156 146.591 65.2793C146.251 65.543 145.841 65.7598 145.36 65.9297C144.88 66.0937 144.332 66.1758 143.717 66.1758Z" fill="#94A3B8"/>
<path d="M230.584 62.9863V69.0769C230.584 69.3104 230.491 69.5343 230.326 69.6993C230.161 69.8644 229.937 69.9572 229.703 69.9572C229.47 69.9572 229.246 69.8644 229.081 69.6993C228.916 69.5343 228.823 69.3104 228.823 69.0769V62.9947C229.068 63.1737 229.362 63.2737 229.665 63.2811C229.996 63.2906 230.32 63.1865 230.584 62.9863ZM238.081 61.2257C237.858 61.2257 237.643 61.3145 237.485 61.4724C237.327 61.6304 237.239 61.8447 237.239 62.0681V63.1295C237.239 63.363 237.331 63.5869 237.496 63.752C237.662 63.9171 237.885 64.0098 238.119 64.0098C238.352 64.0098 238.576 63.9171 238.741 63.752C238.906 63.5869 238.999 63.363 238.999 63.1295V62.1102C239.006 61.9894 238.986 61.8686 238.942 61.7561C238.898 61.6435 238.83 61.5418 238.742 61.4579C238.655 61.374 238.551 61.3098 238.437 61.2697C238.323 61.2297 238.201 61.2147 238.081 61.2257ZM226.911 65.2945C226.608 65.2854 226.314 65.1856 226.068 65.0081V71.1155C226.068 71.3501 226.162 71.5751 226.327 71.741C226.493 71.9068 226.718 72 226.953 72C227.187 72 227.412 71.9068 227.578 71.741C227.744 71.5751 227.837 71.3501 227.837 71.1155V65.0502C227.562 65.228 227.238 65.3136 226.911 65.2945ZM235.335 59.3977C235.221 59.392 235.107 59.4096 234.999 59.4493C234.892 59.4891 234.794 59.5502 234.712 59.629C234.629 59.7079 234.563 59.8026 234.518 59.9077C234.473 60.0127 234.45 60.1259 234.45 60.2401V64.9323C234.45 65.1669 234.543 65.3919 234.709 65.5577C234.875 65.7236 235.1 65.8168 235.335 65.8168C235.569 65.8168 235.794 65.7236 235.96 65.5577C236.126 65.3919 236.219 65.1669 236.219 64.9323V60.2991C236.226 60.1775 236.206 60.0559 236.162 59.9427C236.117 59.8295 236.048 59.7273 235.96 59.6432C235.872 59.5592 235.767 59.4951 235.651 59.4557C235.536 59.4162 235.414 59.4021 235.293 59.4145L235.335 59.3977ZM232.538 61.2004C232.221 61.1982 231.912 61.0982 231.653 60.914V67.0383C231.653 67.2729 231.747 67.4979 231.913 67.6637C232.078 67.8296 232.303 67.9228 232.538 67.9228C232.773 67.9228 232.998 67.8296 233.164 67.6637C233.329 67.4979 233.423 67.2729 233.423 67.0383V60.9224C233.155 61.1215 232.829 61.2253 232.496 61.2173L232.538 61.2004ZM224.999 65.8926V48.7834C224.996 48.5749 224.912 48.3756 224.764 48.2289C224.615 48.0823 224.415 48 224.207 48H224.021C223.813 48 223.613 48.0823 223.464 48.2289C223.316 48.3756 223.232 48.5749 223.229 48.7834V65.8926C223.229 66.1026 223.313 66.304 223.461 66.4525C223.61 66.6011 223.811 66.6845 224.021 66.6845H224.207C224.417 66.6845 224.618 66.6011 224.767 66.4525C224.915 66.304 224.999 66.1026 224.999 65.8926ZM227.003 64.6458H226.818C226.608 64.6458 226.407 64.5624 226.258 64.4139C226.11 64.2654 226.026 64.064 226.026 63.854V50.822C226.028 50.6135 226.113 50.4142 226.261 50.2676C226.409 50.1209 226.61 50.0386 226.818 50.0386H227.003C227.212 50.0386 227.412 50.1209 227.56 50.2676C227.709 50.4142 227.793 50.6135 227.795 50.822V63.8708C227.795 64.0808 227.712 64.2823 227.563 64.4308C227.415 64.5793 227.213 64.6627 227.003 64.6627V64.6458ZM229.792 62.6409H229.598C229.39 62.6409 229.191 62.5584 229.044 62.4115C228.897 62.2645 228.815 62.0653 228.815 61.8575V52.8438C228.814 52.7402 228.833 52.6374 228.872 52.5414C228.911 52.4454 228.968 52.358 229.041 52.2844C229.114 52.2107 229.201 52.1523 229.296 52.1124C229.392 52.0725 229.494 52.0519 229.598 52.0519H229.792C230 52.0542 230.2 52.1386 230.346 52.2868C230.493 52.4351 230.575 52.6352 230.575 52.8438V61.8575C230.575 62.0653 230.493 62.2645 230.346 62.4115C230.199 62.5584 230 62.6409 229.792 62.6409ZM232.58 60.577H232.403C232.195 60.577 231.995 60.4948 231.846 60.3481C231.698 60.2014 231.614 60.0022 231.611 59.7936V54.9414C231.604 54.8332 231.62 54.7248 231.657 54.6228C231.693 54.5209 231.75 54.4274 231.825 54.3485C231.899 54.2695 231.989 54.2066 232.088 54.1637C232.188 54.1208 232.295 54.0987 232.403 54.099H232.589C232.799 54.099 233 54.1824 233.149 54.3309C233.297 54.4794 233.38 54.6808 233.38 54.8908V59.7768C233.382 59.8815 233.362 59.9853 233.323 60.0824C233.283 60.1794 233.225 60.2677 233.151 60.3422C233.078 60.4166 232.99 60.4756 232.894 60.516C232.797 60.5563 232.693 60.577 232.589 60.577H232.58ZM235.377 58.7659H235.192C234.982 58.7659 234.78 58.6825 234.632 58.534C234.483 58.3855 234.4 58.184 234.4 57.974V56.7188C234.402 56.5103 234.486 56.311 234.635 56.1644C234.783 56.0176 234.983 55.9354 235.192 55.9354H235.377C235.585 55.9354 235.786 56.0176 235.934 56.1644C236.082 56.311 236.167 56.5103 236.169 56.7188V57.974C236.169 58.1826 236.087 58.3828 235.94 58.531C235.793 58.6793 235.594 58.7637 235.385 58.7659H235.377Z" fill="#94A3B8"/>
<path d="M249.228 63.9697L251.776 53.2031H253.2L253.525 54.9961L250.81 66H249.28L249.228 63.9697ZM247.918 53.2031L250.027 63.9697L249.852 66H248.146L245.308 53.2031H247.918ZM255.767 63.9258L257.85 53.2031H260.46L257.63 66H255.925L255.767 63.9258ZM254 53.2031L256.566 64.0137L256.496 66H254.967L252.233 54.9873L252.585 53.2031H254ZM266.709 55.3916L263.229 66H260.425L265.18 53.2031H266.964L266.709 55.3916ZM269.601 66L266.111 55.3916L265.83 53.2031H267.632L272.413 66H269.601ZM269.442 61.2363V63.3018H262.684V61.2363H269.442ZM277.493 63.3281L280.508 53.2031H283.443L278.987 66H277.054L277.493 63.3281ZM274.716 53.2031L277.722 63.3281L278.179 66H276.228L271.798 53.2031H274.716ZM293.226 63.9434V66H286.414V63.9434H293.226ZM287.275 53.2031V66H284.639V53.2031H287.275ZM292.338 58.415V60.4189H286.414V58.415H292.338ZM293.217 53.2031V55.2686H286.414V53.2031H293.217ZM301.426 62.6514C301.426 62.4229 301.391 62.2178 301.32 62.0361C301.256 61.8486 301.133 61.6787 300.951 61.5264C300.77 61.3682 300.515 61.2129 300.187 61.0605C299.858 60.9082 299.434 60.75 298.912 60.5859C298.332 60.3984 297.781 60.1875 297.26 59.9531C296.744 59.7188 296.287 59.4463 295.889 59.1357C295.496 58.8193 295.186 58.4531 294.957 58.0371C294.734 57.6211 294.623 57.1377 294.623 56.5869C294.623 56.0537 294.74 55.5703 294.975 55.1367C295.209 54.6973 295.537 54.3223 295.959 54.0117C296.381 53.6953 296.879 53.4521 297.453 53.2822C298.033 53.1123 298.669 53.0273 299.36 53.0273C300.304 53.0273 301.127 53.1973 301.83 53.5371C302.533 53.877 303.078 54.3428 303.465 54.9346C303.857 55.5264 304.054 56.2031 304.054 56.9648H301.435C301.435 56.5898 301.355 56.2617 301.197 55.9805C301.045 55.6934 300.811 55.4678 300.494 55.3037C300.184 55.1396 299.791 55.0576 299.316 55.0576C298.859 55.0576 298.479 55.1279 298.174 55.2686C297.869 55.4033 297.641 55.5879 297.488 55.8223C297.336 56.0508 297.26 56.3086 297.26 56.5957C297.26 56.8125 297.312 57.0088 297.418 57.1846C297.529 57.3604 297.693 57.5244 297.91 57.6768C298.127 57.8291 298.394 57.9727 298.71 58.1074C299.026 58.2422 299.393 58.374 299.809 58.5029C300.506 58.7139 301.118 58.9512 301.646 59.2148C302.179 59.4785 302.624 59.7744 302.981 60.1025C303.339 60.4307 303.608 60.8027 303.79 61.2188C303.972 61.6348 304.062 62.1064 304.062 62.6338C304.062 63.1904 303.954 63.6885 303.737 64.1279C303.521 64.5674 303.207 64.9395 302.797 65.2441C302.387 65.5488 301.897 65.7803 301.329 65.9385C300.761 66.0967 300.125 66.1758 299.422 66.1758C298.789 66.1758 298.165 66.0937 297.55 65.9297C296.935 65.7598 296.375 65.5049 295.871 65.165C295.373 64.8252 294.975 64.3916 294.676 63.8643C294.377 63.3369 294.228 62.7129 294.228 61.9922H296.873C296.873 62.3906 296.935 62.7275 297.058 63.0029C297.181 63.2783 297.354 63.501 297.576 63.6709C297.805 63.8408 298.074 63.9639 298.385 64.04C298.701 64.1162 299.047 64.1543 299.422 64.1543C299.879 64.1543 300.254 64.0898 300.547 63.9609C300.846 63.832 301.065 63.6533 301.206 63.4248C301.353 63.1963 301.426 62.9385 301.426 62.6514Z" fill="#94A3B8"/>
</svg>
