<svg width="600" height="56" viewBox="0 0 600 56" fill="none" xmlns="http://www.w3.org/2000/svg">
<rect width="600" height="56" rx="8" fill="#F1F5F9"/>
<path fill-rule="evenodd" clip-rule="evenodd" d="M16 28.2612L16.0012 28.1409L16.0035 28.0206L16.0072 27.9003L16.012 27.78L16.0181 27.6597L16.0254 27.5394L16.034 27.4192L16.0438 27.299L16.0549 27.1788L16.0671 27.0586L16.0806 26.9386L16.0954 26.8186L16.1114 26.6987L16.1286 26.579L16.147 26.4593L16.1667 26.3399L16.1876 26.2205L16.2098 26.1013L16.2332 25.9823L16.2578 25.8634L16.2836 25.7447L16.3107 25.6263L16.339 25.5081L16.3685 25.3901L16.3992 25.2723L16.4312 25.1548L16.4644 25.0376L16.4987 24.9206L16.5343 24.804L16.5711 24.6876L16.6092 24.5716L16.6484 24.4559L16.6888 24.3405L16.7304 24.2255L16.7732 24.1108L16.8172 23.9965L16.8624 23.8826L16.9088 23.7691L16.9564 23.6561L17.0051 23.5434L17.055 23.4311L17.1061 23.3193L17.1584 23.208L17.2118 23.0972L17.2663 22.9868L17.3221 22.8769L17.3789 22.7675L17.4369 22.6586L17.4961 22.5503L17.5564 22.4425L17.6178 22.3352L17.6803 22.2285L17.744 22.1224L17.8087 22.0169L17.8746 21.9119L17.9416 21.8076L18.0097 21.7039L18.0788 21.6008L18.1491 21.4983L18.2204 21.3965L18.2928 21.2954L18.3662 21.1949L18.4407 21.0951L18.5163 20.996L18.5929 20.8976L18.6706 20.7999L18.7492 20.7029L18.8289 20.6067L18.9097 20.5112L18.9914 20.4165L19.0741 20.3225L19.1579 20.2293L19.2426 20.1369L19.3283 20.0453L19.4149 19.9545L19.5026 19.8645L19.5911 19.7754L19.6807 19.687L19.7711 19.5996L19.8626 19.5129L19.9549 19.4272L20.0481 19.3423L20.1423 19.2582L20.2373 19.1751L20.3332 19.0929L20.4301 19.0116L20.5277 18.9312L20.6263 18.8517L20.7257 18.7732L20.8259 18.6956L20.927 18.619L21.0289 18.5433L21.1316 18.4686L21.2351 18.3949L21.3394 18.3221L21.4445 18.2504L21.5504 18.1796L21.657 18.1099L21.7644 18.0412L21.8726 17.9735L21.9814 17.9069L22.091 17.8413L22.2013 17.7767L22.3123 17.7132L22.424 17.6508L22.5364 17.5894L22.6494 17.5291L22.7631 17.4699L22.8775 17.4118L22.9925 17.3548L23.1081 17.2989L23.2244 17.2441L23.3412 17.1904L23.4587 17.1379L23.5767 17.0865L23.6954 17.0362L23.8145 16.9871L23.9342 16.9391L24.0545 16.8923L24.1752 16.8466L24.2965 16.8021L24.4183 16.7588L24.5406 16.7166L24.6633 16.6757L24.7865 16.6359L24.9102 16.5973L25.0343 16.5599L25.1589 16.5237L25.2838 16.4888L25.4092 16.455L25.535 16.4225L25.6611 16.3911L25.7876 16.361L25.9145 16.3322L26.0417 16.3045L26.1692 16.2781L26.297 16.2529L26.4252 16.229L26.5536 16.2064L26.6824 16.1849L26.8114 16.1648L26.9406 16.1459L27.0701 16.1282L27.1998 16.1118L27.3298 16.0967L27.4599 16.0828L27.5903 16.0703L27.7208 16.059L27.8514 16.0489L27.9822 16.0402L28.6857 16L28.7258 19.3892L28.7488 19.3889L28.8459 19.3888L28.9431 19.3896L29.0402 19.3914L29.1375 19.3941L29.2347 19.3978L29.3319 19.4024L29.4292 19.408L29.5265 19.4146L29.6237 19.4221L29.7209 19.4306L29.8181 19.44L29.9152 19.4504L30.0122 19.4617L30.1092 19.474L30.2061 19.4873L30.303 19.5015L30.3997 19.5167L30.4964 19.5329L30.5928 19.5499L30.6893 19.568L30.7855 19.587L30.8816 19.607L30.9776 19.6279L31.0733 19.6498L31.1689 19.6726L31.2644 19.6964L31.3596 19.7211L31.4546 19.7467L31.5494 19.7734L31.644 19.8009L31.7383 19.8294L31.8324 19.8589L31.9262 19.8892L32.0198 19.9206L32.1131 19.9528L32.2061 19.986L32.2989 20.0201L32.3913 20.0552L32.4834 20.0911L32.5752 20.128L32.6666 20.1658L32.7577 20.2046L32.8485 20.2442L32.9389 20.2847L33.0289 20.3262L33.1185 20.3686L33.2078 20.4118L33.2967 20.456L33.3851 20.5011L33.4731 20.547L33.5607 20.5938L33.6479 20.6416L33.7346 20.6902L33.8209 20.7396L33.9067 20.79L33.992 20.8412L34.0769 20.8933L34.1612 20.9462L34.245 21L34.3284 21.0546L34.4112 21.1101L34.4935 21.1665L34.5752 21.2236L34.6565 21.2816L34.7371 21.3404L34.8171 21.4001L34.8967 21.4605L34.9756 21.5218L35.054 21.5839L35.1317 21.6467L35.2088 21.7104L35.2853 21.7749L35.3612 21.8401L35.4365 21.9061L35.5112 21.9729L35.5851 22.0404L35.6584 22.1088L35.7311 22.1778L35.8031 22.2476L35.8743 22.3182L35.945 22.3895L36.0149 22.4615L36.0841 22.5342L36.1526 22.6077L36.2204 22.6818L36.2874 22.7567L36.3537 22.8323L36.4193 22.9085L36.4841 22.9854L36.5481 23.063L36.6114 23.1413L36.674 23.2202L36.7357 23.2998L36.7967 23.38L36.8568 23.4609L36.9162 23.5424L36.9747 23.6245L37.0325 23.7072L37.0894 23.7905L37.1455 23.8745L37.2008 23.959L37.2552 24.0441L37.3087 24.1298L37.3614 24.216L37.4133 24.3029L37.4643 24.3902L37.5144 24.4781L37.5636 24.5666L37.612 24.6555L37.6595 24.745L37.706 24.835L37.7517 24.9255L37.7964 25.0164L37.8403 25.1079L37.8833 25.1999L37.9253 25.2923L37.9664 25.3851L38.0065 25.4784L38.0457 25.5722L38.084 25.6664L38.1213 25.761L38.1576 25.856L38.193 25.9514L38.2275 26.0472L38.261 26.1434L38.2935 26.24L38.325 26.3369L38.3556 26.4342L38.3852 26.5318L38.4137 26.6298L38.4413 26.7281L38.4679 26.8267L38.4935 26.9256L38.5181 27.0248L38.5417 27.1244L38.5643 27.2241L38.5858 27.3242L38.6064 27.4245L38.6259 27.5251L38.6444 27.6259L38.6619 27.7269L38.6783 27.8282L38.6937 27.9296L38.7081 28.0313L38.7215 28.1331L38.7338 28.2352L38.745 28.3374L38.7552 28.4397L38.7644 28.5422L38.7726 28.6449L38.7797 28.7477L38.7857 28.8506L38.7906 28.9535L38.7946 29.0567L38.7974 29.1598L38.7993 29.2631L38.8 29.3664L38.7997 29.4698L38.7983 29.5732L38.7959 29.6767L38.7924 29.7801L38.7878 29.8836L38.7822 29.9871L38.7755 30.0906L38.7678 30.1941L38.759 30.2976L38.7491 30.401L38.7381 30.5044L38.7261 30.6077L38.713 30.7109L38.6989 30.8141L38.6837 30.9171L38.6674 31.0201L38.6501 31.1229L38.6316 31.2257L38.6122 31.3283L38.5917 31.4307L38.5701 31.533L38.5474 31.6352L38.5237 31.7372L38.499 31.8389L38.4731 31.9405L38.4462 32.0418L38.4183 32.143L38.3894 32.2439L38.3594 32.3446L38.3283 32.4451L38.2961 32.5452L38.263 32.6452L38.2288 32.7448L38.1935 32.8442L38.1573 32.9432L38.12 33.0419L38.0816 33.1403L38.0423 33.2384L38.0019 33.3362L37.9605 33.4335L37.9181 33.5306L37.8746 33.6272L37.8302 33.7235L37.7847 33.8194L37.7382 33.9149L37.6907 34.01L37.6423 34.1046L37.5928 34.1988L37.5424 34.2926L37.4909 34.3859L37.4385 34.4787L37.3851 34.5711L37.3308 34.6631L37.2755 34.7544L37.2192 34.8454L37.1619 34.9358L37.1037 35.0256L37.0446 35.115L36.9845 35.2038L36.9234 35.292L36.8615 35.3798L36.7986 35.4669L36.7347 35.5535L36.67 35.6394L36.6044 35.7248L36.5378 35.8095L36.4704 35.8937L36.402 35.9772L36.3328 36.0601L36.2627 36.1424L36.1917 36.224L36.1198 36.3049L36.0471 36.3852L35.9735 36.4648L35.8991 36.5437L35.8238 36.6219L35.7477 36.6994L35.6708 36.7762L35.593 36.8523L35.5145 36.9276L35.4351 37.0023L35.3549 37.0761L35.2739 37.1493L35.1921 37.2216L35.1096 37.2932L35.0263 37.364L34.9422 37.434L34.8574 37.5032L34.7718 37.5717L34.6855 37.6393L34.5984 37.7061L34.5107 37.772L34.4222 37.8372L34.333 37.9015L34.2431 37.9649L34.1525 38.0276L34.0612 38.0893L33.9693 38.1501L33.8766 38.2101L33.7834 38.2693L33.6895 38.3275L33.5949 38.3849L33.4997 38.4413L33.4039 38.4968L33.3075 38.5514L33.2105 38.6051L33.1129 38.6579L33.0147 38.7096L32.9159 38.7605L32.8166 38.8105L32.7167 38.8595L32.6162 38.9075L32.5152 38.9546L32.4137 39.0006L32.3117 39.0458L32.2092 39.0899L32.1062 39.133L32.0027 39.1752L31.8987 39.2163L31.7942 39.2565L31.6893 39.2957L31.5839 39.3338L31.4781 39.3709L31.3719 39.407L31.2653 39.4421L31.1582 39.4761L31.0507 39.5091L30.9429 39.5411L30.8347 39.572L30.7261 39.6018L30.6172 39.6307L30.5079 39.6584L30.3983 39.6851L30.2884 39.7108L30.1781 39.7353L30.0676 39.7589L29.9568 39.7813L29.8457 39.8027L29.7343 39.8229L29.6227 39.8421L29.5108 39.8602L29.3987 39.8772L29.2863 39.8931L29.1738 39.908L29.0611 39.9217L28.9481 39.9343L28.835 39.9458L28.7217 39.9563L28.6083 39.9656L28.4948 39.9738L28.3811 39.9809L28.2672 39.9869L28.1532 39.9917L28.0392 39.9954L27.9251 39.9981L27.8109 39.9996L27.6966 40L27.5823 39.9993L27.4679 39.9974L27.3535 39.9945L27.2391 39.9903L27.1247 39.9851L27.0102 39.9788L26.8959 39.9713L26.7815 39.9627L26.6672 39.953L26.5529 39.9422L26.4386 39.9302L26.3245 39.9171L26.2104 39.9029L26.0964 39.8876L25.9826 39.8711L25.8689 39.8535L25.7553 39.8348L25.6418 39.815L25.5285 39.794L25.4154 39.7719L25.3024 39.7487L25.1897 39.7244L25.077 39.6989L24.9647 39.6724L24.8526 39.6447L24.7407 39.6159L24.629 39.5861L24.5177 39.5551L24.4065 39.523L24.2957 39.4898L24.1851 39.4555L24.0749 39.4201L23.965 39.3836L23.8554 39.346L23.7461 39.3073L23.6372 39.2676L23.5287 39.2267L23.4205 39.1848L23.3127 39.1418L23.2053 39.0977L23.0984 39.0525L22.9918 39.0063L22.8857 38.959L22.7799 38.9106L22.6747 38.8612L22.5699 38.8107L22.4657 38.7592L22.3618 38.7066L22.2585 38.6531L22.1557 38.5984L22.0533 38.5428L21.9516 38.4861L21.8504 38.4284L21.7497 38.3696L21.6495 38.3099L21.55 38.2491L21.451 38.1873L21.3526 38.1246L21.2549 38.0609L21.1577 37.9962L21.0611 37.9304L20.9652 37.8638L20.87 37.7961L20.7753 37.7275L20.6814 37.658L20.5881 37.5874L20.4955 37.5159L20.4036 37.4436L20.3124 37.3702L20.222 37.296L20.1322 37.2208L20.0432 37.1447L19.9549 37.0677L19.8674 36.9898L19.7806 36.911L19.6946 36.8314L19.6094 36.7508L19.525 36.6695L19.4414 36.5871L19.3586 36.504L19.2766 36.4201L19.1954 36.3353L19.1151 36.2496L19.0356 36.1632L18.957 36.0759L18.8792 35.9878L18.8023 35.8989L18.7263 35.8092L18.6512 35.7188L18.577 35.6276L18.5037 35.5356L18.4312 35.4428L18.3598 35.3493L18.2892 35.2551L18.2196 35.1601L18.1509 35.0644L18.0832 34.968L18.0164 34.8709L17.9506 34.7731L17.8858 34.6746L17.822 34.5755L17.7591 34.4756L17.6973 34.3751L17.6364 34.274L17.5766 34.1722L17.5178 34.0698L17.46 33.9668L17.4032 33.8632L17.3475 33.7589L17.2929 33.6541L17.2393 33.5487L17.1867 33.4428L17.1352 33.3363L17.0848 33.2292L17.0354 33.1216L16.9872 33.0134L16.94 32.9048L16.8939 32.7956L16.849 32.686L16.8051 32.5758L16.7623 32.4652L16.7207 32.3541L16.6802 32.2426L16.6408 32.1306L16.6025 32.0183L16.5654 31.9054L16.5294 31.7922L16.4946 31.6785L16.4609 31.5645L16.4284 31.4501L16.397 31.3353L16.3668 31.2203L16.3378 31.1048L16.3099 30.989L16.2832 30.8729L16.2577 30.7565L16.2334 30.6398L16.2103 30.5228L16.1883 30.4055L16.1676 30.288L16.148 30.1702L16.1297 30.0522L16.1125 29.9339L16.0966 29.8154L16.0818 29.6967L16.0683 29.5779L16.056 29.4588L16.0449 29.3397L16.035 29.2203L16.0263 29.1008L16.0189 28.9811L16.0127 28.8614L16.0077 28.7415L16.0039 28.6215L16.0014 28.5015L16.0001 28.3814L16 28.2612ZM27.6269 19.4602L27.5995 17.1501L27.5735 17.1526L27.4542 17.1653L27.3353 17.1791L27.2163 17.1941L27.0979 17.2103L26.9796 17.2276L26.8614 17.2461L26.7435 17.2657L26.6258 17.2865L26.5087 17.3083L26.3914 17.3314L26.2749 17.3555L26.1583 17.3809L26.0423 17.4073L25.9263 17.4349L25.811 17.4635L25.6959 17.4933L25.5811 17.5242L25.4667 17.5562L25.3528 17.5893L25.2391 17.6236L25.126 17.6589L25.0132 17.6953L24.901 17.7327L24.789 17.7713L24.6776 17.811L24.5667 17.8517L24.4561 17.8935L24.3461 17.9363L24.2367 17.9801L24.1277 18.0251L24.0191 18.0711L23.9111 18.1182L23.8037 18.1662L23.6969 18.2153L23.5906 18.2654L23.4847 18.3166L23.3796 18.3687L23.275 18.4218L23.171 18.4759L23.0676 18.5311L22.965 18.5871L22.8627 18.6443L22.7612 18.7024L22.6605 18.7613L22.5601 18.8214L22.4607 18.8823L22.3619 18.9441L22.2636 19.0069L22.1661 19.0707L22.0694 19.1354L21.9735 19.2008L21.878 19.2674L21.7834 19.3348L21.6896 19.403L21.5964 19.4722L21.504 19.5422L21.4125 19.6131L21.3216 19.6849L21.2316 19.7575L21.1424 19.831L21.0539 19.9052L20.9663 19.9804L20.8795 20.0563L20.7934 20.1331L20.7083 20.2106L20.6239 20.289L20.5404 20.3681L20.4578 20.448L20.376 20.5287L20.2951 20.6101L20.215 20.6924L20.1359 20.7752L20.0577 20.8588L19.9802 20.9433L19.9038 21.0284L19.8283 21.1141L19.7536 21.2007L19.68 21.2878L19.6072 21.3757L19.5354 21.4642L19.4645 21.5534L19.3945 21.6432L19.3256 21.7337L19.2576 21.8247L19.1905 21.9165L19.1245 22.0088L19.0594 22.1018L18.9953 22.1952L18.9322 22.2893L18.87 22.384L18.8089 22.4792L18.7488 22.5749L18.6897 22.6712L18.6317 22.768L18.5746 22.8654L18.5185 22.9633L18.4636 23.0616L18.4096 23.1604L18.3567 23.2598L18.3048 23.3595L18.254 23.4598L18.2042 23.5604L18.1555 23.6615L18.1079 23.763L18.0613 23.865L18.0158 23.9673L17.9713 24.0701L17.9279 24.1733L17.8856 24.2767L17.8444 24.3806L17.8043 24.4848L17.7653 24.5893L17.7273 24.6942L17.6905 24.7993L17.6547 24.9048L17.6201 25.0106L17.5865 25.1167L17.5541 25.223L17.5227 25.3296L17.4925 25.4364L17.4634 25.5435L17.4354 25.6508L17.4085 25.7584L17.3827 25.8661L17.358 25.974L17.3345 26.0822L17.3121 26.1905L17.2908 26.2989L17.2706 26.4075L17.2515 26.5162L17.2336 26.6251L17.2168 26.7341L17.2011 26.8431L17.1865 26.9523L17.1731 27.0616L17.1608 27.1709L17.1496 27.2804L17.1396 27.3898L17.1307 27.4992L17.1229 27.6088L17.1162 27.7184L17.1106 27.8279L17.1062 27.9374L17.1029 28.0469L17.1007 28.1564L17.0997 28.2659L17.0998 28.3753L17.1009 28.4846L17.1032 28.5939L17.1067 28.7031L17.1112 28.8122L17.1169 28.9212L17.1236 29.0301L17.1315 29.1389L17.1405 29.2475L17.1506 29.3559L17.1618 29.4643L17.1741 29.5724L17.1876 29.6804L17.2021 29.7882L17.2177 29.8958L17.2344 30.0032L17.2522 30.1103L17.271 30.2172L17.291 30.3239L17.312 30.4302L17.3342 30.5364L17.3574 30.6423L17.3816 30.7479L17.407 30.8532L17.4334 30.9582L17.4608 31.0629L17.4893 31.1672L17.5189 31.2712L17.5496 31.3749L17.5812 31.4782L17.6139 31.5812L17.6477 31.6837L17.6824 31.7859L17.7183 31.8876L17.7551 31.989L17.7929 32.09L17.8318 32.1905L17.8717 32.2906L17.9125 32.3903L17.9544 32.4894L17.9972 32.5881L18.0411 32.6864L18.0859 32.7842L18.1317 32.8815L18.1785 32.9783L18.2263 33.0745L18.275 33.1703L18.3246 33.2655L18.3752 33.3602L18.4268 33.4543L18.4793 33.5478L18.5327 33.6408L18.587 33.7333L18.6423 33.8251L18.6984 33.9164L18.7555 34.007L18.8135 34.097L18.8723 34.1865L18.9321 34.2753L18.9927 34.3634L19.0541 34.451L19.1165 34.5378L19.1797 34.6241L19.2438 34.7096L19.3086 34.7945L19.3744 34.8786L19.4409 34.9621L19.5083 35.0449L19.5765 35.127L19.6454 35.2084L19.7152 35.289L19.7858 35.369L19.8571 35.4482L19.9292 35.5266L20.0021 35.6043L20.0757 35.6812L20.1501 35.7574L20.2252 35.8328L20.3011 35.9074L20.3776 35.9813L20.4549 36.0543L20.5329 36.1266L20.6116 36.198L20.691 36.2687L20.771 36.3384L20.8517 36.4074L20.9331 36.4756L21.0151 36.5429L21.0978 36.6095L21.1811 36.675L21.2651 36.7398L21.3496 36.8038L21.4348 36.8669L21.5205 36.929L21.6069 36.9903L21.6938 37.0508L21.7813 37.1103L21.8693 37.169L21.958 37.2267L22.0471 37.2836L22.1368 37.3395L22.227 37.3946L22.3177 37.4487L22.409 37.502L22.5006 37.5542L22.5929 37.6056L22.6855 37.656L22.7787 37.7055L22.8722 37.754L22.9662 37.8017L23.0607 37.8483L23.1557 37.894L23.2509 37.9388L23.3466 37.9826L23.4427 38.0253L23.5392 38.0672L23.6361 38.1081L23.7333 38.148L23.8309 38.187L23.9288 38.2249L24.0271 38.2619L24.1256 38.2979L24.2245 38.3329L24.3237 38.3669L24.4232 38.4L24.523 38.432L24.623 38.463L24.7233 38.4931L24.8238 38.5221L24.9246 38.5502L25.0257 38.5772L25.1269 38.6033L25.2284 38.6283L25.3299 38.6523L25.4318 38.6753L25.5338 38.6973L25.6359 38.7183L25.7383 38.7383L25.8408 38.7572L25.9434 38.7752L26.0461 38.7921L26.1489 38.808L26.2519 38.8229L26.355 38.8367L26.4581 38.8496L26.5613 38.8614L26.6645 38.8722L26.7678 38.8821L26.8712 38.8908L26.9746 38.8986L27.078 38.9054L27.1814 38.9111L27.2848 38.9158L27.3882 38.9195L27.4916 38.9222L27.5949 38.9238L27.6982 38.9245L27.8015 38.9241L27.9047 38.9228L28.0077 38.9204L28.1108 38.917L28.2137 38.9126L28.3166 38.9072L28.4192 38.9008L28.5218 38.8934L28.6243 38.885L28.7266 38.8756L28.8287 38.8652L28.9307 38.8538L29.0325 38.8414L29.1341 38.828L29.2355 38.8136L29.3367 38.7983L29.4377 38.7819L29.5385 38.7646L29.6391 38.7463L29.7393 38.727L29.8394 38.7068L29.9391 38.6856L30.0386 38.6634L30.1378 38.6403L30.2367 38.6162L30.3353 38.5911L30.4336 38.5651L30.5315 38.5382L30.6292 38.5103L30.7265 38.4814L30.8234 38.4516L30.92 38.421L31.0162 38.3893L31.112 38.3568L31.2074 38.3233L31.3025 38.2889L31.3971 38.2536L31.4913 38.2173L31.5851 38.1803L31.6784 38.1423L31.7712 38.1033L31.8637 38.0636L31.9557 38.0229L32.0471 37.9814L32.1382 37.9389L32.2287 37.8956L32.3187 37.8515L32.4083 37.8065L32.4973 37.7606L32.5858 37.7139L32.6738 37.6664L32.7612 37.618L32.8481 37.5688L32.9343 37.5188L33.0202 37.4679L33.1053 37.4163L33.19 37.3638L33.2739 37.3106L33.3573 37.2566L33.4402 37.2017L33.5225 37.146L33.6039 37.0898L33.6849 37.0326L33.7652 36.9747L33.8449 36.9161L33.924 36.8566L34.0023 36.7965L34.0801 36.7356L34.1571 36.674L34.2334 36.6117L34.3092 36.5487L34.3842 36.4849L34.4584 36.4205L34.532 36.3554L34.6049 36.2896L34.677 36.2231L34.7485 36.156L34.8191 36.0882L34.8891 36.0197L34.9584 35.9506L35.0268 35.8809L35.0946 35.8105L35.1615 35.7396L35.2276 35.6681L35.2931 35.5957L35.3577 35.523L35.4216 35.4495L35.4846 35.3756L35.5469 35.301L35.6083 35.226L35.6689 35.1503L35.7288 35.0741L35.7878 34.9974L35.846 34.92L35.9033 34.8423L35.9599 34.7639L36.0157 34.685L36.0704 34.6058L36.1245 34.526L36.1776 34.4457L36.2299 34.3649L36.2814 34.2836L36.332 34.202L36.3816 34.1199L36.4305 34.0372L36.4784 33.9543L36.5255 33.8709L36.5718 33.787L36.617 33.7029L36.6615 33.6182L36.705 33.5331L36.7476 33.4479L36.7893 33.3621L36.8302 33.2759L36.8701 33.1895L36.9091 33.1028L36.9472 33.0156L36.9843 32.9283L37.0206 32.8404L37.056 32.7524L37.0904 32.6642L37.1238 32.5754L37.1564 32.4866L37.188 32.3974L37.2188 32.308L37.2485 32.2183L37.2773 32.1286L37.3052 32.0382L37.3321 31.948L37.3581 31.8575L37.3832 31.7668L37.4073 31.6758L37.4304 31.5848L37.4526 31.4934L37.4739 31.4019L37.4942 31.3104L37.5136 31.2186L37.532 31.1268L37.5494 31.0347L37.5659 30.9428L37.5815 30.8505L37.596 30.7581L37.6097 30.6658L37.6224 30.5733L37.6341 30.4809L37.6449 30.3881L37.6547 30.2956L37.6635 30.2028L37.6714 30.1103L37.6784 30.0174L37.6844 29.9249L37.6894 29.832L37.6935 29.7392L37.6966 29.6465L37.6988 29.5541L37.7 29.4612L37.7003 29.3686L37.6997 29.2761L37.698 29.1836L37.6955 29.0912L37.6919 28.9991L37.6875 28.9066L37.6821 28.8146L37.6757 28.7225L37.6685 28.6308L37.6602 28.5389L37.6511 28.4474L37.641 28.3558L37.63 28.2645L37.6181 28.1733L37.6052 28.0824L37.5914 27.9915L37.5767 27.9009L37.5611 27.8107L37.5445 27.7204L37.527 27.6304L37.5086 27.5408L37.4893 27.4511L37.4692 27.362L37.448 27.2729L37.4261 27.1843L37.4031 27.0956L37.3794 27.0076L37.3547 26.9197L37.3292 26.832L37.3028 26.7448L37.2755 26.6579L37.2472 26.5711L37.2182 26.4849L37.1882 26.3988L37.1575 26.3133L37.1258 26.2279L37.0934 26.1431L37.0599 26.0585L37.0257 25.9743L36.9908 25.8906L36.9549 25.8074L36.9181 25.7242L36.8807 25.6418L36.8423 25.5595L36.8031 25.478L36.7632 25.3967L36.7223 25.3158L36.6808 25.2355L36.6384 25.1556L36.5951 25.076L36.5513 24.9972L36.5065 24.9186L36.461 24.8407L36.4146 24.7631L36.3677 24.6863L36.3198 24.6097L36.2713 24.5338L36.2219 24.4583L36.1719 24.3834L36.1212 24.3092L36.0696 24.2352L36.0173 24.162L35.9644 24.0893L35.9107 24.0172L35.8563 23.9456L35.8013 23.8746L35.7455 23.8042L35.6891 23.7344L35.6319 23.6652L35.5741 23.5966L35.5156 23.5286L35.4565 23.4612L35.3968 23.3945L35.3364 23.3284L35.2752 23.2628L35.2137 23.1981L35.1512 23.1338L35.0883 23.0704L35.0248 23.0075L34.9607 22.9453L34.8958 22.8836L34.8306 22.8229L34.7646 22.7627L34.6981 22.7031L34.6312 22.6444L34.5636 22.5863L34.4953 22.5288L34.4266 22.4721L34.3574 22.4161L34.2876 22.3608L34.2173 22.3062L34.1466 22.2525L34.0752 22.1993L34.0035 22.147L33.9312 22.0954L33.8583 22.0445L33.7852 21.9944L33.7113 21.9449L33.6374 21.8964L33.5626 21.8484L33.4876 21.8013L33.412 21.755L33.3361 21.7094L33.2598 21.6646L33.1832 21.6207L33.1058 21.5773L33.0285 21.5349L32.9505 21.4932L32.8722 21.4524L32.7936 21.4124L32.7145 21.3731L32.6351 21.3345L32.5554 21.2969L32.4753 21.26L32.3951 21.224L32.3144 21.1887L32.2308 21.1532L32.1522 21.1208L32.0704 21.0879L31.9887 21.056L31.9064 21.0248L31.8241 20.9945L31.7414 20.965L31.6586 20.9364L31.5753 20.9085L31.4921 20.8815L31.4084 20.8554L31.3246 20.8301L31.2407 20.8056L31.1565 20.782L31.0719 20.7591L30.9875 20.7372L30.9029 20.7161L30.8178 20.6958L30.7329 20.6764L30.6477 20.6578L30.5624 20.6401L30.4769 20.6232L30.3914 20.6072L30.3057 20.5921L30.2201 20.5778L30.1341 20.5643L30.0483 20.5517L29.9623 20.5399L29.8762 20.529L29.7901 20.5189L29.704 20.5097L29.6178 20.5013L29.5316 20.4938L29.4453 20.4871L29.359 20.4813L29.2729 20.4764L29.1867 20.4723L29.1003 20.469L29.0143 20.4666L28.9281 20.465L28.842 20.4643L28.7558 20.4644L28.7385 20.4646L28.7657 22.7579L28.8146 22.7577L28.8776 22.758L28.9405 22.759L29.0035 22.7606L29.0666 22.7628L29.1296 22.7657L29.1927 22.7692L29.2558 22.7733L29.3189 22.778L29.382 22.7834L29.4452 22.7894L29.5082 22.796L29.5713 22.8032L29.6344 22.8111L29.6974 22.8195L29.7604 22.8287L29.8233 22.8384L29.8862 22.8488L29.9491 22.8599L30.0119 22.8715L30.0746 22.8838L30.1372 22.8967L30.1998 22.9102L30.2622 22.9244L30.3246 22.9392L30.3869 22.9546L30.449 22.9706L30.511 22.9873L30.5729 23.0046L30.6347 23.0225L30.6964 23.0411L30.7579 23.0602L30.8192 23.08L30.8804 23.1004L30.9415 23.1215L31.0023 23.1431L31.0631 23.1654L31.1235 23.1882L31.1839 23.2118L31.244 23.2359L31.304 23.2606L31.3637 23.286L31.4232 23.3119L31.4825 23.3385L31.5415 23.3656L31.6003 23.3934L31.6589 23.4218L31.7172 23.4507L31.7753 23.4803L31.8332 23.5105L31.8907 23.5412L31.948 23.5726L32.005 23.6045L32.0617 23.637L32.1182 23.6702L32.1743 23.7039L32.2301 23.7381L32.2856 23.773L32.3408 23.8085L32.3957 23.8445L32.4503 23.881L32.5045 23.9181L32.5584 23.9559L32.6119 23.9941L32.6651 24.0329L32.7179 24.0723L32.7704 24.1122L32.8224 24.1527L32.8741 24.1938L32.9254 24.2353L32.9763 24.2774L33.0269 24.3201L33.077 24.3632L33.1268 24.4069L33.1761 24.4511L33.225 24.4959L33.2734 24.5411L33.3215 24.5869L33.369 24.6332L33.4162 24.68L33.4629 24.7272L33.5092 24.7751L33.555 24.8233L33.6003 24.8721L33.6452 24.9213L33.6896 24.9711L33.7335 25.0212L33.777 25.0719L33.8199 25.1231L33.8624 25.1747L33.9044 25.2267L33.9458 25.2792L33.9867 25.3322L34.0272 25.3856L34.0671 25.4395L34.1064 25.4937L34.1453 25.5485L34.1836 25.6036L34.2214 25.6592L34.2586 25.7151L34.2953 25.7715L34.3314 25.8283L34.367 25.8855L34.402 25.943L34.4364 26.001L34.4703 26.0594L34.5036 26.118L34.5363 26.1771L34.5684 26.2366L34.5999 26.2964L34.6309 26.3566L34.6612 26.4171L34.691 26.478L34.7201 26.5392L34.7486 26.6007L34.7765 26.6627L34.8038 26.7248L34.8305 26.7873L34.8566 26.8502L34.882 26.9133L34.9068 26.9767L34.9309 27.0404L34.9544 27.1044L34.9773 27.1686L34.9995 27.2332L35.0211 27.298L35.042 27.3631L35.0623 27.4284L35.0819 27.494L35.1009 27.5598L35.1192 27.6258L35.1368 27.6921L35.1537 27.7586L35.17 27.8253L35.1856 27.8922L35.2005 27.9594L35.2148 28.0267L35.2283 28.0942L35.2412 28.1619L35.2533 28.2298L35.2649 28.2978L35.2757 28.366L35.2857 28.4344L35.2952 28.5029L35.3039 28.5715L35.3119 28.6403L35.3192 28.7093L35.3258 28.7783L35.3317 28.8474L35.3369 28.9167L35.3414 28.986L35.3451 29.0555L35.3481 29.125L35.3505 29.1947L35.3521 29.2643L35.353 29.3341L35.3532 29.4039L35.3526 29.4738L35.3514 29.5437L35.3494 29.6136L35.3467 29.6837L35.3433 29.7536L35.3391 29.8236L35.3343 29.8937L35.3287 29.9637L35.3223 30.0338L35.3153 30.1038L35.3075 30.1737L35.2991 30.2438L35.2898 30.3137L35.2799 30.3836L35.2692 30.4534L35.2578 30.5232L35.2457 30.5929L35.2328 30.6626L35.2192 30.7322L35.2049 30.8016L35.1898 30.8711L35.1741 30.9404L35.1576 31.0095L35.1404 31.0786L35.1224 31.1476L35.1038 31.2164L35.0844 31.2851L35.0643 31.3536L35.0435 31.422L35.0219 31.4903L34.9996 31.5584L34.9766 31.6263L34.9529 31.694L34.9286 31.7616L34.9034 31.8289L34.8776 31.896L34.851 31.963L34.8238 32.0297L34.7958 32.0963L34.7672 32.1625L34.7378 32.2286L34.7078 32.2944L34.677 32.3599L34.6455 32.4252L34.6134 32.4902L34.5805 32.555L34.547 32.6195L34.5128 32.6836L34.4778 32.7475L34.4423 32.8111L34.406 32.8744L34.3691 32.9373L34.3314 33L34.2932 33.0623L34.2542 33.1244L34.2146 33.186L34.1743 33.2473L34.1333 33.3082L34.0917 33.3688L34.0495 33.429L34.0066 33.4889L33.963 33.5483L33.9189 33.6074L33.8741 33.6661L33.8286 33.7244L33.7825 33.7822L33.7358 33.8397L33.6884 33.8967L33.6405 33.9533L33.5919 34.0095L33.5427 34.0652L33.4929 34.1205L33.4425 34.1753L33.3915 34.2297L33.3399 34.2836L33.2877 34.337L33.235 34.39L33.1816 34.4424L33.1277 34.4945L33.0732 34.5459L33.0182 34.5969L32.9625 34.6474L32.9063 34.6973L32.8496 34.7468L32.7923 34.7957L32.7345 34.8441L32.6762 34.892L32.6173 34.9392L32.5578 34.986L32.4979 35.0322L32.4375 35.0778L32.3765 35.1229L32.315 35.1674L32.2531 35.2114L32.1906 35.2547L32.1277 35.2975L32.0642 35.3397L32.0003 35.3813L31.9359 35.4222L31.8711 35.4626L31.8058 35.5023L31.7401 35.5415L31.6739 35.58L31.6073 35.6179L31.5402 35.6552L31.4727 35.6918L31.4048 35.7278L31.3364 35.7632L31.2677 35.7978L31.1985 35.8319L31.129 35.8653L31.059 35.898L30.9887 35.93L30.918 35.9614L30.847 35.9921L30.7755 36.0221L30.7038 36.0515L30.6317 36.0801L30.5592 36.1081L30.4864 36.1354L30.4133 36.162L30.3398 36.1878L30.266 36.213L30.192 36.2375L30.1176 36.2612L30.0429 36.2842L29.968 36.3065L29.8928 36.3281L29.8173 36.3489L29.7415 36.369L29.6655 36.3884L29.5892 36.4071L29.5127 36.425L29.4359 36.4422L29.359 36.4586L29.2818 36.4743L29.2044 36.4892L29.1268 36.5034L29.049 36.5169L28.971 36.5295L28.8929 36.5414L28.8145 36.5526L28.736 36.563L28.6573 36.5726L28.5785 36.5814L28.4996 36.5895L28.4205 36.5969L28.3413 36.6034L28.262 36.6092L28.1825 36.6141L28.103 36.6183L28.0233 36.6218L27.9436 36.6244L27.8638 36.6263L27.7839 36.6273L27.704 36.6276L27.624 36.6272L27.544 36.6258L27.4639 36.6238L27.3838 36.6209L27.3037 36.6173L27.2235 36.6128L27.1434 36.6076L27.0633 36.6016L26.9832 36.5948L26.9031 36.5871L26.823 36.5787L26.7429 36.5696L26.663 36.5596L26.583 36.5488L26.5031 36.5372L26.4233 36.5249L26.3436 36.5117L26.2639 36.4977L26.1843 36.483L26.1049 36.4675L26.0256 36.4511L25.9463 36.434L25.8672 36.4161L25.7883 36.3974L25.7094 36.3779L25.6308 36.3576L25.5522 36.3366L25.4739 36.3147L25.3958 36.2921L25.3178 36.2687L25.2399 36.2445L25.1624 36.2195L25.085 36.1938L25.0078 36.1673L24.9309 36.14L24.8542 36.1119L24.7777 36.083L24.7015 36.0534L24.6255 36.023L24.5498 35.9918L24.4744 35.9599L24.3993 35.9273L24.3245 35.8938L24.2499 35.8596L24.1757 35.8247L24.1017 35.789L24.0281 35.7525L23.9548 35.7153L23.8819 35.6774L23.8093 35.6387L23.7371 35.5992L23.6652 35.5591L23.5937 35.5182L23.5225 35.4766L23.4518 35.4342L23.3814 35.3912L23.3114 35.3474L23.2419 35.3029L23.1728 35.2577L23.1041 35.2118L23.0358 35.1651L22.9679 35.1179L22.9005 35.0699L22.8336 35.0211L22.7671 34.9718L22.701 34.9217L22.6355 34.8709L22.5705 34.8195L22.5059 34.7673L22.4418 34.7146L22.3782 34.6611L22.3152 34.6071L22.2527 34.5523L22.1906 34.4969L22.1291 34.4409L22.0682 34.3842L22.0078 34.3269L21.9479 34.269L21.8886 34.2104L21.83 34.1513L21.7718 34.0914L21.7142 34.0311L21.6572 33.9701L21.6009 33.9085L21.5451 33.8463L21.4899 33.7835L21.4353 33.7202L21.3813 33.6563L21.3281 33.5918L21.2753 33.5267L21.2233 33.4611L21.1719 33.3949L21.1211 33.3282L21.071 33.2609L21.0215 33.1932L20.9727 33.1248L20.9247 33.056L20.8772 32.9867L20.8305 32.9168L20.7844 32.8465L20.7391 32.7756L20.6944 32.7043L20.6505 32.6325L20.6072 32.5602L20.5647 32.4875L20.5229 32.4142L20.4819 32.3406L20.4415 32.2664L20.4019 32.1919L20.3631 32.1169L20.325 32.0415L20.2876 31.9656L20.251 31.8894L20.2152 31.8128L20.1801 31.7357L20.1458 31.6583L20.1123 31.5804L20.0796 31.5022L20.0476 31.4237L20.0165 31.3448L19.9861 31.2654L19.9565 31.1858L19.9277 31.1059L19.8998 31.0256L19.8726 30.945L19.8463 30.864L19.8208 30.7828L19.796 30.7013L19.7722 30.6195L19.7491 30.5374L19.7269 30.455L19.7055 30.3723L19.6849 30.2895L19.6652 30.2063L19.6463 30.1229L19.6283 30.0393L19.6111 29.9555L19.5948 29.8714L19.5793 29.7871L19.5647 29.7026L19.551 29.618L19.5381 29.5331L19.526 29.4481L19.5149 29.3629L19.5046 29.2775L19.4952 29.192L19.4866 29.1064L19.4789 29.0206L19.4721 28.9347L19.4662 28.8487L19.4612 28.7625L19.457 28.6763L19.4538 28.59L19.4514 28.5036L19.4499 28.4172L19.4493 28.3306L19.4496 28.244L19.4507 28.1574L19.4528 28.0707L19.4557 27.984L19.4596 27.8973L19.4643 27.8106L19.4699 27.7238L19.4765 27.6371L19.4839 27.5504L19.4922 27.4637L19.5014 27.377L19.5115 27.2904L19.5225 27.2039L19.5344 27.1173L19.5472 27.0309L19.5609 26.9445L19.5755 26.8583L19.591 26.7721L19.6073 26.686L19.6246 26.6L19.6428 26.5142L19.6618 26.4285L19.6818 26.3429L19.7026 26.2575L19.7243 26.1722L19.7469 26.0871L19.7704 26.0022L19.7948 25.9175L19.8201 25.8329L19.8462 25.7486L19.8733 25.6644L19.9012 25.5805L19.93 25.4968L19.9596 25.4133L19.9902 25.3301L20.0216 25.2471L20.0539 25.1645L20.087 25.082L20.121 24.9999L20.1559 24.918L20.1916 24.8364L20.2282 24.7552L20.2657 24.6743L20.304 24.5936L20.3431 24.5133L20.3831 24.4334L20.424 24.3538L20.4657 24.2746L20.5082 24.1957L20.5515 24.1172L20.5957 24.0391L20.6407 23.9613L20.6866 23.8841L20.7332 23.8071L20.7807 23.7306L20.829 23.6546L20.8781 23.5789L20.928 23.5037L20.9786 23.429L21.0302 23.3547L21.0824 23.2808L21.1355 23.2074L21.1893 23.1346L21.2439 23.0622L21.2994 22.9903L21.3555 22.9189L21.4125 22.848L21.4701 22.7777L21.5286 22.7079L21.5878 22.6386L21.6477 22.5698L21.7084 22.5017L21.7698 22.434L21.8319 22.367L21.8948 22.3005L21.9584 22.2345L22.0227 22.1693L22.0877 22.1045L22.1534 22.0404L22.2198 21.9769L22.2869 21.914L22.3546 21.8517L22.4231 21.7901L22.4922 21.7291L22.5619 21.6687L22.6323 21.609L22.7034 21.55L22.7751 21.4916L22.8475 21.4339L22.9205 21.3769L22.9941 21.3206L23.0684 21.2649L23.1432 21.21L23.2187 21.1557L23.2947 21.1022L23.3714 21.0494L23.4486 20.9973L23.5263 20.946L23.6048 20.8954L23.6837 20.8455L23.7632 20.7964L23.8432 20.7481L23.9238 20.7005L24.0048 20.6536L24.0865 20.6075L24.1686 20.5623L24.2513 20.5178L24.3344 20.474L24.4181 20.4311L24.5022 20.389L24.5868 20.3477L24.6719 20.3072L24.7574 20.2675L24.8434 20.2286L24.9299 20.1905L25.0167 20.1533L25.104 20.1169L25.1918 20.0813L25.2798 20.0466L25.3684 20.0128L25.4573 19.9798L25.5467 19.9476L25.6364 19.9163L25.7264 19.8859L25.8168 19.8563L25.9076 19.8276L25.9987 19.7998L26.0901 19.7729L26.1819 19.7468L26.274 19.7217L26.3664 19.6974L26.4591 19.674L26.5521 19.6516L26.6453 19.63L26.7389 19.6093L26.8326 19.5895L26.9267 19.5707L27.021 19.5528L27.1155 19.5357L27.2102 19.5196L27.3052 19.5044L27.4004 19.4902L27.4957 19.4769L27.5912 19.4645L27.6269 19.4602ZM27.6672 22.8617L27.6397 20.5431L27.5614 20.5541L27.4772 20.5667L27.393 20.5802L27.3093 20.5944L27.2255 20.6095L27.1421 20.6253L27.0588 20.642L26.9759 20.6595L26.8932 20.6778L26.8106 20.6969L26.7283 20.7168L26.6463 20.7375L26.5644 20.759L26.4858 20.7804L26.402 20.8043L26.321 20.8281L26.2404 20.8527L26.1603 20.878L26.0803 20.9042L26.0006 20.9311L25.9213 20.9588L25.8424 20.9871L25.7638 21.0164L25.6856 21.0462L25.6076 21.077L25.5303 21.1083L25.4529 21.1406L25.3762 21.1734L25.2998 21.207L25.224 21.2414L25.1483 21.2765L25.0731 21.3123L24.9985 21.3487L24.924 21.386L24.8504 21.4238L24.7768 21.4625L24.704 21.5017L24.6312 21.5418L24.5592 21.5824L24.4877 21.6237L24.4166 21.6658L24.3459 21.7085L24.2757 21.7519L24.2061 21.7958L24.1369 21.8405L24.0683 21.8858L24.0002 21.9317L23.9326 21.9783L23.8654 22.0256L23.799 22.0733L23.7329 22.1219L23.6674 22.1709L23.6025 22.2206L23.5382 22.2708L23.4743 22.3218L23.4111 22.3732L23.3484 22.4252L23.2863 22.478L23.2249 22.5311L23.1639 22.5849L23.1036 22.6392L23.0439 22.6941L22.9848 22.7495L22.9262 22.8055L22.8684 22.8619L22.8112 22.9189L22.7545 22.9765L22.6985 23.0345L22.6431 23.0931L22.5884 23.1522L22.5344 23.2117L22.4809 23.2718L22.428 23.3324L22.3761 23.3933L22.3246 23.4548L22.2738 23.5167L22.2237 23.5791L22.1743 23.6418L22.1255 23.7052L22.0774 23.7689L22.03 23.833L21.9833 23.8976L21.9373 23.9625L21.8921 24.0278L21.8475 24.0936L21.8036 24.1598L21.7604 24.2263L21.7179 24.2931L21.6762 24.3604L21.6352 24.4281L21.5949 24.4961L21.5553 24.5644L21.5165 24.6331L21.4784 24.702L21.441 24.7713L21.4043 24.8411L21.3685 24.9109L21.3333 24.9812L21.299 25.0518L21.2653 25.1225L21.2324 25.1937L21.2003 25.265L21.1689 25.3367L21.1382 25.4085L21.1084 25.4807L21.0793 25.553L21.0509 25.6257L21.0233 25.6985L20.9966 25.7715L20.9705 25.8449L20.9453 25.9182L20.9207 25.9919L20.897 26.0658L20.874 26.1398L20.8519 26.214L20.8305 26.2883L20.8099 26.3628L20.79 26.4375L20.771 26.5122L20.7527 26.5872L20.7352 26.6622L20.7185 26.7374L20.7026 26.8127L20.6875 26.888L20.6731 26.9634L20.6595 27.039L20.6468 27.1146L20.6348 27.1904L20.6236 27.266L20.6131 27.3419L20.6035 27.4177L20.5946 27.4936L20.5866 27.5695L20.5793 27.6455L20.5728 27.7214L20.5671 27.7973L20.5621 27.8733L20.558 27.9493L20.5546 28.0252L20.552 28.1011L20.5502 28.1769L20.5492 28.2528L20.549 28.3286L20.5495 28.4043L20.5508 28.48L20.5529 28.5556L20.5558 28.6311L20.5594 28.7066L20.5638 28.7819L20.569 28.8571L20.5749 28.9323L20.5816 29.0073L20.5891 29.0822L20.5973 29.1569L20.6063 29.2316L20.6161 29.3061L20.6266 29.3804L20.6379 29.4546L20.6499 29.5285L20.6627 29.6024L20.6762 29.676L20.6905 29.7494L20.7055 29.8227L20.7212 29.8958L20.7377 29.9687L20.7549 30.0412L20.7729 30.1136L20.7916 30.1858L20.811 30.2577L20.8311 30.3294L20.852 30.4008L20.8735 30.472L20.8958 30.5429L20.9188 30.6136L20.9425 30.6839L20.9669 30.7539L20.992 30.8237L21.0178 30.8932L21.0443 30.9624L21.0715 31.0312L21.0993 31.0997L21.1279 31.1679L21.1571 31.2358L21.1871 31.3033L21.2176 31.3705L21.2489 31.4373L21.2808 31.5038L21.3133 31.5699L21.3465 31.6356L21.3804 31.701L21.4149 31.766L21.45 31.8305L21.4858 31.8947L21.5222 31.9585L21.5592 32.0219L21.5969 32.0848L21.6352 32.1474L21.6741 32.2095L21.7136 32.2712L21.7537 32.3325L21.7943 32.3932L21.8357 32.4536L21.8775 32.5135L21.92 32.573L21.963 32.6319L22.0066 32.6904L22.0508 32.7485L22.0955 32.8061L22.1408 32.8631L22.1866 32.9197L22.233 32.9758L22.2799 33.0314L22.3274 33.0864L22.3754 33.1411L22.4238 33.1951L22.4729 33.2487L22.5224 33.3017L22.5724 33.3542L22.6229 33.4061L22.674 33.4575L22.7255 33.5084L22.7775 33.5588L22.83 33.6086L22.8828 33.6578L22.9363 33.7065L22.9901 33.7545L23.0444 33.8021L23.0992 33.849L23.1544 33.8954L23.21 33.9413L23.2661 33.9864L23.3225 34.0311L23.3794 34.0751L23.4367 34.1186L23.4944 34.1615L23.5524 34.2037L23.6109 34.2453L23.6697 34.2864L23.729 34.3268L23.7886 34.3667L23.8485 34.4058L23.9088 34.4444L23.9695 34.4824L24.0305 34.5197L24.0918 34.5564L24.1535 34.5925L24.2154 34.6279L24.2777 34.6627L24.3402 34.6968L24.4032 34.7304L24.4664 34.7633L24.5298 34.7954L24.5936 34.827L24.6576 34.8579L24.7219 34.8882L24.7864 34.9178L24.8513 34.9468L24.9162 34.9751L24.9815 35.0027L25.047 35.0297L25.1128 35.0559L25.1787 35.0816L25.2449 35.1065L25.3112 35.1308L25.3778 35.1545L25.4445 35.1774L25.5114 35.1997L25.5785 35.2212L25.6458 35.2422L25.7132 35.2624L25.7808 35.282L25.8485 35.3009L25.9163 35.319L25.9843 35.3366L26.0524 35.3534L26.1206 35.3696L26.189 35.385L26.2574 35.3999L26.3259 35.414L26.3945 35.4273L26.4633 35.4401L26.532 35.4521L26.6009 35.4635L26.6697 35.4741L26.7387 35.4842L26.8077 35.4935L26.8767 35.5021L26.9457 35.51L27.0148 35.5173L27.0839 35.5238L27.153 35.5297L27.2222 35.5349L27.2913 35.5394L27.3603 35.5432L27.4294 35.5464L27.4985 35.5488L27.5675 35.5506L27.6365 35.5517L27.7054 35.5521L27.7743 35.5519L27.8431 35.5509L27.9119 35.5494L27.9805 35.5471L28.0491 35.5442L28.1176 35.5405L28.186 35.5362L28.2543 35.5313L28.3225 35.5256L28.3905 35.5193L28.4585 35.5124L28.5264 35.5047L28.5941 35.4965L28.6616 35.4875L28.729 35.478L28.7963 35.4677L28.8633 35.4568L28.9302 35.4453L28.997 35.433L29.0635 35.4202L29.1299 35.4068L29.1961 35.3926L29.262 35.3778L29.3277 35.3625L29.3933 35.3464L29.4586 35.3298L29.5237 35.3125L29.5886 35.2946L29.6532 35.276L29.7176 35.2569L29.7816 35.2371L29.8455 35.2167L29.9091 35.1957L29.9724 35.1741L30.0355 35.1519L30.0983 35.1291L30.1607 35.1057L30.2229 35.0817L30.2847 35.0571L30.3464 35.0319L30.4076 35.0062L30.4685 34.9799L30.5292 34.953L30.5894 34.9255L30.6494 34.8974L30.7091 34.8688L30.7682 34.8397L30.8273 34.8099L30.8858 34.7796L30.944 34.7487L31.0017 34.7174L31.0592 34.6855L31.1163 34.653L31.173 34.62L31.2293 34.5865L31.2852 34.5525L31.3407 34.5179L31.3959 34.4828L31.4505 34.4473L31.5048 34.4112L31.5587 34.3745L31.6121 34.3374L31.665 34.2999L31.7177 34.2618L31.7698 34.2233L31.8215 34.1843L31.8728 34.1447L31.9235 34.1048L31.9739 34.0643L32.0238 34.0234L32.0731 33.9821L32.1222 33.9402L32.1706 33.898L32.2185 33.8554L32.2662 33.8121L32.3131 33.7687L32.3597 33.7247L32.4057 33.6803L32.4512 33.6356L32.4963 33.5903L32.5409 33.5447L32.5849 33.4987L32.6283 33.4523L32.6714 33.4055L32.7139 33.3584L32.7558 33.3109L32.7973 33.2629L32.8382 33.2147L32.8785 33.1661L32.9184 33.117L32.9576 33.0678L32.9964 33.018L33.0346 32.9681L33.0723 32.9177L33.1094 32.867L33.1458 32.8161L33.1819 32.7647L33.2173 32.7132L33.2522 32.6613L33.2865 32.609L33.3201 32.5566L33.3534 32.5038L33.386 32.4507L33.418 32.3975L33.4494 32.3439L33.4803 32.2899L33.5105 32.236L33.5403 32.1815L33.5694 32.127L33.5978 32.0722L33.6258 32.017L33.6531 31.9619L33.6799 31.9062L33.7059 31.8507L33.7316 31.7946L33.7565 31.7387L33.7809 31.6822L33.8046 31.6258L33.8277 31.5692L33.8503 31.5123L33.8723 31.4552L33.8935 31.3982L33.9143 31.3407L33.9344 31.2833L33.9539 31.2257L33.9728 31.1679L33.9911 31.1099L34.0088 31.0519L34.0258 30.9938L34.0422 30.9355L34.058 30.8772L34.0733 30.8187L34.0878 30.7601L34.1018 30.7016L34.1152 30.6427L34.1279 30.5839L34.1401 30.525L34.1516 30.4662L34.1625 30.4072L34.1727 30.348L34.1824 30.289L34.1915 30.2298L34.1999 30.1706L34.2077 30.1115L34.2149 30.0523L34.2215 29.9929L34.2274 29.9339L34.2328 29.8745L34.2375 29.8152L34.2416 29.7561L34.2452 29.6969L34.248 29.6377L34.2503 29.5786L34.252 29.5193L34.253 29.4604L34.2535 29.4012L34.2533 29.3423L34.2526 29.2833L34.2512 29.2245L34.2492 29.1657L34.2467 29.1069L34.2435 29.0484L34.2397 28.9898L34.2353 28.9313L34.2304 28.8731L34.2248 28.8147L34.2186 28.7567L34.2119 28.6985L34.2045 28.6407L34.1966 28.5829L34.1881 28.5252L34.179 28.4677L34.1693 28.4104L34.1591 28.3532L34.1482 28.2962L34.1367 28.2392L34.1247 28.1825L34.1122 28.1261L34.0991 28.0697L34.0853 28.0134L34.0711 27.9576L34.0562 27.9016L34.0409 27.8461L34.0249 27.7907L34.0084 27.7356L33.9914 27.6806L33.9737 27.6258L33.9556 27.5714L33.9369 27.5171L33.9176 27.4629L33.8979 27.4092L33.8776 27.3557L33.8568 27.3024L33.8354 27.2493L33.8135 27.1965L33.7911 27.1441L33.7682 27.0918L33.7448 27.0399L33.7208 26.9883L33.6963 26.9368L33.6713 26.8856L33.6459 26.8349L33.6199 26.7843L33.5935 26.7342L33.5666 26.6844L33.5391 26.6347L33.5112 26.5856L33.4828 26.5366L33.4539 26.4881L33.4245 26.4397L33.3948 26.3919L33.3645 26.3442L33.3338 26.297L33.3026 26.2502L33.271 26.2037L33.2388 26.1574L33.2063 26.1116L33.1734 26.0663L33.14 26.0211L33.1062 25.9764L33.0719 25.9321L33.0373 25.8882L33.0021 25.8446L32.9666 25.8015L32.9307 25.7587L32.8944 25.7163L32.8577 25.6744L32.8205 25.6328L32.7831 25.5917L32.7452 25.5509L32.707 25.5107L32.6682 25.4706L32.6293 25.4312L32.5898 25.392L32.5501 25.3535L32.5101 25.3153L32.4696 25.2775L32.4288 25.2401L32.3876 25.2033L32.3462 25.1669L32.3042 25.1307L32.2623 25.0953L32.2197 25.0601L32.177 25.0255L32.1339 24.9914L32.0904 24.9575L32.0468 24.9243L32.0029 24.8916L31.9585 24.8592L31.9138 24.8272L31.8691 24.7959L31.8238 24.7649L31.7786 24.7346L31.7329 24.7046L31.6869 24.6751L31.6407 24.6461L31.5944 24.6176L31.5476 24.5895L31.5007 24.5621L31.4534 24.5349L31.4062 24.5085L31.3586 24.4824L31.3107 24.4568L31.2626 24.4317L31.2144 24.4073L31.166 24.3831L31.1172 24.3596L31.0685 24.3365L31.0196 24.314L30.9701 24.2919L30.9209 24.2704L30.8714 24.2494L30.8216 24.2288L30.7717 24.2088L30.7218 24.1894L30.6716 24.1704L30.6212 24.1519L30.5708 24.134L30.5202 24.1166L30.4694 24.0996L30.4187 24.0833L30.3678 24.0674L30.3168 24.0521L30.2655 24.0372L30.2143 24.0229L30.163 24.0091L30.1116 23.9958L30.0601 23.9831L30.0084 23.9708L29.9568 23.9591L29.9052 23.948L29.8533 23.9373L29.8014 23.9271L29.7497 23.9175L29.6977 23.9084L29.6458 23.8998L29.5937 23.8917L29.5418 23.8842L29.4896 23.8772L29.4377 23.8707L29.3856 23.8647L29.3335 23.8593L29.2815 23.8544L29.2293 23.8499L29.1774 23.846L29.1252 23.8427L29.0733 23.8398L29.0214 23.8374L28.9692 23.8356L28.9175 23.8343L28.8656 23.8335L28.8138 23.8332L28.7784 23.8333L28.8053 26.0985L28.8213 26.0986L28.851 26.099L28.8809 26.0997L28.9107 26.1007L28.9406 26.1021L28.9706 26.1037L29.0005 26.1056L29.0305 26.1079L29.0605 26.1105L29.0906 26.1134L29.1206 26.1165L29.1507 26.12L29.1808 26.1239L29.2109 26.128L29.241 26.1324L29.2711 26.1372L29.3012 26.1423L29.3313 26.1477L29.3614 26.1535L29.3915 26.1595L29.4215 26.1659L29.4516 26.1726L29.4816 26.1796L29.5116 26.1869L29.5416 26.1945L29.5715 26.2025L29.6014 26.2108L29.6313 26.2194L29.6611 26.2283L29.6909 26.2376L29.7206 26.2472L29.7503 26.2571L29.7798 26.2673L29.8094 26.2778L29.8389 26.2886L29.8683 26.2998L29.8976 26.3112L29.9269 26.3231L29.9561 26.3352L29.9852 26.3476L30.0142 26.3604L30.0431 26.3735L30.072 26.3868L30.1007 26.4006L30.1293 26.4146L30.1579 26.4289L30.1863 26.4436L30.2146 26.4585L30.2428 26.4738L30.2709 26.4894L30.2988 26.5053L30.3267 26.5215L30.3543 26.538L30.3819 26.5549L30.4094 26.5721L30.4367 26.5895L30.4638 26.6072L30.4908 26.6253L30.5177 26.6437L30.5444 26.6624L30.5709 26.6813L30.5973 26.7006L30.6235 26.7201L30.6495 26.74L30.6754 26.7602L30.7011 26.7806L30.7266 26.8014L30.752 26.8224L30.7772 26.8437L30.8021 26.8653L30.8269 26.8872L30.8515 26.9094L30.8759 26.9319L30.9 26.9547L30.924 26.9777L30.9478 27.0011L30.9713 27.0246L30.9947 27.0485L31.0178 27.0726L31.0407 27.0971L31.0634 27.1218L31.0858 27.1467L31.1081 27.1719L31.13 27.1974L31.1517 27.2232L31.1733 27.2492L31.1945 27.2754L31.2155 27.302L31.2363 27.3287L31.2568 27.3558L31.2771 27.383L31.2971 27.4106L31.3167 27.4383L31.3362 27.4663L31.3554 27.4946L31.3743 27.5231L31.393 27.5517L31.4114 27.5807L31.4295 27.6099L31.4473 27.6393L31.4648 27.6689L31.482 27.6987L31.499 27.7288L31.5156 27.7591L31.532 27.7896L31.5481 27.8203L31.5638 27.8512L31.5793 27.8823L31.5944 27.9136L31.6092 27.9452L31.6238 27.9768L31.638 28.0088L31.6519 28.0409L31.6655 28.0731L31.6787 28.1056L31.6916 28.1382L31.7042 28.1711L31.7165 28.2041L31.7285 28.2372L31.74 28.2706L31.7513 28.3041L31.7622 28.3377L31.7728 28.3716L31.7831 28.4055L31.793 28.4397L31.8025 28.474L31.8117 28.5084L31.8206 28.5429L31.8291 28.5777L31.8372 28.6125L31.845 28.6475L31.8525 28.6826L31.8596 28.7178L31.8662 28.7531L31.8726 28.7886L31.8786 28.8242L31.8842 28.8599L31.8894 28.8957L31.8943 28.9316L31.8988 28.9676L31.9029 29.0037L31.9067 29.0399L31.9101 29.0761L31.9131 29.1125L31.9157 29.1489L31.9179 29.1854L31.9198 29.222L31.9212 29.2587L31.9224 29.2954L31.923 29.3322L31.9234 29.369L31.9233 29.4059L31.9229 29.4428L31.922 29.4798L31.9208 29.5169L31.9191 29.5539L31.9171 29.591L31.9147 29.6282L31.9119 29.6653L31.9086 29.7025L31.905 29.7397L31.9011 29.7769L31.8966 29.8141L31.8918 29.8514L31.8867 29.8886L31.8811 29.9258L31.8751 29.963L31.8687 30.0002L31.8619 30.0374L31.8547 30.0746L31.8471 30.1118L31.8391 30.1489L31.8307 30.186L31.8219 30.2231L31.8127 30.2601L31.8031 30.2971L31.7931 30.334L31.7827 30.3709L31.7719 30.4077L31.7607 30.4445L31.7491 30.4812L31.7371 30.5178L31.7247 30.5544L31.7119 30.5909L31.6986 30.6272L31.685 30.6636L31.671 30.6998L31.6566 30.7359L31.6418 30.7719L31.6266 30.8079L31.611 30.8437L31.595 30.8795L31.5786 30.915L31.5618 30.9505L31.5446 30.9859L31.5271 31.0211L31.5091 31.0562L31.4907 31.0912L31.472 31.126L31.4528 31.1607L31.4333 31.1952L31.4134 31.2296L31.3931 31.2639L31.3724 31.2979L31.3513 31.3319L31.3299 31.3656L31.308 31.3991L31.2858 31.4325L31.2632 31.4657L31.2402 31.4988L31.2169 31.5316L31.1931 31.5642L31.1691 31.5967L31.1446 31.6289L31.1198 31.661L31.0946 31.6928L31.069 31.7244L31.0431 31.7558L31.0168 31.787L30.9902 31.818L30.9631 31.8487L30.9357 31.8792L30.908 31.9095L30.8799 31.9395L30.8516 31.9692L30.8228 31.9988L30.7937 32.0281L30.7642 32.0571L30.7344 32.0859L30.7043 32.1144L30.6738 32.1426L30.643 32.1705L30.6119 32.1983L30.5804 32.2257L30.5486 32.2528L30.5165 32.2796L30.4841 32.3062L30.4513 32.3325L30.4182 32.3584L30.3849 32.3841L30.3512 32.4095L30.3172 32.4345L30.2829 32.4593L30.2483 32.4837L30.2135 32.5079L30.1782 32.5316L30.1428 32.5551L30.107 32.5782L30.071 32.6011L30.0346 32.6236L29.998 32.6457L29.9611 32.6675L29.924 32.689L29.8865 32.7101L29.8488 32.7309L29.8109 32.7513L29.7726 32.7714L29.7342 32.7911L29.6954 32.8104L29.6565 32.8295L29.6172 32.8481L29.5778 32.8663L29.5381 32.8842L29.4981 32.9016L29.458 32.9188L29.4176 32.9355L29.377 32.9519L29.3361 32.9678L29.2951 32.9834L29.2538 32.9986L29.2124 33.0134L29.1707 33.0278L29.1288 33.0418L29.0868 33.0554L29.0445 33.0686L29.0021 33.0813L28.9595 33.0938L28.9167 33.1057L28.8737 33.1173L28.8306 33.1284L28.7873 33.1391L28.7438 33.1494L28.7001 33.1593L28.6563 33.1687L28.6124 33.1778L28.5683 33.1863L28.5241 33.1945L28.4798 33.2022L28.4352 33.2096L28.3907 33.2164L28.3459 33.2228L28.3011 33.2288L28.2561 33.2344L28.211 33.2395L28.1658 33.2441L28.1205 33.2484L28.0752 33.2521L28.0297 33.2555L27.9841 33.2583L27.9385 33.2607L27.8928 33.2627L27.847 33.2642L27.8011 33.2652L27.7552 33.2658L27.7092 33.266L27.6632 33.2657L27.6171 33.2649L27.571 33.2637L27.5249 33.262L27.4787 33.2598L27.4324 33.2572L27.3861 33.2541L27.3399 33.2506L27.2936 33.2466L27.2473 33.2421L27.201 33.2372L27.1547 33.2317L27.1085 33.2258L27.0621 33.2195L27.0159 33.2127L26.9696 33.2054L26.9234 33.1976L26.8772 33.1894L26.8311 33.1807L26.7849 33.1716L26.7389 33.1619L26.6928 33.1518L26.6469 33.1412L26.601 33.1302L26.5551 33.1187L26.5093 33.1067L26.4636 33.0942L26.418 33.0813L26.3725 33.068L26.327 33.0541L26.2817 33.0398L26.2364 33.025L26.1912 33.0098L26.1462 32.994L26.1013 32.9778L26.0565 32.9612L26.0118 32.9441L25.9673 32.9265L25.9229 32.9084L25.8786 32.8899L25.8345 32.871L25.7905 32.8515L25.7466 32.8317L25.703 32.8113L25.6595 32.7905L25.6161 32.7693L25.573 32.7476L25.53 32.7254L25.4873 32.7028L25.4447 32.6798L25.4022 32.6562L25.3601 32.6323L25.318 32.6079L25.2762 32.583L25.2347 32.5578L25.1933 32.532L25.1522 32.5059L25.1112 32.4793L25.0706 32.4522L25.0301 32.4248L24.99 32.3969L24.95 32.3685L24.9103 32.3398L24.8709 32.3106L24.8317 32.281L24.7928 32.251L24.7542 32.2205L24.7158 32.1897L24.6777 32.1584L24.6399 32.1267L24.6024 32.0946L24.5652 32.0621L24.5283 32.0292L24.4917 31.9959L24.4554 31.9622L24.4194 31.9281L24.3838 31.8936L24.3484 31.8588L24.3134 31.8235L24.2787 31.7879L24.2444 31.7518L24.2103 31.7154L24.1767 31.6786L24.1434 31.6415L24.1104 31.604L24.0778 31.566L24.0455 31.5278L24.0136 31.4892L23.9821 31.4502L23.951 31.4109L23.9202 31.3712L23.8898 31.3312L23.8598 31.2908L23.8302 31.2501L23.801 31.2091L23.7721 31.1677L23.7437 31.126L23.7156 31.084L23.688 31.0416L23.6609 30.999L23.634 30.956L23.6077 30.9128L23.5817 30.8691L23.5562 30.8253L23.5311 30.7811L23.5065 30.7366L23.4822 30.6918L23.4585 30.6468L23.4351 30.6014L23.4122 30.5558L23.3898 30.51L23.3678 30.4638L23.3463 30.4174L23.3252 30.3707L23.3046 30.3238L23.2845 30.2766L23.2648 30.2292L23.2456 30.1815L23.2269 30.1336L23.2086 30.0854L23.1909 30.0371L23.1737 29.9885L23.1569 29.9397L23.1405 29.8907L23.1248 29.8414L23.1095 29.792L23.0946 29.7423L23.0803 29.6925L23.0665 29.6424L23.0532 29.5922L23.0404 29.5418L23.0282 29.4912L23.0164 29.4405L23.0051 29.3896L22.9944 29.3385L22.9842 29.2873L22.9745 29.2359L22.9653 29.1844L22.9566 29.1327L22.9485 29.081L22.9409 29.029L22.9338 28.977L22.9274 28.9248L22.9214 28.8725L22.9159 28.8201L22.911 28.7676L22.9066 28.715L22.9028 28.6623L22.8995 28.6095L22.8967 28.5566L22.8945 28.5037L22.8928 28.4507L22.8917 28.3976L22.8912 28.3445L22.8911 28.2912L22.8917 28.238L22.8928 28.1847L22.8944 28.1313L22.8966 28.0779L22.8994 28.0245L22.9027 27.9711L22.9065 27.9177L22.911 27.8642L22.916 27.8108L22.9215 27.7573L22.9276 27.7038L22.9343 27.6504L22.9415 27.597L22.9493 27.5436L22.9576 27.4902L22.9665 27.4368L22.976 27.3835L22.986 27.3302L22.9966 27.277L23.0078 27.2238L23.0195 27.1707L23.0317 27.1177L23.0445 27.0648L23.0579 27.0119L23.0719 26.9591L23.0864 26.9064L23.1015 26.8538L23.1171 26.8012L23.1333 26.7488L23.15 26.6965L23.1673 26.6443L23.1852 26.5923L23.2036 26.5403L23.2226 26.4885L23.2421 26.4369L23.2622 26.3854L23.2828 26.334L23.304 26.2828L23.3257 26.2318L23.348 26.1809L23.3708 26.1302L23.3942 26.0797L23.4181 26.0294L23.4425 25.9793L23.4675 25.9293L23.493 25.8795L23.5191 25.83L23.5457 25.7807L23.5729 25.7316L23.6006 25.6827L23.6288 25.6341L23.6575 25.5857L23.6868 25.5375L23.7165 25.4896L23.7469 25.442L23.7777 25.3945L23.8091 25.3473L23.8409 25.3005L23.8733 25.2539L23.9062 25.2075L23.9396 25.1615L23.9735 25.1157L24.0079 25.0703L24.0428 25.0251L24.0782 24.9803L24.1142 24.9357L24.1506 24.8915L24.1874 24.8476L24.2248 24.804L24.2627 24.7607L24.301 24.7178L24.3398 24.6752L24.3791 24.633L24.4189 24.5912L24.4592 24.5496L24.4998 24.5085L24.541 24.4677L24.5826 24.4272L24.6247 24.3872L24.6672 24.3476L24.7102 24.3083L24.7536 24.2694L24.7974 24.2309L24.8418 24.1928L24.8865 24.1551L24.9317 24.1178L24.9772 24.081L25.0232 24.0445L25.0696 24.0085L25.1165 23.9729L25.1637 23.9378L25.2113 23.903L25.2594 23.8688L25.3078 23.8349L25.3566 23.8015L25.4059 23.7686L25.4555 23.7361L25.5054 23.7041L25.5558 23.6726L25.6065 23.6415L25.6577 23.6109L25.7091 23.5808L25.7609 23.5511L25.8131 23.522L25.8656 23.4933L25.9184 23.4651L25.9716 23.4375L26.0251 23.4103L26.0789 23.3837L26.1331 23.3575L26.1876 23.3319L26.2424 23.3067L26.2974 23.2821L26.3528 23.2581L26.4086 23.2345L26.4645 23.2115L26.5208 23.189L26.5773 23.1671L26.6342 23.1456L26.6912 23.1248L26.7486 23.1045L26.8062 23.0847L26.8641 23.0655L26.9222 23.0468L26.9805 23.0287L27.0392 23.0112L27.098 22.9942L27.157 22.9778L27.2163 22.962L27.2757 22.9467L27.3354 22.932L27.3953 22.9179L27.4554 22.9044L27.5157 22.8914L27.5762 22.8791L27.6368 22.8673L27.6672 22.8617ZM28.4123 27.2178L27.7208 27.3831L27.6801 23.9574L27.6476 23.9647L27.5985 23.9763L27.5495 23.9883L27.5008 24.0008L27.4522 24.0138L27.4039 24.0272L27.3556 24.0412L27.3078 24.0555L27.2598 24.0704L27.2125 24.0855L27.165 24.1013L27.1179 24.1175L27.071 24.1341L27.0242 24.1512L26.9779 24.1686L26.9316 24.1866L26.8856 24.205L26.8399 24.2238L26.7942 24.2431L26.7492 24.2627L26.7041 24.2828L26.6595 24.3033L26.6149 24.3243L26.5707 24.3456L26.5267 24.3674L26.4831 24.3895L26.4398 24.4121L26.3967 24.435L26.3539 24.4584L26.3114 24.4821L26.2691 24.5063L26.2274 24.5308L26.1855 24.5558L26.1443 24.5811L26.1033 24.6068L26.0627 24.6328L26.0222 24.6593L25.9822 24.6861L25.9425 24.7133L25.9031 24.7407L25.8641 24.7686L25.8252 24.7968L25.7868 24.8255L25.7488 24.8544L25.7111 24.8837L25.6737 24.9132L25.6368 24.9431L25.6001 24.9734L25.5637 25.0041L25.5278 25.0349L25.4922 25.0662L25.457 25.0977L25.4222 25.1295L25.3877 25.1618L25.3536 25.1942L25.3199 25.2269L25.2864 25.26L25.2535 25.2933L25.2209 25.327L25.1888 25.3608L25.1568 25.3952L25.1255 25.4295L25.0944 25.4643L25.0638 25.4993L25.0336 25.5345L25.0037 25.5701L24.9744 25.6057L24.9453 25.6418L24.9167 25.678L24.8885 25.7145L24.8607 25.7513L24.8333 25.7882L24.8063 25.8254L24.7798 25.8627L24.7536 25.9004L24.7279 25.9382L24.7026 25.9763L24.6778 26.0145L24.6534 26.0529L24.6293 26.0916L24.6058 26.1303L24.5826 26.1695L24.5599 26.2085L24.5376 26.2479L24.5157 26.2875L24.4943 26.3271L24.4733 26.367L24.4528 26.407L24.4326 26.4473L24.413 26.4875L24.3938 26.528L24.375 26.5686L24.3567 26.6093L24.3387 26.6502L24.3213 26.6912L24.3043 26.7323L24.2877 26.7735L24.2717 26.8149L24.2559 26.8563L24.2408 26.8978L24.226 26.9395L24.2117 26.9813L24.1978 27.0231L24.1844 27.065L24.1714 27.107L24.1589 27.1491L24.1469 27.1911L24.1352 27.2334L24.124 27.2757L24.1133 27.318L24.1031 27.3603L24.0932 27.4028L24.0839 27.4452L24.075 27.4878L24.0665 27.5303L24.0585 27.5728L24.0509 27.6155L24.0438 27.658L24.0372 27.7006L24.0309 27.7433L24.0252 27.7859L24.0199 27.8286L24.015 27.8711L24.0106 27.9138L24.0066 27.9565L24.0031 27.999L24 28.0416L23.9974 28.0842L23.9952 28.1267L23.9934 28.1692L23.9921 28.2116L23.9913 28.2541L23.9908 28.2965L23.9909 28.3388L23.9913 28.381L23.9922 28.4232L23.9935 28.4654L23.9952 28.5074L23.9974 28.5494L24 28.5913L24.0031 28.6331L24.0066 28.6749L24.0105 28.7165L24.0148 28.7582L24.0195 28.7995L24.0247 28.841L24.0303 28.8821L24.0363 28.9233L24.0428 28.9643L24.0496 29.0052L24.0569 29.0461L24.0645 29.0867L24.0726 29.1273L24.0811 29.1676L24.09 29.2079L24.0993 29.248L24.1091 29.288L24.1191 29.3277L24.1297 29.3675L24.1406 29.4069L24.1518 29.4464L24.1635 29.4855L24.1756 29.5245L24.1881 29.5634L24.2009 29.6019L24.2142 29.6405L24.2278 29.6788L24.2418 29.7168L24.2561 29.7548L24.2709 29.7926L24.286 29.8301L24.3015 29.8674L24.3173 29.9045L24.3335 29.9414L24.3501 29.9781L24.367 30.0146L24.3843 30.0509L24.4019 30.0869L24.4199 30.1228L24.4382 30.1583L24.4568 30.1937L24.4758 30.2288L24.4952 30.2637L24.5149 30.2984L24.5349 30.3328L24.5552 30.3669L24.5759 30.4008L24.5969 30.4345L24.6182 30.4679L24.6398 30.501L24.6617 30.5339L24.684 30.5666L24.7065 30.5988L24.7293 30.631L24.7525 30.6628L24.7759 30.6943L24.7997 30.7256L24.8237 30.7566L24.848 30.7872L24.8726 30.8177L24.8975 30.8478L24.9226 30.8776L24.9481 30.9072L24.9738 30.9365L24.9997 30.9654L25.026 30.9941L25.0524 31.0223L25.0792 31.0505L25.1062 31.0782L25.1334 31.1056L25.1609 31.1327L25.1886 31.1595L25.2166 31.1861L25.2448 31.2122L25.2732 31.2381L25.3019 31.2636L25.3308 31.2888L25.3599 31.3137L25.3892 31.3383L25.4187 31.3626L25.4484 31.3865L25.4784 31.4101L25.5085 31.4333L25.5389 31.4562L25.5694 31.4789L25.6001 31.5011L25.631 31.523L25.6621 31.5446L25.6934 31.5659L25.7248 31.5867L25.7564 31.6073L25.7881 31.6275L25.8201 31.6474L25.8522 31.6668L25.8844 31.686L25.9169 31.7049L25.9493 31.7233L25.982 31.7414L26.0149 31.7592L26.0478 31.7766L26.0809 31.7937L26.1141 31.8104L26.1475 31.8267L26.1809 31.8427L26.2145 31.8584L26.2482 31.8737L26.2819 31.8885L26.3159 31.9031L26.3499 31.9173L26.3839 31.9312L26.4181 31.9447L26.4524 31.9578L26.4868 31.9706L26.5211 31.983L26.5557 31.995L26.5902 32.0067L26.6249 32.018L26.6596 32.029L26.6944 32.0396L26.7292 32.0498L26.7641 32.0597L26.799 32.0692L26.834 32.0784L26.869 32.0871L26.904 32.0956L26.9391 32.1036L26.9742 32.1113L27.0093 32.1187L27.0445 32.1257L27.0797 32.1323L27.1148 32.1386L27.15 32.1445L27.1853 32.15L27.2205 32.1552L27.2556 32.16L27.2908 32.1645L27.326 32.1686L27.3612 32.1724L27.3963 32.1758L27.4315 32.1788L27.4666 32.1815L27.5016 32.1839L27.5367 32.1858L27.5717 32.1875L27.6066 32.1888L27.6417 32.1897L27.6765 32.1903L27.7113 32.1905L27.7461 32.1904L27.7808 32.19L27.8155 32.1891L27.8501 32.188L27.8846 32.1866L27.919 32.1847L27.9535 32.1825L27.9877 32.18L28.022 32.1772L28.056 32.174L28.0901 32.1705L28.1241 32.1666L28.1579 32.1625L28.1917 32.158L28.2253 32.1531L28.2588 32.148L28.2923 32.1425L28.3256 32.1367L28.3588 32.1306L28.3919 32.1241L28.4249 32.1173L28.4577 32.1102L28.4903 32.1029L28.523 32.0951L28.5554 32.0871L28.5877 32.0788L28.6199 32.0702L28.6518 32.0612L28.6838 32.0519L28.7155 32.0424L28.7469 32.0325L28.7785 32.0223L28.8097 32.0119L28.8408 32.0012L28.8717 31.9902L28.9024 31.9788L28.9331 31.9672L28.9635 31.9553L28.9937 31.9431L29.0237 31.9307L29.0536 31.9179L29.0834 31.9049L29.1128 31.8917L29.1422 31.8781L29.1713 31.8643L29.2001 31.8502L29.2289 31.8359L29.2574 31.8213L29.2857 31.8064L29.3139 31.7912L29.3418 31.7759L29.3694 31.7603L29.397 31.7444L29.4243 31.7282L29.4513 31.7118L29.4781 31.6952L29.5047 31.6784L29.5311 31.6613L29.5574 31.644L29.5833 31.6265L29.609 31.6086L29.6345 31.5906L29.6597 31.5725L29.6847 31.554L29.7095 31.5353L29.7341 31.5164L29.7584 31.4973L29.7825 31.478L29.8062 31.4586L29.8298 31.4389L29.8531 31.419L29.8761 31.3989L29.899 31.3786L29.9216 31.3581L29.9439 31.3374L29.9658 31.3166L29.9877 31.2956L30.0092 31.2743L30.0305 31.253L30.0515 31.2314L30.0722 31.2096L30.0927 31.1878L30.113 31.1657L30.1328 31.1435L30.1526 31.1211L30.1719 31.0985L30.191 31.0759L30.21 31.053L30.2285 31.0301L30.2468 31.0069L30.2649 30.9837L30.2826 30.9603L30.3001 30.9367L30.3173 30.9131L30.3342 30.8892L30.3509 30.8653L30.3672 30.8414L30.3833 30.8171L30.3991 30.7929L30.4145 30.7685L30.4298 30.744L30.4447 30.7194L30.4593 30.6947L30.4737 30.6699L30.4878 30.645L30.5016 30.6201L30.5151 30.5949L30.5283 30.5699L30.5412 30.5446L30.5538 30.5193L30.5662 30.4939L30.5783 30.4683L30.59 30.4428L30.6015 30.4172L30.6126 30.3916L30.6236 30.3658L30.6341 30.3401L30.6445 30.3141L30.6545 30.2883L30.6642 30.2622L30.6736 30.2364L30.6828 30.2103L30.6917 30.1841L30.7002 30.1581L30.7085 30.1319L30.7164 30.1058L30.7242 30.0794L30.7315 30.0534L30.7387 30.0269L30.7455 30.0009L30.752 29.9745L30.7583 29.9481L30.7642 29.9219L30.7698 29.8957L30.7752 29.8692L30.7803 29.843L30.7851 29.8165L30.7896 29.7903L30.7939 29.7641L30.7979 29.7377L30.8015 29.7114L30.8049 29.6851L30.808 29.6589L30.8108 29.6328L30.8133 29.6065L30.8156 29.5804L30.8176 29.5542L30.8193 29.5281L30.8207 29.5021L30.8219 29.4761L30.8227 29.4503L30.8233 29.4242L30.8237 29.3982L30.8237 29.3725L30.8235 29.3468L30.823 29.3211L30.8222 29.2955L30.8212 29.2697L30.8199 29.2445L30.8183 29.2187L30.8165 29.1935L30.8144 29.1683L30.8121 29.1428L30.8094 29.1177L30.8066 29.0928L30.8034 29.0675L30.8001 29.0428L30.7964 29.0179L30.7926 28.9934L30.7884 28.9686L30.784 28.944L30.7794 28.9196L30.7745 28.8953L30.7694 28.871L30.764 28.8469L30.7584 28.8228L30.7525 28.799L30.7464 28.7753L30.74 28.7514L30.7335 28.728L30.7267 28.7043L30.7197 28.6811L30.7124 28.6579L30.7049 28.6349L30.6972 28.6119L30.6892 28.589L30.6811 28.5664L30.6727 28.5439L30.6641 28.5213L30.6552 28.4991L30.6462 28.4768L30.637 28.455L30.6275 28.433L30.6179 28.4114L30.608 28.3899L30.5979 28.3684L30.5876 28.3472L30.5771 28.326L30.5664 28.305L30.5556 28.2843L30.5445 28.2636L30.5333 28.2432L30.5218 28.2228L30.5101 28.2027L30.4983 28.1827L30.4863 28.1629L30.4741 28.1432L30.4617 28.1238L30.4492 28.1045L30.4365 28.0853L30.4236 28.0663L30.4106 28.0476L30.3973 28.0289L30.3839 28.0105L30.3704 27.9923L30.3566 27.9742L30.3428 27.9563L30.3287 27.9386L30.3146 27.9211L30.3002 27.9038L30.2858 27.8866L30.2711 27.8696L30.2564 27.8529L30.2415 27.8363L30.2264 27.8199L30.2112 27.8037L30.1959 27.7877L30.1805 27.7719L30.1649 27.7563L30.1492 27.7409L30.1334 27.7257L30.1175 27.7107L30.1013 27.6959L30.0852 27.6813L30.0689 27.6668L30.0525 27.6527L30.0359 27.6386L30.0193 27.6249L30.0026 27.6113L29.9858 27.5979L29.9688 27.5847L29.9518 27.5717L29.9347 27.5589L29.9175 27.5463L29.9001 27.534L29.8828 27.5219L29.8653 27.5099L29.8478 27.4982L29.8302 27.4866L29.8124 27.4753L29.7947 27.4642L29.7768 27.4533L29.7589 27.4426L29.741 27.4322L29.7229 27.4219L29.7047 27.4118L29.6866 27.402L29.6684 27.3923L29.6501 27.3829L29.6319 27.3737L29.6134 27.3647L29.595 27.3559L29.5766 27.3474L29.5581 27.339L29.5395 27.3308L29.5209 27.3228L29.5024 27.3152L29.4837 27.3077L29.465 27.3003L29.4463 27.2933L29.4276 27.2864L29.4089 27.2797L29.3901 27.2732L29.3713 27.2669L29.3526 27.2609L29.3337 27.255L29.3149 27.2494L29.2962 27.244L29.2772 27.2388L29.2585 27.2338L29.2397 27.229L29.2208 27.2244L29.202 27.22L29.1832 27.2158L29.1644 27.2118L29.1456 27.2081L29.1269 27.2045L29.1081 27.2011L29.0893 27.1979L29.0707 27.195L29.0519 27.1922L29.0333 27.1896L29.0146 27.1872L28.996 27.1851L28.9775 27.1831L28.9589 27.1814L28.9404 27.1797L28.922 27.1784L28.9035 27.1772L28.8851 27.1761L28.8668 27.1754L28.8486 27.1748L28.8303 27.1743L28.8121 27.174L28.7939 27.174L28.7759 27.1742L28.7578 27.1745L28.7399 27.1749L28.7219 27.1757L28.7042 27.1765L28.6863 27.1776L28.6686 27.1788L28.651 27.1802L28.6334 27.1818L28.616 27.1835L28.5984 27.1854L28.5812 27.1875L28.5639 27.1898L28.5467 27.1923L28.5296 27.1949L28.5126 27.1977L28.4956 27.2006L28.4789 27.2037L28.462 27.207L28.4454 27.2105L28.4288 27.2141L28.4123 27.2178Z" fill="#94A3B8"/>
<path d="M52.6045 30.6514C52.6045 30.4229 52.5693 30.2178 52.499 30.0361C52.4346 29.8486 52.3115 29.6787 52.1299 29.5264C51.9482 29.3682 51.6934 29.2129 51.3652 29.0605C51.0371 28.9082 50.6123 28.75 50.0908 28.5859C49.5107 28.3984 48.96 28.1875 48.4385 27.9531C47.9229 27.7188 47.4658 27.4463 47.0674 27.1357C46.6748 26.8193 46.3643 26.4531 46.1357 26.0371C45.9131 25.6211 45.8018 25.1377 45.8018 24.5869C45.8018 24.0537 45.9189 23.5703 46.1533 23.1367C46.3877 22.6973 46.7158 22.3223 47.1377 22.0117C47.5596 21.6953 48.0576 21.4521 48.6318 21.2822C49.2119 21.1123 49.8477 21.0273 50.5391 21.0273C51.4824 21.0273 52.3057 21.1973 53.0088 21.5371C53.7119 21.877 54.2568 22.3428 54.6436 22.9346C55.0361 23.5264 55.2324 24.2031 55.2324 24.9648H52.6133C52.6133 24.5898 52.5342 24.2617 52.376 23.9805C52.2236 23.6934 51.9893 23.4678 51.6729 23.3037C51.3623 23.1396 50.9697 23.0576 50.4951 23.0576C50.0381 23.0576 49.6572 23.1279 49.3525 23.2686C49.0479 23.4033 48.8193 23.5879 48.667 23.8223C48.5146 24.0508 48.4385 24.3086 48.4385 24.5957C48.4385 24.8125 48.4912 25.0088 48.5967 25.1846C48.708 25.3604 48.8721 25.5244 49.0889 25.6768C49.3057 25.8291 49.5723 25.9727 49.8887 26.1074C50.2051 26.2422 50.5713 26.374 50.9873 26.5029C51.6846 26.7139 52.2969 26.9512 52.8242 27.2148C53.3574 27.4785 53.8027 27.7744 54.1602 28.1025C54.5176 28.4307 54.7871 28.8027 54.9687 29.2188C55.1504 29.6348 55.2412 30.1064 55.2412 30.6338C55.2412 31.1904 55.1328 31.6885 54.916 32.1279C54.6992 32.5674 54.3857 32.9395 53.9756 33.2441C53.5654 33.5488 53.0762 33.7803 52.5078 33.9385C51.9395 34.0967 51.3037 34.1758 50.6006 34.1758C49.9678 34.1758 49.3437 34.0937 48.7285 33.9297C48.1133 33.7598 47.5537 33.5049 47.0498 33.165C46.5518 32.8252 46.1533 32.3916 45.8545 31.8643C45.5557 31.3369 45.4062 30.7129 45.4062 29.9922H48.0518C48.0518 30.3906 48.1133 30.7275 48.2363 31.0029C48.3594 31.2783 48.5322 31.501 48.7549 31.6709C48.9834 31.8408 49.2529 31.9639 49.5635 32.04C49.8799 32.1162 50.2256 32.1543 50.6006 32.1543C51.0576 32.1543 51.4326 32.0898 51.7256 31.9609C52.0244 31.832 52.2441 31.6533 52.3848 31.4248C52.5312 31.1963 52.6045 30.9385 52.6045 30.6514ZM65.5684 26.415V28.4717H58.8887V26.415H65.5684ZM59.6709 21.2031V34H57.0342V21.2031H59.6709ZM67.4492 21.2031V34H64.8213V21.2031H67.4492ZM78.3301 31.9434V34H71.5186V31.9434H78.3301ZM72.3799 21.2031V34H69.7432V21.2031H72.3799ZM77.4424 26.415V28.4189H71.5186V26.415H77.4424ZM78.3213 21.2031V23.2686H71.5186V21.2031H78.3213ZM88.0947 31.9434V34H81.6523V31.9434H88.0947ZM82.5049 21.2031V34H79.8682V21.2031H82.5049ZM97.833 31.9434V34H91.3906V31.9434H97.833ZM92.2432 21.2031V34H89.6064V21.2031H92.2432ZM106.007 30.6514C106.007 30.4229 105.972 30.2178 105.901 30.0361C105.837 29.8486 105.714 29.6787 105.532 29.5264C105.351 29.3682 105.096 29.2129 104.768 29.0605C104.439 28.9082 104.015 28.75 103.493 28.5859C102.913 28.3984 102.362 28.1875 101.841 27.9531C101.325 27.7188 100.868 27.4463 100.47 27.1357C100.077 26.8193 99.7666 26.4531 99.5381 26.0371C99.3154 25.6211 99.2041 25.1377 99.2041 24.5869C99.2041 24.0537 99.3213 23.5703 99.5557 23.1367C99.79 22.6973 100.118 22.3223 100.54 22.0117C100.962 21.6953 101.46 21.4521 102.034 21.2822C102.614 21.1123 103.25 21.0273 103.941 21.0273C104.885 21.0273 105.708 21.1973 106.411 21.5371C107.114 21.877 107.659 22.3428 108.046 22.9346C108.438 23.5264 108.635 24.2031 108.635 24.9648H106.016C106.016 24.5898 105.937 24.2617 105.778 23.9805C105.626 23.6934 105.392 23.4678 105.075 23.3037C104.765 23.1396 104.372 23.0576 103.897 23.0576C103.44 23.0576 103.06 23.1279 102.755 23.2686C102.45 23.4033 102.222 23.5879 102.069 23.8223C101.917 24.0508 101.841 24.3086 101.841 24.5957C101.841 24.8125 101.894 25.0088 101.999 25.1846C102.11 25.3604 102.274 25.5244 102.491 25.6768C102.708 25.8291 102.975 25.9727 103.291 26.1074C103.607 26.2422 103.974 26.374 104.39 26.5029C105.087 26.7139 105.699 26.9512 106.227 27.2148C106.76 27.4785 107.205 27.7744 107.562 28.1025C107.92 28.4307 108.189 28.8027 108.371 29.2188C108.553 29.6348 108.644 30.1064 108.644 30.6338C108.644 31.1904 108.535 31.6885 108.318 32.1279C108.102 32.5674 107.788 32.9395 107.378 33.2441C106.968 33.5488 106.479 33.7803 105.91 33.9385C105.342 34.0967 104.706 34.1758 104.003 34.1758C103.37 34.1758 102.746 34.0937 102.131 33.9297C101.516 33.7598 100.956 33.5049 100.452 33.165C99.9541 32.8252 99.5557 32.3916 99.2568 31.8643C98.958 31.3369 98.8086 30.7129 98.8086 29.9922H101.454C101.454 30.3906 101.516 30.7275 101.639 31.0029C101.762 31.2783 101.935 31.501 102.157 31.6709C102.386 31.8408 102.655 31.9639 102.966 32.04C103.282 32.1162 103.628 32.1543 104.003 32.1543C104.46 32.1543 104.835 32.0898 105.128 31.9609C105.427 31.832 105.646 31.6533 105.787 31.4248C105.934 31.1963 106.007 30.9385 106.007 30.6514Z" fill="#94A3B8"/>
<path d="M172.045 35.8633L155.985 24.7855C154.358 23.663 154.911 21.3257 156.941 20.776L174.009 16.1435C174.371 16.013 174.758 15.9707 175.139 16.0199C175.52 16.0692 175.884 16.2087 176.201 16.4268C176.517 16.6449 176.777 16.9354 176.959 17.2741C177.141 17.6128 177.239 17.9899 177.246 18.3743L176.234 34.0837C176.114 35.9484 173.672 36.9859 172.045 35.8633Z" fill="#94A3B8"/>
<path d="M166.951 38.5978L157.49 20.0954C157.274 19.6721 157.179 19.1973 157.215 18.7234C157.252 18.2495 157.418 17.7948 157.697 17.4095C157.975 17.0243 158.354 16.7234 158.793 16.5401C159.231 16.3567 159.712 16.2981 160.182 16.3706L177.716 19.0767C178.119 19.139 178.503 19.2962 178.834 19.5355C179.165 19.7747 179.434 20.0891 179.62 20.4528C179.806 20.8166 179.903 21.2192 179.903 21.6277C179.903 22.0361 179.806 22.4388 179.62 22.8024L171.543 38.5987C171.326 39.0207 170.997 39.3749 170.592 39.622C170.187 39.8693 169.721 40 169.247 39.9999C168.772 39.9998 168.307 39.8689 167.902 39.6216C167.497 39.3742 167.168 39.0199 166.951 38.5978Z" fill="#94A3B8"/>
<path d="M172.718 22.5452L169.352 22L165.218 23.1776L166.868 26.5642L170.732 29.3614C170.817 29.4225 170.911 29.4692 171.009 29.5L172.477 26.4889L172.718 22.5452Z" fill="white"/>
<path d="M193.708 30.6514C193.708 30.4229 193.672 30.2178 193.602 30.0361C193.538 29.8486 193.415 29.6787 193.233 29.5264C193.051 29.3682 192.796 29.2129 192.468 29.0605C192.14 28.9082 191.715 28.75 191.194 28.5859C190.614 28.3984 190.063 28.1875 189.542 27.9531C189.026 27.7188 188.569 27.4463 188.17 27.1357C187.778 26.8193 187.467 26.4531 187.239 26.0371C187.016 25.6211 186.905 25.1377 186.905 24.5869C186.905 24.0537 187.022 23.5703 187.256 23.1367C187.491 22.6973 187.819 22.3223 188.241 22.0117C188.663 21.6953 189.161 21.4521 189.735 21.2822C190.315 21.1123 190.951 21.0273 191.642 21.0273C192.585 21.0273 193.409 21.1973 194.112 21.5371C194.815 21.877 195.36 22.3428 195.747 22.9346C196.139 23.5264 196.335 24.2031 196.335 24.9648H193.716C193.716 24.5898 193.637 24.2617 193.479 23.9805C193.327 23.6934 193.092 23.4678 192.776 23.3037C192.465 23.1396 192.073 23.0576 191.598 23.0576C191.141 23.0576 190.76 23.1279 190.456 23.2686C190.151 23.4033 189.922 23.5879 189.77 23.8223C189.618 24.0508 189.542 24.3086 189.542 24.5957C189.542 24.8125 189.594 25.0088 189.7 25.1846C189.811 25.3604 189.975 25.5244 190.192 25.6768C190.409 25.8291 190.675 25.9727 190.992 26.1074C191.308 26.2422 191.674 26.374 192.09 26.5029C192.788 26.7139 193.4 26.9512 193.927 27.2148C194.46 27.4785 194.906 27.7744 195.263 28.1025C195.621 28.4307 195.89 28.8027 196.072 29.2188C196.253 29.6348 196.344 30.1064 196.344 30.6338C196.344 31.1904 196.236 31.6885 196.019 32.1279C195.802 32.5674 195.489 32.9395 195.079 33.2441C194.668 33.5488 194.179 33.7803 193.611 33.9385C193.042 34.0967 192.407 34.1758 191.704 34.1758C191.071 34.1758 190.447 34.0937 189.832 33.9297C189.216 33.7598 188.657 33.5049 188.153 33.165C187.655 32.8252 187.256 32.3916 186.958 31.8643C186.659 31.3369 186.509 30.7129 186.509 29.9922H189.155C189.155 30.3906 189.216 30.7275 189.339 31.0029C189.462 31.2783 189.635 31.501 189.858 31.6709C190.086 31.8408 190.356 31.9639 190.667 32.04C190.983 32.1162 191.329 32.1543 191.704 32.1543C192.161 32.1543 192.536 32.0898 192.829 31.9609C193.127 31.832 193.347 31.6533 193.488 31.4248C193.634 31.1963 193.708 30.9385 193.708 30.6514ZM200.51 26.459V34H197.97V24.4902H200.352L200.51 26.459ZM200.159 28.9111H199.456C199.456 28.249 199.535 27.6396 199.693 27.083C199.857 26.5205 200.094 26.0342 200.405 25.624C200.721 25.208 201.111 24.8857 201.574 24.6572C202.037 24.4287 202.573 24.3145 203.182 24.3145C203.604 24.3145 203.991 24.3789 204.342 24.5078C204.694 24.6309 204.996 24.8271 205.248 25.0967C205.505 25.3604 205.705 25.7061 205.845 26.1338C205.986 26.5557 206.056 27.0625 206.056 27.6543V34H203.525V27.9355C203.525 27.502 203.466 27.168 203.349 26.9336C203.232 26.6992 203.065 26.5352 202.848 26.4414C202.637 26.3477 202.382 26.3008 202.083 26.3008C201.755 26.3008 201.468 26.3682 201.222 26.5029C200.982 26.6377 200.783 26.8252 200.625 27.0654C200.466 27.2998 200.349 27.5752 200.273 27.8916C200.197 28.208 200.159 28.5479 200.159 28.9111ZM205.819 28.6211L204.914 28.7354C204.914 28.1143 204.99 27.5371 205.142 27.0039C205.3 26.4707 205.532 26.002 205.836 25.5977C206.147 25.1934 206.531 24.8799 206.988 24.6572C207.445 24.4287 207.972 24.3145 208.57 24.3145C209.027 24.3145 209.443 24.3818 209.818 24.5166C210.193 24.6455 210.512 24.8535 210.776 25.1406C211.045 25.4219 211.25 25.791 211.391 26.248C211.538 26.7051 211.611 27.2646 211.611 27.9268V34H209.071V27.9268C209.071 27.4873 209.012 27.1533 208.895 26.9248C208.784 26.6904 208.62 26.5293 208.403 26.4414C208.192 26.3477 207.94 26.3008 207.647 26.3008C207.342 26.3008 207.076 26.3623 206.847 26.4854C206.619 26.6025 206.428 26.7666 206.276 26.9775C206.124 27.1885 206.009 27.4346 205.933 27.7158C205.857 27.9912 205.819 28.293 205.819 28.6211ZM218.704 31.8555V27.6191C218.704 27.3145 218.654 27.0537 218.554 26.8369C218.455 26.6143 218.299 26.4414 218.088 26.3184C217.883 26.1953 217.617 26.1338 217.289 26.1338C217.007 26.1338 216.764 26.1836 216.559 26.2832C216.354 26.377 216.196 26.5146 216.084 26.6963C215.973 26.8721 215.917 27.0801 215.917 27.3203H213.386C213.386 26.916 213.48 26.5322 213.667 26.1689C213.855 25.8057 214.127 25.4863 214.485 25.2109C214.842 24.9297 215.267 24.71 215.759 24.5518C216.257 24.3936 216.814 24.3145 217.429 24.3145C218.167 24.3145 218.824 24.4375 219.398 24.6836C219.972 24.9297 220.423 25.2988 220.751 25.791C221.085 26.2832 221.252 26.8984 221.252 27.6367V31.7061C221.252 32.2275 221.285 32.6553 221.349 32.9893C221.414 33.3174 221.507 33.6045 221.63 33.8506V34H219.073C218.95 33.7422 218.856 33.4199 218.791 33.0332C218.733 32.6406 218.704 32.248 218.704 31.8555ZM219.038 28.208L219.055 29.6406H217.64C217.306 29.6406 217.016 29.6787 216.77 29.7549C216.524 29.8311 216.322 29.9395 216.164 30.0801C216.005 30.2148 215.888 30.373 215.812 30.5547C215.742 30.7363 215.707 30.9355 215.707 31.1523C215.707 31.3691 215.756 31.5654 215.856 31.7412C215.956 31.9111 216.099 32.0459 216.287 32.1455C216.474 32.2393 216.694 32.2861 216.946 32.2861C217.327 32.2861 217.658 32.21 217.939 32.0576C218.22 31.9053 218.437 31.7178 218.589 31.4951C218.748 31.2725 218.83 31.0615 218.835 30.8623L219.503 31.9346C219.41 32.1748 219.281 32.4238 219.117 32.6816C218.958 32.9395 218.756 33.1826 218.51 33.4111C218.264 33.6338 217.968 33.8184 217.623 33.9648C217.277 34.1055 216.867 34.1758 216.392 34.1758C215.789 34.1758 215.241 34.0557 214.749 33.8154C214.262 33.5693 213.875 33.2324 213.588 32.8047C213.307 32.3711 213.167 31.8789 213.167 31.3281C213.167 30.8301 213.26 30.3877 213.448 30.001C213.635 29.6143 213.911 29.2891 214.274 29.0254C214.643 28.7559 215.103 28.5537 215.654 28.4189C216.205 28.2783 216.843 28.208 217.57 28.208H219.038ZM225.735 26.5645V34H223.204V24.4902H225.585L225.735 26.5645ZM228.6 24.4287L228.556 26.7754C228.433 26.7578 228.284 26.7432 228.108 26.7314C227.938 26.7139 227.783 26.7051 227.642 26.7051C227.285 26.7051 226.974 26.752 226.71 26.8457C226.453 26.9336 226.236 27.0654 226.06 27.2412C225.89 27.417 225.761 27.6309 225.673 27.8828C225.591 28.1348 225.544 28.4219 225.533 28.7441L225.023 28.5859C225.023 27.9707 225.084 27.4053 225.208 26.8896C225.331 26.3682 225.509 25.9141 225.744 25.5273C225.984 25.1406 226.277 24.8418 226.623 24.6309C226.968 24.4199 227.364 24.3145 227.809 24.3145C227.95 24.3145 228.093 24.3262 228.24 24.3496C228.386 24.3672 228.506 24.3936 228.6 24.4287ZM234.893 24.4902V26.2832H229.356V24.4902H234.893ZM230.727 22.1436H233.258V31.1348C233.258 31.4102 233.293 31.6211 233.364 31.7676C233.44 31.9141 233.551 32.0166 233.698 32.0752C233.844 32.1279 234.029 32.1543 234.251 32.1543C234.41 32.1543 234.55 32.1484 234.673 32.1367C234.802 32.1191 234.911 32.1016 234.999 32.084L235.007 33.9473C234.791 34.0176 234.556 34.0732 234.304 34.1143C234.052 34.1553 233.774 34.1758 233.469 34.1758C232.913 34.1758 232.426 34.085 232.01 33.9033C231.6 33.7158 231.284 33.417 231.061 33.0068C230.838 32.5967 230.727 32.0576 230.727 31.3896V22.1436ZM239.129 21.2031V34H236.493V21.2031H239.129ZM244.227 26.6699V28.7266H238.409V26.6699H244.227ZM244.842 21.2031V23.2686H238.409V21.2031H244.842ZM248.885 24.4902V34H246.345V24.4902H248.885ZM246.187 22.0117C246.187 21.6426 246.316 21.3379 246.574 21.0977C246.832 20.8574 247.177 20.7373 247.611 20.7373C248.039 20.7373 248.381 20.8574 248.639 21.0977C248.903 21.3379 249.035 21.6426 249.035 22.0117C249.035 22.3809 248.903 22.6855 248.639 22.9258C248.381 23.166 248.039 23.2861 247.611 23.2861C247.177 23.2861 246.832 23.166 246.574 22.9258C246.316 22.6855 246.187 22.3809 246.187 22.0117ZM253.456 26.5205V34H250.924V24.4902H253.297L253.456 26.5205ZM253.086 28.9111H252.401C252.401 28.208 252.492 27.5752 252.673 27.0127C252.855 26.4443 253.11 25.9609 253.438 25.5625C253.766 25.1582 254.156 24.8506 254.607 24.6396C255.064 24.4229 255.574 24.3145 256.136 24.3145C256.582 24.3145 256.989 24.3789 257.358 24.5078C257.727 24.6367 258.043 24.8418 258.307 25.123C258.577 25.4043 258.782 25.7764 258.922 26.2393C259.069 26.7021 259.142 27.2676 259.142 27.9355V34H256.593V27.9268C256.593 27.5049 256.535 27.1768 256.417 26.9424C256.3 26.708 256.127 26.5439 255.899 26.4502C255.676 26.3506 255.401 26.3008 255.073 26.3008C254.733 26.3008 254.437 26.3682 254.185 26.5029C253.939 26.6377 253.734 26.8252 253.57 27.0654C253.412 27.2998 253.291 27.5752 253.209 27.8916C253.127 28.208 253.086 28.5479 253.086 28.9111ZM266.683 31.9258V20.5H269.232V34H266.938L266.683 31.9258ZM260.671 29.3594V29.1748C260.671 28.4482 260.753 27.7891 260.917 27.1973C261.082 26.5996 261.322 26.0869 261.638 25.6592C261.955 25.2314 262.344 24.9004 262.807 24.666C263.27 24.4316 263.797 24.3145 264.389 24.3145C264.946 24.3145 265.432 24.4316 265.848 24.666C266.27 24.9004 266.627 25.2344 266.92 25.668C267.219 26.0957 267.459 26.6025 267.641 27.1885C267.823 27.7686 267.955 28.4043 268.037 29.0957V29.5C267.955 30.1621 267.823 30.7773 267.641 31.3457C267.459 31.9141 267.219 32.4121 266.92 32.8398C266.627 33.2617 266.27 33.5898 265.848 33.8242C265.426 34.0586 264.934 34.1758 264.372 34.1758C263.78 34.1758 263.252 34.0557 262.79 33.8154C262.333 33.5752 261.946 33.2383 261.629 32.8047C261.319 32.3711 261.082 31.8613 260.917 31.2754C260.753 30.6895 260.671 30.0508 260.671 29.3594ZM263.203 29.1748V29.3594C263.203 29.752 263.232 30.1182 263.291 30.458C263.355 30.7979 263.458 31.0996 263.598 31.3633C263.745 31.6211 263.932 31.8232 264.161 31.9697C264.395 32.1104 264.679 32.1807 265.013 32.1807C265.447 32.1807 265.804 32.084 266.085 31.8906C266.367 31.6914 266.581 31.4189 266.727 31.0732C266.879 30.7275 266.967 30.3291 266.991 29.8779V28.7266C266.973 28.3574 266.92 28.0264 266.833 27.7334C266.75 27.4346 266.627 27.1797 266.463 26.9688C266.305 26.7578 266.106 26.5938 265.866 26.4766C265.631 26.3594 265.353 26.3008 265.031 26.3008C264.703 26.3008 264.421 26.377 264.187 26.5293C263.953 26.6758 263.762 26.8779 263.616 27.1357C263.475 27.3936 263.37 27.6982 263.299 28.0498C263.235 28.3955 263.203 28.7705 263.203 29.1748ZM275.586 34.1758C274.848 34.1758 274.186 34.0586 273.6 33.8242C273.014 33.584 272.516 33.2529 272.106 32.8311C271.702 32.4092 271.391 31.9199 271.174 31.3633C270.958 30.8008 270.849 30.2031 270.849 29.5703V29.2188C270.849 28.498 270.952 27.8389 271.157 27.2412C271.362 26.6436 271.655 26.125 272.036 25.6855C272.422 25.2461 272.891 24.9092 273.442 24.6748C273.993 24.4346 274.614 24.3145 275.305 24.3145C275.979 24.3145 276.577 24.4258 277.098 24.6484C277.62 24.8711 278.056 25.1875 278.408 25.5977C278.765 26.0078 279.035 26.5 279.216 27.0742C279.398 27.6426 279.489 28.2754 279.489 28.9727V30.0273H271.93V28.3398H277.001V28.1465C277.001 27.7949 276.937 27.4814 276.808 27.2061C276.685 26.9248 276.498 26.7021 276.246 26.5381C275.994 26.374 275.671 26.292 275.279 26.292C274.945 26.292 274.658 26.3652 274.417 26.5117C274.177 26.6582 273.981 26.8633 273.829 27.127C273.682 27.3906 273.571 27.7012 273.495 28.0586C273.424 28.4102 273.389 28.7969 273.389 29.2188V29.5703C273.389 29.9512 273.442 30.3027 273.547 30.625C273.659 30.9473 273.814 31.2256 274.013 31.46C274.218 31.6943 274.464 31.876 274.751 32.0049C275.044 32.1338 275.375 32.1982 275.745 32.1982C276.202 32.1982 276.626 32.1104 277.019 31.9346C277.417 31.7529 277.76 31.4805 278.047 31.1172L279.278 32.4531C279.079 32.7402 278.806 33.0156 278.46 33.2793C278.121 33.543 277.71 33.7598 277.23 33.9297C276.75 34.0937 276.202 34.1758 275.586 34.1758ZM283.461 26.5645V34H280.93V24.4902H283.312L283.461 26.5645ZM286.327 24.4287L286.283 26.7754C286.16 26.7578 286.01 26.7432 285.834 26.7314C285.665 26.7139 285.509 26.7051 285.369 26.7051C285.011 26.7051 284.701 26.752 284.437 26.8457C284.179 26.9336 283.962 27.0654 283.787 27.2412C283.617 27.417 283.488 27.6309 283.4 27.8828C283.318 28.1348 283.271 28.4219 283.259 28.7441L282.75 28.5859C282.75 27.9707 282.811 27.4053 282.934 26.8896C283.057 26.3682 283.236 25.9141 283.47 25.5273C283.71 25.1406 284.003 24.8418 284.349 24.6309C284.695 24.4199 285.09 24.3145 285.536 24.3145C285.676 24.3145 285.82 24.3262 285.966 24.3496C286.113 24.3672 286.233 24.3936 286.327 24.4287Z" fill="#94A3B8"/>
<path d="M360.193 40H369.882L345.882 16H336.193L360.193 40Z" fill="#94A3B8"/>
<path d="M350.859 16L373.995 39.1355V16H367.734V23.3043L360.43 16L350.859 16Z" fill="#94A3B8"/>
<path d="M332.138 16.8035V40H338.399V32.6956L345.703 40H355.334L332.138 16.8035Z" fill="#94A3B8"/>
<path d="M386.34 23.3916L382.86 34H380.056L384.811 21.2031H386.595L386.34 23.3916ZM389.232 34L385.743 23.3916L385.461 21.2031H387.263L392.044 34H389.232ZM389.074 29.2363V31.3018H382.315V29.2363H389.074ZM395.604 26.5645V34H393.073V24.4902H395.455L395.604 26.5645ZM398.469 24.4287L398.425 26.7754C398.302 26.7578 398.153 26.7432 397.977 26.7314C397.807 26.7139 397.652 26.7051 397.511 26.7051C397.154 26.7051 396.843 26.752 396.58 26.8457C396.322 26.9336 396.105 27.0654 395.929 27.2412C395.759 27.417 395.63 27.6309 395.542 27.8828C395.46 28.1348 395.414 28.4219 395.402 28.7441L394.892 28.5859C394.892 27.9707 394.954 27.4053 395.077 26.8896C395.2 26.3682 395.378 25.9141 395.613 25.5273C395.853 25.1406 396.146 24.8418 396.492 24.6309C396.837 24.4199 397.233 24.3145 397.678 24.3145C397.819 24.3145 397.962 24.3262 398.109 24.3496C398.255 24.3672 398.375 24.3936 398.469 24.4287ZM404.762 24.4902V26.2832H399.225V24.4902H404.762ZM400.596 22.1436H403.127V31.1348C403.127 31.4102 403.163 31.6211 403.233 31.7676C403.309 31.9141 403.42 32.0166 403.567 32.0752C403.713 32.1279 403.898 32.1543 404.121 32.1543C404.279 32.1543 404.419 32.1484 404.542 32.1367C404.671 32.1191 404.78 32.1016 404.868 32.084L404.876 33.9473C404.66 34.0176 404.425 34.0732 404.173 34.1143C403.921 34.1553 403.643 34.1758 403.338 34.1758C402.782 34.1758 402.295 34.085 401.879 33.9033C401.469 33.7158 401.153 33.417 400.93 33.0068C400.708 32.5967 400.596 32.0576 400.596 31.3896V22.1436ZM410.976 31.3281L413.991 21.2031H416.926L412.47 34H410.537L410.976 31.3281ZM408.199 21.2031L411.205 31.3281L411.662 34H409.71L405.281 21.2031H408.199ZM421.954 34.1758C421.215 34.1758 420.553 34.0586 419.967 33.8242C419.381 33.584 418.883 33.2529 418.473 32.8311C418.069 32.4092 417.758 31.9199 417.541 31.3633C417.325 30.8008 417.216 30.2031 417.216 29.5703V29.2188C417.216 28.498 417.319 27.8389 417.524 27.2412C417.729 26.6436 418.022 26.125 418.403 25.6855C418.79 25.2461 419.258 24.9092 419.809 24.6748C420.36 24.4346 420.981 24.3145 421.672 24.3145C422.346 24.3145 422.944 24.4258 423.465 24.6484C423.987 24.8711 424.423 25.1875 424.775 25.5977C425.132 26.0078 425.402 26.5 425.583 27.0742C425.765 27.6426 425.856 28.2754 425.856 28.9727V30.0273H418.297V28.3398H423.369V28.1465C423.369 27.7949 423.304 27.4814 423.175 27.2061C423.052 26.9248 422.865 26.7021 422.613 26.5381C422.361 26.374 422.039 26.292 421.646 26.292C421.312 26.292 421.025 26.3652 420.785 26.5117C420.544 26.6582 420.348 26.8633 420.196 27.127C420.049 27.3906 419.938 27.7012 419.862 28.0586C419.791 28.4102 419.756 28.7969 419.756 29.2188V29.5703C419.756 29.9512 419.809 30.3027 419.915 30.625C420.026 30.9473 420.181 31.2256 420.38 31.46C420.585 31.6943 420.832 31.876 421.119 32.0049C421.412 32.1338 421.743 32.1982 422.112 32.1982C422.569 32.1982 422.994 32.1104 423.386 31.9346C423.785 31.7529 424.127 31.4805 424.415 31.1172L425.645 32.4531C425.446 32.7402 425.173 33.0156 424.828 33.2793C424.488 33.543 424.078 33.7598 423.597 33.9297C423.117 34.0937 422.569 34.1758 421.954 34.1758ZM429.776 26.5205V34H427.245V24.4902H429.618L429.776 26.5205ZM429.407 28.9111H428.721C428.721 28.208 428.812 27.5752 428.994 27.0127C429.175 26.4443 429.43 25.9609 429.758 25.5625C430.086 25.1582 430.476 24.8506 430.927 24.6396C431.384 24.4229 431.894 24.3145 432.457 24.3145C432.902 24.3145 433.309 24.3789 433.678 24.5078C434.047 24.6367 434.364 24.8418 434.627 25.123C434.897 25.4043 435.102 25.7764 435.243 26.2393C435.389 26.7021 435.462 27.2676 435.462 27.9355V34H432.914V27.9268C432.914 27.5049 432.855 27.1768 432.738 26.9424C432.621 26.708 432.448 26.5439 432.219 26.4502C431.997 26.3506 431.721 26.3008 431.393 26.3008C431.053 26.3008 430.757 26.3682 430.505 26.5029C430.259 26.6377 430.054 26.8252 429.89 27.0654C429.732 27.2998 429.612 27.5752 429.53 27.8916C429.448 28.208 429.407 28.5479 429.407 28.9111ZM443.012 31.7236V24.4902H445.543V34H443.162L443.012 31.7236ZM443.293 29.7725L444.041 29.7549C444.041 30.3877 443.967 30.9766 443.821 31.5215C443.674 32.0605 443.455 32.5293 443.162 32.9277C442.869 33.3203 442.5 33.6279 442.054 33.8506C441.609 34.0674 441.084 34.1758 440.481 34.1758C440.018 34.1758 439.59 34.1113 439.198 33.9824C438.811 33.8477 438.477 33.6396 438.196 33.3584C437.92 33.0713 437.704 32.7051 437.545 32.2598C437.393 31.8086 437.317 31.2666 437.317 30.6338V24.4902H439.848V30.6514C439.848 30.9326 439.88 31.1699 439.945 31.3633C440.015 31.5566 440.112 31.7148 440.235 31.8379C440.358 31.9609 440.501 32.0488 440.666 32.1016C440.835 32.1543 441.023 32.1807 441.228 32.1807C441.75 32.1807 442.16 32.0752 442.458 31.8643C442.763 31.6533 442.977 31.3662 443.1 31.0029C443.229 30.6338 443.293 30.2236 443.293 29.7725ZM451.854 34.1758C451.116 34.1758 450.454 34.0586 449.868 33.8242C449.282 33.584 448.784 33.2529 448.374 32.8311C447.969 32.4092 447.659 31.9199 447.442 31.3633C447.225 30.8008 447.117 30.2031 447.117 29.5703V29.2188C447.117 28.498 447.219 27.8389 447.424 27.2412C447.629 26.6436 447.922 26.125 448.303 25.6855C448.69 25.2461 449.159 24.9092 449.709 24.6748C450.26 24.4346 450.881 24.3145 451.573 24.3145C452.247 24.3145 452.844 24.4258 453.366 24.6484C453.887 24.8711 454.324 25.1875 454.675 25.5977C455.033 26.0078 455.302 26.5 455.484 27.0742C455.666 27.6426 455.756 28.2754 455.756 28.9727V30.0273H448.198V28.3398H453.269V28.1465C453.269 27.7949 453.205 27.4814 453.076 27.2061C452.953 26.9248 452.765 26.7021 452.513 26.5381C452.261 26.374 451.939 26.292 451.546 26.292C451.212 26.292 450.925 26.3652 450.685 26.5117C450.445 26.6582 450.249 26.8633 450.096 27.127C449.95 27.3906 449.838 27.7012 449.762 28.0586C449.692 28.4102 449.657 28.7969 449.657 29.2188V29.5703C449.657 29.9512 449.709 30.3027 449.815 30.625C449.926 30.9473 450.082 31.2256 450.281 31.46C450.486 31.6943 450.732 31.876 451.019 32.0049C451.312 32.1338 451.643 32.1982 452.012 32.1982C452.469 32.1982 452.894 32.1104 453.287 31.9346C453.685 31.7529 454.028 31.4805 454.315 31.1172L455.545 32.4531C455.346 32.7402 455.074 33.0156 454.728 33.2793C454.388 33.543 453.978 33.7598 453.498 33.9297C453.017 34.0937 452.469 34.1758 451.854 34.1758Z" fill="#94A3B8"/>
<path d="M509.583 30.9863V37.0769C509.583 37.3104 509.49 37.5343 509.325 37.6993C509.16 37.8644 508.936 37.9572 508.703 37.9572C508.469 37.9572 508.246 37.8644 508.08 37.6993C507.915 37.5343 507.823 37.3104 507.823 37.0769V30.9947C508.068 31.1737 508.362 31.2737 508.665 31.2811C508.996 31.2906 509.32 31.1865 509.583 30.9863ZM517.081 29.2257C516.857 29.2257 516.643 29.3145 516.485 29.4724C516.327 29.6304 516.238 29.8447 516.238 30.0681V31.1295C516.238 31.363 516.331 31.5869 516.496 31.752C516.661 31.9171 516.885 32.0098 517.118 32.0098C517.352 32.0098 517.576 31.9171 517.741 31.752C517.906 31.5869 517.999 31.363 517.999 31.1295V30.1102C518.005 29.9894 517.986 29.8686 517.941 29.7561C517.897 29.6435 517.829 29.5418 517.742 29.4579C517.655 29.374 517.551 29.3098 517.437 29.2697C517.322 29.2297 517.201 29.2147 517.081 29.2257ZM505.91 33.2945C505.607 33.2854 505.314 33.1856 505.068 33.0081V39.1155C505.068 39.3501 505.161 39.5751 505.327 39.741C505.493 39.9068 505.718 40 505.952 40C506.187 40 506.412 39.9068 506.578 39.741C506.744 39.5751 506.837 39.3501 506.837 39.1155V33.0502C506.562 33.228 506.237 33.3136 505.91 33.2945ZM514.334 27.3977C514.22 27.392 514.106 27.4096 513.999 27.4493C513.892 27.4891 513.794 27.5502 513.711 27.629C513.628 27.7079 513.563 27.8026 513.518 27.9077C513.473 28.0127 513.45 28.1259 513.45 28.2401V32.9323C513.45 33.1669 513.543 33.3919 513.709 33.5577C513.875 33.7236 514.1 33.8168 514.334 33.8168C514.569 33.8168 514.794 33.7236 514.96 33.5577C515.126 33.3919 515.219 33.1669 515.219 32.9323V28.2991C515.226 28.1775 515.206 28.0559 515.161 27.9427C515.116 27.8295 515.047 27.7273 514.959 27.6432C514.871 27.5592 514.766 27.4951 514.651 27.4557C514.536 27.4162 514.413 27.4021 514.292 27.4145L514.334 27.3977ZM511.538 29.2004C511.22 29.1982 510.911 29.0982 510.653 28.914V35.0383C510.653 35.2729 510.746 35.4979 510.912 35.6637C511.078 35.8296 511.303 35.9228 511.538 35.9228C511.772 35.9228 511.997 35.8296 512.163 35.6637C512.329 35.4979 512.422 35.2729 512.422 35.0383V28.9224C512.155 29.1215 511.829 29.2253 511.495 29.2173L511.538 29.2004ZM503.998 33.8926V16.7834C503.996 16.5749 503.911 16.3756 503.763 16.2289C503.615 16.0823 503.415 16 503.206 16H503.021C502.812 16 502.612 16.0823 502.464 16.2289C502.316 16.3756 502.231 16.5749 502.229 16.7834V33.8926C502.229 34.1026 502.312 34.304 502.461 34.4525C502.609 34.6011 502.811 34.6845 503.021 34.6845H503.206C503.416 34.6845 503.618 34.6011 503.766 34.4525C503.915 34.304 503.998 34.1026 503.998 33.8926ZM506.003 32.6458H505.818C505.608 32.6458 505.406 32.5624 505.258 32.4139C505.109 32.2654 505.026 32.064 505.026 31.854V18.822C505.028 18.6135 505.112 18.4142 505.261 18.2676C505.409 18.1209 505.609 18.0386 505.818 18.0386H506.003C506.212 18.0386 506.412 18.1209 506.56 18.2676C506.708 18.4142 506.793 18.6135 506.795 18.822V31.8708C506.795 32.0808 506.711 32.2823 506.563 32.4308C506.414 32.5793 506.213 32.6627 506.003 32.6627V32.6458ZM508.791 30.6409H508.598C508.39 30.6409 508.191 30.5584 508.044 30.4115C507.897 30.2645 507.814 30.0653 507.814 29.8575V20.8438C507.813 20.7402 507.832 20.6374 507.871 20.5414C507.91 20.4454 507.968 20.358 508.041 20.2844C508.113 20.2107 508.2 20.1523 508.296 20.1124C508.391 20.0725 508.494 20.0519 508.598 20.0519H508.791C509 20.0542 509.199 20.1386 509.346 20.2868C509.493 20.4351 509.575 20.6352 509.575 20.8438V29.8575C509.575 30.0653 509.492 30.2645 509.345 30.4115C509.198 30.5584 508.999 30.6409 508.791 30.6409ZM511.58 28.577H511.403C511.194 28.577 510.994 28.4948 510.846 28.3481C510.697 28.2014 510.613 28.0022 510.611 27.7936V22.9414C510.604 22.8332 510.619 22.7248 510.656 22.6228C510.693 22.5209 510.75 22.4274 510.824 22.3485C510.898 22.2695 510.988 22.2066 511.088 22.1637C511.187 22.1208 511.294 22.0987 511.403 22.099H511.588C511.798 22.099 512 22.1824 512.148 22.3309C512.297 22.4794 512.38 22.6808 512.38 22.8908V27.7768C512.381 27.8815 512.361 27.9853 512.322 28.0824C512.283 28.1794 512.225 28.2677 512.151 28.3422C512.077 28.4166 511.99 28.4756 511.893 28.516C511.796 28.5563 511.693 28.577 511.588 28.577H511.58ZM514.376 26.7659H514.191C513.981 26.7659 513.78 26.6825 513.631 26.534C513.483 26.3855 513.399 26.184 513.399 25.974V24.7188C513.401 24.5103 513.486 24.311 513.634 24.1644C513.782 24.0176 513.983 23.9354 514.191 23.9354H514.376C514.585 23.9354 514.785 24.0176 514.933 24.1644C515.082 24.311 515.166 24.5103 515.168 24.7188V25.974C515.168 26.1826 515.086 26.3828 514.939 26.531C514.793 26.6793 514.593 26.7637 514.385 26.7659H514.376Z" fill="#94A3B8"/>
<path d="M528.228 31.9697L530.776 21.2031H532.2L532.525 22.9961L529.81 34H528.28L528.228 31.9697ZM526.918 21.2031L529.027 31.9697L528.852 34H527.146L524.308 21.2031H526.918ZM534.767 31.9258L536.85 21.2031H539.46L536.63 34H534.925L534.767 31.9258ZM533 21.2031L535.566 32.0137L535.496 34H533.967L531.233 22.9873L531.585 21.2031H533ZM545.709 23.3916L542.229 34H539.425L544.18 21.2031H545.964L545.709 23.3916ZM548.601 34L545.111 23.3916L544.83 21.2031H546.632L551.413 34H548.601ZM548.442 29.2363V31.3018H541.684V29.2363H548.442ZM556.493 31.3281L559.508 21.2031H562.443L557.987 34H556.054L556.493 31.3281ZM553.716 21.2031L556.722 31.3281L557.179 34H555.228L550.798 21.2031H553.716ZM572.226 31.9434V34H565.414V31.9434H572.226ZM566.275 21.2031V34H563.639V21.2031H566.275ZM571.338 26.415V28.4189H565.414V26.415H571.338ZM572.217 21.2031V23.2686H565.414V21.2031H572.217ZM580.426 30.6514C580.426 30.4229 580.391 30.2178 580.32 30.0361C580.256 29.8486 580.133 29.6787 579.951 29.5264C579.77 29.3682 579.515 29.2129 579.187 29.0605C578.858 28.9082 578.434 28.75 577.912 28.5859C577.332 28.3984 576.781 28.1875 576.26 27.9531C575.744 27.7188 575.287 27.4463 574.889 27.1357C574.496 26.8193 574.186 26.4531 573.957 26.0371C573.734 25.6211 573.623 25.1377 573.623 24.5869C573.623 24.0537 573.74 23.5703 573.975 23.1367C574.209 22.6973 574.537 22.3223 574.959 22.0117C575.381 21.6953 575.879 21.4521 576.453 21.2822C577.033 21.1123 577.669 21.0273 578.36 21.0273C579.304 21.0273 580.127 21.1973 580.83 21.5371C581.533 21.877 582.078 22.3428 582.465 22.9346C582.857 23.5264 583.054 24.2031 583.054 24.9648H580.435C580.435 24.5898 580.355 24.2617 580.197 23.9805C580.045 23.6934 579.811 23.4678 579.494 23.3037C579.184 23.1396 578.791 23.0576 578.316 23.0576C577.859 23.0576 577.479 23.1279 577.174 23.2686C576.869 23.4033 576.641 23.5879 576.488 23.8223C576.336 24.0508 576.26 24.3086 576.26 24.5957C576.26 24.8125 576.312 25.0088 576.418 25.1846C576.529 25.3604 576.693 25.5244 576.91 25.6768C577.127 25.8291 577.394 25.9727 577.71 26.1074C578.026 26.2422 578.393 26.374 578.809 26.5029C579.506 26.7139 580.118 26.9512 580.646 27.2148C581.179 27.4785 581.624 27.7744 581.981 28.1025C582.339 28.4307 582.608 28.8027 582.79 29.2188C582.972 29.6348 583.062 30.1064 583.062 30.6338C583.062 31.1904 582.954 31.6885 582.737 32.1279C582.521 32.5674 582.207 32.9395 581.797 33.2441C581.387 33.5488 580.897 33.7803 580.329 33.9385C579.761 34.0967 579.125 34.1758 578.422 34.1758C577.789 34.1758 577.165 34.0937 576.55 33.9297C575.935 33.7598 575.375 33.5049 574.871 33.165C574.373 32.8252 573.975 32.3916 573.676 31.8643C573.377 31.3369 573.228 30.7129 573.228 29.9922H575.873C575.873 30.3906 575.935 30.7275 576.058 31.0029C576.181 31.2783 576.354 31.501 576.576 31.6709C576.805 31.8408 577.074 31.9639 577.385 32.04C577.701 32.1162 578.047 32.1543 578.422 32.1543C578.879 32.1543 579.254 32.0898 579.547 31.9609C579.846 31.832 580.065 31.6533 580.206 31.4248C580.353 31.1963 580.426 30.9385 580.426 30.6514Z" fill="#94A3B8"/>
</svg>
